<svg width="33" height="16" viewBox="0 0 33 16" fill="none" xmlns="http://www.w3.org/2000/svg">
<path fill-rule="evenodd" clip-rule="evenodd" d="M0 7.61816C0 7.095 0.429317 6.6709 0.958905 6.6709L31.6439 6.6709C32.1735 6.6709 32.6028 7.095 32.6028 7.61816C32.6028 8.14132 32.1735 8.56543 31.6439 8.56543L0.958905 8.56543C0.429317 8.56543 0 8.14132 0 7.61816Z" fill="#F2F2F2"/>
<path fill-rule="evenodd" clip-rule="evenodd" d="M24.2535 0.318419C24.628 -0.0514521 25.2351 -0.0514521 25.6096 0.318419L33 7.61792L25.6096 14.9174C25.2351 15.2873 24.628 15.2873 24.2535 14.9174C23.879 14.5476 23.879 13.9479 24.2535 13.578L30.2878 7.61792L24.2535 1.65784C23.879 1.28797 23.879 0.688289 24.2535 0.318419Z" fill="#F2F2F2"/>
</svg>
