<svg width="33" height="16" viewBox="0 0 33 16" fill="none" xmlns="http://www.w3.org/2000/svg">
<path fill-rule="evenodd" clip-rule="evenodd" d="M33 7.61816C33 7.095 32.5707 6.6709 32.0411 6.6709L1.35612 6.6709C0.82653 6.6709 0.397217 7.095 0.397217 7.61816C0.397217 8.14132 0.82653 8.56543 1.35612 8.56543L32.0411 8.56543C32.5707 8.56543 33 8.14132 33 7.61816Z" fill="#F2F2F2"/>
<path fill-rule="evenodd" clip-rule="evenodd" d="M8.74649 0.318419C8.37201 -0.0514521 7.76487 -0.0514521 7.39039 0.318419L0 7.61792L7.39039 14.9174C7.76487 15.2873 8.37201 15.2873 8.74649 14.9174C9.12096 14.5476 9.12096 13.9479 8.74649 13.578L2.71219 7.61792L8.74649 1.65784C9.12096 1.28797 9.12096 0.688289 8.74649 0.318419Z" fill="#F2F2F2"/>
</svg>
