<svg version="1.1" id="facade" xmlns="http://www.w3.org/2000/svg" xmlns:xlink="http://www.w3.org/1999/xlink" x="0px" y="0px"
	 width="1444px" height="1234px" viewBox="0 0 1444 1234" enable-background="new 0 0 1444 1234" xml:space="preserve">
    
    <pattern id="pat" x="810.355" y="908.125" width="5" height="1" patternUnits="userSpaceOnUse" viewBox="5 -1 5 1" overflow="visible">
        <line opacity="0.8" stroke="#5E5E5A" stroke-width="10" enable-background="new" x1="5" y1="-1" x2="5" y2="0"/>
        <line stroke="#98918B" stroke-width="5" x1="5" y1="-1" x2="5" y2="0"/>
    </pattern>
    
<g>
	<path class="no-stroke bg1" fill="#CBCAC6" d="M731.843,494.205c8.754,22.051,16.101,78.326,5.674,92.428
		c-10.429,14.104-36.548,49.502-2.975,67.159c33.572,17.656,172.447,20.933,204.463,15.634
		c32.014-5.299,102.066-19.871,136.867-24.32c34.801-4.448,139.832-0.928,216.184,36.209
		c76.354,37.139,93.639,68.799,101.501,105.002c18.845,86.771-29.49,146.324-77.996,160.815
		c-48.508,14.492-244.068,51.041-371.021,14.907c-126.947-36.132-228.013-73.332-221.449-10.262
		c6.564,63.075-87.155,197.077-319.019,234.786c-231.863,37.709-499.145-165.616-255.563-277.228
		c243.583-111.61,282-74.234,388.144-110.563c147.127-50.354,41.897-118.845,21.065-124.895
		c-20.831-6.05-97.455,11.367-119.182,11.186S259.686,720.813,88.97,569.646c-59.769-52.925-29.846-129.487,23.066-185.563
		c104.427-110.671,388.738-17.258,505.069,23.227C662.482,423.102,714.765,451.186,731.843,494.205z"/>
	<path class="no-stroke bg2" fill="#F9F8F4" d="M271.148,331.857c122.368,0,269.984,49.013,345.957,75.453
		c45.377,15.792,97.66,43.876,114.738,86.895c8.754,22.051,16.101,78.326,5.674,92.428c-10.429,14.104-36.548,49.502-2.975,67.159
		c24.104,12.677,102.487,17.94,156.634,17.94c21.271,0,38.799-0.813,47.829-2.307c32.014-5.299,102.066-19.871,136.867-24.32
		c7.269-0.929,17.605-1.511,30.101-1.511c47.328,0,125.679,8.34,186.083,37.72c76.354,37.139,93.639,68.799,101.501,105.002
		c18.845,86.771-29.49,146.324-77.996,160.815c-33.37,9.97-136.353,30.38-238.696,30.38c-46.428,0-92.706-4.196-132.325-15.473
		c-77.149-21.958-144.744-44.312-184.427-44.313c-25.614-0.001-39.598,9.31-37.022,34.051
		c6.564,63.075-87.155,197.077-319.019,234.786c-19.232,3.128-38.729,4.599-58.137,4.599
		c-214.573,0-420.804-179.473-197.426-281.826c243.583-111.61,282-74.234,388.144-110.563
		c147.127-50.354,41.897-118.845,21.065-124.895c-3.084-0.896-7.395-1.277-12.566-1.277c-29.572,0-87.392,12.464-106.273,12.464
		c-0.117,0-0.229,0-0.343-0.001c-0.054-0.001-0.111-0.001-0.167-0.001c-7.136-0.001-27.987,3.606-58.592,3.606
		c-65.251,0-174.887-16.379-290.806-119.023c-59.769-52.925-29.846-129.487,23.066-185.563
		C148.265,345.689,206.145,331.857,271.148,331.857 M271.15,291.857h-0.001c-38.366,0-72.682,4.525-101.997,13.449
		c-35.172,10.708-64.177,27.976-86.209,51.326c-45.237,47.942-68.96,100.901-66.796,149.119
		c1.615,35.998,17.627,68.448,46.306,93.842c55.432,49.084,115.356,84.731,178.108,105.949
		c45.385,15.347,92.224,23.128,139.215,23.128c22.654,0,40.659-1.822,51.417-2.911c2.76-0.279,6.165-0.624,7.445-0.693
		c0.08,0,0.16,0,0.241,0c10.877,0,25.465-2.147,48.366-5.652c19.831-3.034,44.512-6.812,57.906-6.812
		c0.787,0,1.416,0.015,1.905,0.033c3.222,1.578,9.557,5.309,15.77,10.61c5.969,5.094,8.955,9.218,10.193,11.459
		c-3.021,3.636-14.247,14.222-49.318,26.225c-33.001,11.295-59.216,14.712-89.57,18.668
		c-61.329,7.993-137.656,17.942-302.283,93.375c-44.159,20.233-76.635,44.922-96.524,73.379
		c-20.762,29.705-27.82,63.357-20.41,97.318c5.879,26.945,20.509,52.976,43.484,77.368c20.271,21.522,46.197,40.902,77.056,57.599
		c30.199,16.341,63.452,29.214,98.834,38.265c36.999,9.463,74.563,14.262,111.648,14.262c21.961,0,43.681-1.722,64.558-5.117
		c139.043-22.613,223.11-76.397,269.15-117.534c27.676-24.729,49.959-52.477,64.441-80.243c12.8-24.541,19.392-48.678,19.324-70.472
		c27.455,1.121,76.626,15.487,128.56,30.662c13.443,3.928,27.344,7.989,41.621,12.053c39.635,11.281,87.839,17.001,143.275,17.001
		c107.938,0,215.142-21.596,250.146-32.054c35.568-10.626,67.464-36.772,87.507-71.735c15.762-27.496,31.702-73.392,18.128-135.896
		c-4.155-19.132-11.771-44.366-33.966-69.901c-19.755-22.729-48.076-42.614-89.128-62.582
		c-30.608-14.888-67.139-26.096-108.577-33.313c-31.231-5.439-64.97-8.436-95.003-8.436c-13.626,0-25.788,0.634-35.171,1.834
		c-22.959,2.935-59.159,9.799-91.099,15.856c-18.356,3.48-35.695,6.769-47.229,8.678c-4.933,0.816-18.709,1.77-41.297,1.77
		c-28.106,0-58.949-1.43-84.62-3.922c-22.882-2.222-36.543-4.753-44.323-6.639c2.426-3.966,5.185-7.697,7.446-10.757
		c6.992-9.456,15.846-27.051,12.041-70.504c-1.546-17.661-5.694-42.82-12.7-60.465c-23.459-59.093-88.41-92.388-138.767-109.913
		C534.438,336.188,392.969,291.857,271.15,291.857L271.15,291.857z"/>
</g>
<g class="bat" id="bat-A">
	<g class="floor" id="floor-A0">
		<g class="lot" id="lot-A04">
			<polygon class="color2" points="349.321,358.507 349.321,378.688 
				340.011,384.678 338.314,384.083 338.314,362.433"/>
			<polygon class="color2" points="328.035,359.284 328.035,381.008 
				338.314,384.083 338.314,362.433"/>
			<polygon points="370.563,365.018 340.011,384.678 295.581,371.062 
				207.617,402.978 305.356,458.375 353.28,441.187 439.03,386.001"/>
			<polygon points="338.314,362.433 349.321,358.507 338.945,355.327 
				328.035,359.284"/>
		</g>
		<g class="lot" id="lot-A03">
			<polygon class="color2" points="333.631,559.477 333.631,609.477 
				404.071,620.783 404.071,570.783"/>
			<polygon class="color2" points="132.479,467.067 132.479,517.067 
				257.941,587.985 257.941,537.985"/>
			<polygon class="color2" points="281.218,529.816 281.218,579.816 
				257.941,587.985 257.941,537.985"/>
			<polygon class="color2" points="333.631,559.477 333.631,609.477 
				281.218,579.816 281.218,529.816"/>
			<polygon class="color2" points="93.523,444.377 93.523,494.377 
				101.595,498.939 101.595,448.939"/>
			<polygon class="color2" points="112.036,445.312 112.036,495.312 
				101.595,498.939 101.595,448.939"/>
			<polygon class="color2" points="141.208,427.743 168.468,443.642 
				141.208,461.385"/>
			<polygon points="112.036,445.312 103.751,440.666 93.523,444.377 
				101.595,448.939"/>
			<polygon points="281.218,529.149 333.633,558.811 333.631,558.811 
				404.071,570.116 444.48,524.003 413.625,518.875 429.125,502.625 365.691,492.535 305.356,458.375 207.617,402.978 
				207.612,402.979 141.208,427.077 168.468,442.975 132.479,466.4 257.941,537.318"/>
		</g>
		<g class="lot" id="lot-A02">
			<polygon class="color2" points="404.071,570.116 404.071,620.116 
				473.218,631.164 473.218,581.164"/>
			<polygon points="458.948,507.493 520.503,526.36 473.218,581.164 
				404.071,570.116"/>
			<polygon class="color2" points="520.503,526.36 473.218,581.164 
				473.218,631.164 497.916,602.539 497.916,585.105 504.996,580.549 515.409,582.264 520.503,576.248"/>
		</g>
		<g class="lot" id="lot-A01">
			<polygon class="color2" points="699.173,465.731 699.173,515.731 
				691.113,520.917 691.113,470.917"/>
			<polygon class="color2" points="679.942,467.493 691.113,470.917 
				691.113,520.917 679.942,517.493"/>
			<polygon class="color2" points="637.148,446.72 637.148,481.58 
				613.288,474.268"/>
			<polygon class="color2" points="662.482,489.344 662.482,539.344 
				613.424,570.917 613.424,520.917"/>
			<polygon points="679.942,467.493 691.113,470.917 699.173,465.731 
				688,462.308"/>
			<polygon points="662.482,489.344 613.288,474.268 637.148,446.72 
				439.03,386.001 353.28,441.187 613.424,520.917"/>
			<polygon class="color2" points="613.424,520.917 613.424,570.917 
				543.23,549.405 543.23,499.405"/>
		</g>
		<g id="grey">
			<polygon class="color2" points="517.552,582.617 517.552,632.617 
				510.523,637.141 510.523,587.141"/>
			<polygon class="color2" points="497.916,585.105 497.916,635.105 
				510.523,637.141 510.523,587.141"/>
			<polygon points="353.28,441.187 305.356,458.375 365.691,492.535 
				429.125,502.625 413.625,518.875 444.48,524.003 458.948,507.493 520.503,526.36 543.23,499.405"/>
			<polygon points="517.552,582.617 510.523,587.141 497.916,585.105 
				504.996,580.549"/>
			<polygon class="color2" points="543.23,549.405 543.23,499.405 
				520.503,526.36 520.503,576.248"/>
		</g>
	</g>
	<g class="floor" id="floor-A1">
		<g class="grey">
			<polygon points="353.28,391.187 305.356,408.375 365.691,442.535 
				429.125,452.625 413.625,468.875 444.48,474.003 458.948,457.493 481.979,430.63"/>
		</g>
		<g class="lot" id="lot-A15">
			<polygon points="370.563,315.018 340.011,334.678 295.581,321.062 
				207.617,352.978 305.356,408.375 353.28,391.187 439.03,336.001"/>
			<polygon points="338.314,312.433 349.321,308.507 338.945,305.327 
				328.035,309.284"/>
			<polygon class="color2" points="349.321,308.507 349.321,328.687 340.011,334.678 
				338.314,334.158 338.314,312.433"/>
			<polygon class="color2" points="328.035,309.284 338.314,312.433 338.314,334.158 
				328.035,331.008"/>
		</g>
		<g class="lot" id="lot-A14">
			<polygon points="112.036,395.312 103.751,390.666 93.523,394.377 
				101.595,398.939"/>
			<polygon points="305.356,408.375 207.617,352.978 207.612,352.979 
				141.208,377.077 168.468,392.975 132.479,416.4 257.941,487.318 281.218,479.149 342.168,456.197 335.775,452.83 
				336.748,453.342 329.824,449.355 358.786,438.625"/>
			<polygon points="257.941,532.318 257.941,487.318 281.218,479.149 
				281.218,524.149"/>
			<polygon points="132.479,416.4 132.479,461.4 93.523,439.377 
				93.523,444.377 257.941,537.318 257.941,532.318 257.941,487.318"/>
			<polygon points="141.208,377.077 141.208,410.718 168.468,392.975
				"/>
			<polygon class="color2" points="93.523,394.377 93.523,439.377 
				101.716,443.897 101.595,398.939"/>
			<polygon class="color2" points="112.036,395.312 112.036,440.312 
				101.716,443.897 101.595,398.939"/>
			<polygon points="132.479,425.244 112.036,432.66 112.036,440.312 
				101.716,443.897 132.479,461.4"/>
			<polygon class="color2" points="112.036,412.66 141.208,402.078 
				141.208,410.718 132.479,416.4 132.479,425.244 112.036,432.66"/>
			<polygon class="color2" points="101.716,423.897 132.479,441.4 
				132.479,461.4 101.716,443.897"/>
		</g>
		<g class="lot" id="lot-A13">
			<path d="M333.633,558.811h-0.002H333.633z"/>
			<polygon points="257.941,532.318 281.031,545.372 333.633,553.811 
				281.218,524.149"/>
			<path d="M333.633,553.811h-0.002H333.633z"/>
			<path d="M333.633,508.811h-0.002H333.633z"/>
			<polygon points="358.786,438.625 329.824,449.355 336.748,453.342 
				335.672,452.776 342.065,456.143 281.218,479.149 333.633,508.811 404.071,520.116 444.48,474.003 413.625,468.875 
				429.125,452.625 365.691,442.535"/>
			<polygon points="333.633,508.811 333.633,553.811 281.031,545.372 
				281.031,550.372 333.633,558.811 404.071,570.116 404.071,520.116"/>
			<polygon points="281.218,479.149 333.633,508.811 333.633,553.811 
				281.218,524.149"/>
			<polygon points="281.031,550.372 257.941,537.318 257.941,532.318 
				281.031,545.372"/>
			<polygon class="color2" points="257.941,532.318 281.031,545.372 
				281.031,525.372 257.941,512.318"/>
			<polygon class="color2" points="333.633,533.811 333.633,553.811 
				281.031,545.372 281.031,525.372"/>
		</g>
		<g class="lot" id="lot-A12">
			<polygon points="517.552,532.617 510.523,537.141 497.916,535.105 
				504.996,530.549"/>
			<polygon points="543.649,449.534 481.979,430.63 458.948,457.493 
				404.071,520.116 473.218,531.164 480.231,532.284 502.792,505.744 548.008,513.016 613.424,470.917"/>
			<polygon points="548.008,513.016 548.008,558.016 510.523,582.141 
				510.523,587.141 613.424,520.917 613.424,470.917"/>
			<polygon class="color2" points="510.523,582.141 510.523,537.141 
				517.552,532.617 517.552,577.617"/>
			<polygon class="color2" points="497.916,535.105 497.916,580.105 
				510.523,582.141 510.523,537.141"/>
			<polygon points="404.071,520.116 404.071,570.116 510.523,587.141 
				510.523,582.141 480.231,577.284 480.231,532.284"/>
			<polygon points="502.792,505.744 502.792,531.967 497.916,535.105 
				497.916,556.48 480.231,577.284 480.231,532.284"/>
			<polygon points="548.008,513.016 548.008,558.016 517.552,553.118 
				517.552,532.617 504.996,530.549 502.792,531.967 502.792,505.744"/>
			<polygon points="517.552,577.617 548.008,558.016 517.552,553.118
				"/>
			<polygon points="480.231,577.284 497.916,556.48 497.916,580.119"/>
			<path class="color2" d="M480.231,557.284l17.685,2.835
				c0,0,0,20.014,0,20s-17.685-2.835-17.685-2.835V557.284z"/>
			<polygon class="color2" points="548.008,538.016 548.008,558.016 
				517.552,577.617 517.552,557.617"/>
		</g>
		<g class="lot" id="lot-A11">
			<polygon points="679.942,417.493 691.113,420.917 699.173,415.731 
				688,412.308"/>
			<polygon points="662.482,439.344 613.288,424.268 637.148,396.72 
				439.03,336.001 353.28,391.187 613.424,470.917"/>
			<polygon class="color2" points="699.173,415.731 691.113,420.917 
				691.113,465.917 699.173,460.731"/>
			<polygon class="color2" points="679.942,417.493 691.113,420.917 
				691.113,465.917 679.942,462.493"/>
			<polygon points="637.148,396.72 637.148,431.58 613.288,424.268"/>
			<polygon points="699.173,465.731 699.173,460.731 662.482,484.344 
				662.482,439.344 613.424,470.917 613.424,520.917"/>
			<polygon points="679.942,454.838 662.482,449.486 662.482,484.344 
				691.113,465.731 679.942,462.493"/>
			<polygon class="color2" points="679.942,434.838 679.942,454.838 
				662.482,449.486 662.482,439.344 637.148,431.58 637.148,421.563"/>
			<polygon class="color2" points="662.482,464.344 691.113,445.731 
				691.115,465.917 662.482,484.344"/>
		</g>
	</g>
	<g class="floor" id="floor-A2">
		<g class="grey">
			<polygon points="353.28,341.187 305.356,358.375 365.691,392.535 
				429.125,402.625 413.625,418.875 444.48,424.003 458.948,407.493 481.979,380.63"/>
		</g>
		<g class="lot" id="lot-A25">
			<polygon points="370.563,265.018 340.011,284.678 295.581,271.062 
				207.617,302.978 305.356,358.375 353.28,341.187 439.03,286.001"/>
			<polygon points="338.314,262.433 349.321,258.507 338.945,255.327 
				328.035,259.284"/>
			<polygon class="color2" points="349.321,258.507 349.321,278.687 340.011,284.678 
				338.314,284.158 338.314,262.433"/>
			<polygon class="color2" points="328.035,259.284 338.314,262.433 338.314,284.158 
				328.035,281.008"/>
		</g>
		<g class="lot" id="lot-A24">
			<polygon points="112.036,345.312 103.751,340.666 93.523,344.377 
				101.595,348.939"/>
			<polygon points="305.356,358.375 207.617,302.978 207.612,302.979 
				141.208,327.077 168.468,342.975 132.479,366.4 257.941,437.318 281.218,429.149 289.115,426.21 342.625,406.541 
				336.748,403.342 329.824,399.355 358.786,388.625"/>
			<polygon points="257.941,482.318 257.941,437.318 281.218,429.149 
				281.218,474.149"/>
			<polygon points="132.479,366.4 132.479,411.4 93.523,389.377 
				93.523,394.377 257.941,487.318 257.941,482.318 257.941,437.318"/>
			<polygon points="141.208,327.077 141.208,360.718 168.468,342.975
				"/>
			<polygon class="color2" points="93.523,344.377 93.523,389.377 
				101.716,393.897 101.595,348.939"/>
			<polygon class="color2" points="112.036,345.312 112.036,390.312 
				101.716,393.897 101.595,348.939"/>
			<polygon points="132.479,375.244 112.036,382.66 112.036,390.312 
				101.716,393.897 132.479,411.4"/>
			<polygon class="color2" points="112.036,362.66 141.208,352.078 
				141.208,360.718 132.479,366.4 132.479,375.244 112.036,382.66"/>
			<polygon class="color2" points="101.716,373.897 132.479,391.4 
				132.479,411.4 101.716,393.897"/>
		</g>
		<g class="lot" id="lot-A23">
			<path d="M333.633,508.811h-0.002H333.633z"/>
			<polygon points="257.941,482.318 281.031,495.372 333.633,503.811 
				281.218,474.149"/>
			<path d="M333.633,503.811h-0.002H333.633z"/>
			<path d="M333.633,458.811h-0.002H333.633z"/>
			<polygon points="358.786,388.625 329.824,399.355 336.748,403.342 
				336.232,403.173 342.625,406.541 281.218,429.149 333.633,458.811 404.071,470.116 444.48,424.003 413.625,418.875 
				429.125,402.625 365.691,392.535"/>
			<polygon points="333.633,458.811 333.633,503.811 281.031,495.372 
				281.031,500.372 333.633,508.811 404.071,520.116 404.071,470.116"/>
			<polygon points="281.218,429.149 333.633,458.811 333.633,503.811 
				281.218,474.149"/>
			<polygon points="281.031,500.372 257.941,487.318 257.941,482.318 
				281.031,495.372"/>
			<polygon class="color2" points="257.941,482.318 281.031,495.372 
				281.031,475.372 257.941,462.318"/>
			<polygon class="color2" points="333.633,483.811 333.633,503.811 
				281.031,495.372 281.031,475.372"/>
		</g>
		<g class="lot" id="lot-A22">
			<polygon points="517.552,482.617 510.523,487.141 497.916,485.105 
				504.996,480.549"/>
			<polygon points="543.649,399.534 481.979,380.63 458.948,407.493 
				404.071,470.116 473.218,481.164 480.231,482.284 502.792,455.744 548.008,463.016 613.424,420.917"/>
			<polygon points="548.008,463.016 548.008,508.016 510.523,532.141 
				510.523,537.141 613.424,470.917 613.424,420.917"/>
			<polygon class="color2" points="510.523,532.141 510.523,487.141 
				517.552,482.617 517.552,527.617"/>
			<polygon class="color2" points="497.916,485.105 497.916,530.105 
				510.523,532.141 510.523,487.141"/>
			<polygon points="404.071,470.116 404.071,520.116 510.523,537.141 
				510.523,532.141 480.231,527.284 480.231,482.284"/>
			<polygon points="502.792,455.744 502.792,481.967 497.916,485.105 
				497.916,506.48 480.231,527.284 480.231,482.284"/>
			<polygon points="548.008,463.016 548.008,508.016 517.552,503.118 
				517.552,482.617 504.996,480.549 502.792,481.967 502.792,455.744"/>
			<polygon points="517.552,527.617 548.008,508.016 517.552,503.118
				"/>
			<polygon points="480.231,527.284 497.916,506.48 497.916,530.119"/>
			<path class="color2" d="M480.231,507.284l17.685,2.835
				c0,0,0,20.014,0,20s-17.685-2.835-17.685-2.835V507.284z"/>
			<polygon class="color2" points="548.008,488.016 548.008,508.016 
				517.552,527.617 517.552,507.617"/>
		</g>
		<g class="lot" id="lot-A21">
			<polygon points="679.942,367.493 691.113,370.917 699.173,365.731 
				688,362.308"/>
			<polygon points="662.482,389.344 613.288,374.268 637.148,346.72 
				439.03,286.001 353.28,341.187 613.424,420.917"/>
			<polygon class="color2" points="699.173,365.731 691.113,370.917 
				691.113,415.917 699.173,410.731"/>
			<polygon class="color2" points="679.942,367.493 691.113,370.917 
				691.113,415.917 679.942,412.493"/>
			<polygon points="637.148,346.72 637.148,381.58 613.288,374.268"/>
			<polygon points="699.173,415.731 699.173,410.731 662.482,434.344 
				662.482,389.344 613.424,420.917 613.424,470.917"/>
			<polygon points="679.942,404.838 662.482,399.486 662.482,434.344 
				691.113,415.731 679.942,412.493"/>
			<polygon class="color2" points="679.942,384.838 679.942,404.838 
				662.482,399.486 662.482,389.344 637.148,381.58 637.148,371.563"/>
			<polygon class="color2" points="662.482,414.344 691.113,395.731 
				691.115,415.917 662.482,434.344"/>
		</g>
	</g>
	<g class="floor" id="floor-A3">
		<g class="grey">
			<polygon points="353.28,291.187 305.356,308.375 365.691,342.535 
				429.125,352.625 413.625,368.875 444.48,374.003 458.948,357.493 481.979,330.63"/>
		</g>
		<g class="lot" id="lot-A35">
			<polygon points="370.563,215.018 340.011,234.678 295.581,221.062 
				207.617,252.978 305.356,308.375 353.28,291.187 439.03,236.001"/>
			<polygon points="338.314,212.433 349.321,208.507 338.945,205.327 
				328.035,209.284"/>
			<polygon class="color2" points="349.321,208.507 349.321,228.687 340.011,234.678 
				338.314,234.158 338.314,212.433"/>
			<polygon class="color2" points="328.035,209.284 338.314,212.433 338.314,234.158 
				328.035,231.008"/>
		</g>
		<g class="lot" id="lot-A34">
			<polygon points="112.036,295.312 103.751,290.666 93.523,294.377 
				101.595,298.939"/>
			<polygon points="305.356,308.375 207.617,252.978 207.612,252.979 
				141.208,277.077 168.468,292.975 132.479,316.4 257.941,387.318 281.218,379.149 289.115,376.21 343.817,356.82 336.748,353.342 
				329.824,349.355 358.786,338.625"/>
			<polygon points="257.941,432.318 257.941,387.318 281.218,379.149 
				281.218,424.149"/>
			<polygon points="132.479,316.4 132.479,361.4 93.523,339.377 
				93.523,344.377 257.941,437.318 257.941,432.318 257.941,387.318"/>
			<polygon points="141.208,277.077 141.208,310.718 168.468,292.975
				"/>
			<polygon class="color2" points="93.523,294.377 93.523,339.377 
				101.716,343.897 101.595,298.939"/>
			<polygon class="color2" points="112.036,295.312 112.036,340.312 
				101.716,343.897 101.595,298.939"/>
			<polygon points="132.479,325.244 112.036,332.66 112.036,340.312 
				101.716,343.897 132.479,361.4"/>
			<polygon class="color2" points="112.036,312.66 141.208,302.078 
				141.208,310.718 132.479,316.4 132.479,325.244 112.036,332.66"/>
			<polygon class="color2" points="101.716,323.897 132.479,341.4 
				132.479,361.4 101.716,343.897"/>
		</g>
		<g class="lot" id="lot-A33">
			<path d="M333.633,458.811h-0.002H333.633z"/>
			<polygon points="257.941,432.318 281.031,445.372 333.633,453.811 
				281.218,424.149"/>
			<path d="M333.633,453.811h-0.002H333.633z"/>
			<path d="M333.633,408.811h-0.002H333.633z"/>
			<polygon points="358.786,338.625 329.824,349.355 336.748,353.342 
				343.817,356.82 289.115,376.21 281.218,379.149 333.633,408.811 404.071,420.116 444.48,374.003 413.625,368.875 
				429.125,352.625 365.691,342.535"/>
			<polygon points="333.633,408.811 333.633,453.811 281.031,445.372 
				281.031,450.372 333.633,458.811 404.071,470.116 404.071,420.116"/>
			<polygon points="281.218,379.149 333.633,408.811 333.633,453.811 
				281.218,424.149"/>
			<polygon points="281.031,450.372 257.941,437.318 257.941,432.318 
				281.031,445.372"/>
			<polygon class="color2" points="257.941,432.318 281.031,445.372 
				281.031,425.372 257.941,412.318"/>
			<polygon class="color2" points="333.633,433.811 333.633,453.811 
				281.031,445.372 281.031,425.372"/>
		</g>
		<g class="lot" id="lot-A32">
			<polygon points="517.552,432.617 510.523,437.141 497.916,435.105 
				504.996,430.549"/>
			<polygon points="543.649,349.534 481.979,330.63 458.948,357.493 
				404.071,420.116 473.218,431.164 480.231,432.284 502.792,405.744 548.008,413.016 613.424,370.917"/>
			<polygon points="548.008,413.016 548.008,458.016 510.523,482.141 
				510.523,487.141 613.424,420.917 613.424,370.917"/>
			<polygon class="color2" points="510.523,482.141 510.523,437.141 
				517.552,432.617 517.552,477.617"/>
			<polygon class="color2" points="497.916,435.105 497.916,480.105 
				510.523,482.141 510.523,437.141"/>
			<polygon points="404.071,420.116 404.071,470.116 510.523,487.141 
				510.523,482.141 480.231,477.284 480.231,432.284"/>
			<polygon points="502.792,405.744 502.792,431.967 497.916,435.105 
				497.916,456.48 480.231,477.284 480.231,432.284"/>
			<polygon points="548.008,413.016 548.008,458.016 517.552,453.118 
				517.552,432.617 504.996,430.549 502.792,431.967 502.792,405.744"/>
			<polygon points="517.552,477.617 548.008,458.016 517.552,453.118
				"/>
			<polygon points="480.231,477.284 497.916,456.48 497.916,480.119"/>
			<path class="color2" d="M480.231,457.284l17.685,2.835
				c0,0,0,20.014,0,20s-17.685-2.835-17.685-2.835V457.284z"/>
			<polygon class="color2" points="548.008,438.016 548.008,458.016 
				517.552,477.617 517.552,457.617"/>
		</g>
		<g class="lot" id="lot-A31">
			<polygon points="679.942,317.493 691.113,320.917 699.173,315.731 
				688,312.308"/>
			<polygon points="662.482,339.344 613.288,324.268 637.148,296.72 
				439.03,236.001 353.28,291.187 613.424,370.917"/>
			<polygon class="color2" points="699.173,315.731 691.113,320.917 
				691.113,365.917 699.173,360.731"/>
			<polygon class="color2" points="679.942,317.493 691.113,320.917 
				691.113,365.917 679.942,362.493"/>
			<polygon points="637.148,296.72 637.148,331.58 613.288,324.268"/>
			<polygon points="699.173,365.731 699.173,360.731 662.482,384.344 
				662.482,339.344 613.424,370.917 613.424,420.917"/>
			<polygon points="679.942,354.838 662.482,349.486 662.482,384.344 
				691.113,365.731 679.942,362.493"/>
			<polygon class="color2" points="679.942,334.838 679.942,354.838 
				662.482,349.486 662.482,339.344 637.148,331.58 637.148,321.563"/>
			<polygon class="color2" points="662.482,364.344 691.113,345.731 
				691.115,365.917 662.482,384.344"/>
		</g>
	</g>
	<g class="floor" id="floor-A4">
		<g class="grey">
			<polygon points="353.28,241.187 305.356,258.375 365.691,292.535 
				429.125,302.625 413.625,318.875 444.48,324.003 458.948,307.493 481.979,280.63"/>
		</g>
		<g class="lot" id="lot-A42">
			<polygon points="257.941,382.318 281.031,395.372 333.633,403.811 
				281.218,374.149"/>
			<polygon points="142.772,262.677 134.487,258.033 124.258,261.744 
				132.329,266.307"/>
			<polygon points="281.218,329.149 333.633,358.811 333.631,358.811 
				404.071,370.116 444.48,324.003 413.625,318.875 429.125,302.625 365.691,292.535 305.356,258.375 353.28,241.187 
				286.114,203.106 286.111,203.108 170.815,244.628 198.532,260.401 162.765,283.521 257.941,337.318"/>
			<polygon points="333.633,358.811 333.633,403.811 281.031,395.372 
				281.031,400.372 404.071,420.116 404.071,370.116"/>
			<polygon points="257.941,382.318 257.941,337.318 281.218,329.149 
				281.218,374.149"/>
			<polygon points="281.218,329.149 333.633,358.811 333.633,403.811 
				281.218,374.149"/>
			<polygon class="color2" points="257.941,382.318 281.031,395.372 
				281.031,375.372 257.941,362.318"/>
			<polygon class="color2" points="333.633,383.811 333.633,403.811 
				281.031,395.372 281.031,375.372"/>
			<polygon points="257.941,382.318 281.031,395.372 281.031,400.372 
				93.523,294.377 93.523,289.377 162.765,328.521 162.765,283.521 257.941,337.318"/>
			<polygon class="color2" points="124.258,261.744 124.258,306.752 
				132.359,311.307 132.329,266.307"/>
			<polygon class="color2" points="142.772,262.677 142.772,307.677 
				132.359,311.307 132.329,266.307"/>
			<polygon points="93.523,289.377 124.258,278.225 124.258,306.752"/>
			<polygon points="142.772,307.677 132.359,311.307 162.765,328.521 
				162.765,283.521 170.815,278.317 170.815,261.332 142.772,271.507"/>
			<polygon class="color2" points="93.523,289.377 93.523,269.377 
				124.258,286.752 124.258,306.752"/>
			<polygon class="color2" points="162.765,308.521 162.765,328.521 
				132.359,311.307 132.359,291.307"/>
			<polygon class="color2" points="255.215,210.708 93.523,269.377 
				115.071,281.559 124.005,278.317 124.258,261.744 134.487,258.033 142.772,262.677 142.772,271.507 170.815,261.332 
				170.815,244.628 255.215,214.234"/>
			<polygon points="170.815,244.628 170.815,278.317 198.532,260.401
				"/>
		</g>
		<g class="lot" id="lot-A43">
			<polygon points="380.113,175.968 391.384,171.396 381.003,168.218 
				370.099,172.173"/>
			<polygon points="662.481,289.344 613.288,274.268 637.147,246.72 
				410.664,177.307 380.113,196.968 337.951,184.046 286.114,203.106 353.28,241.187 481.979,280.63 613.424,320.916"/>
			<polygon class="color2" points="391.384,171.396 391.384,189.714 380.113,196.968 
				380.113,175.968"/>
			<polygon class="color2" points="370.176,172.198 380.113,175.968 380.113,196.968 
				370.099,193.898"/>
			<polygon class="color2" points="255.215,214.234 337.951,184.046 338.945,184.351 
				338.945,180.327 255.215,210.708"/>
			<polygon class="color2" points="370.099,193.898 370.099,189.876 338.945,180.327 
				338.945,184.351"/>
			<polygon points="679.942,267.493 691.113,270.917 699.173,265.731 
				688,262.308"/>
			<polygon class="color2" points="699.173,265.731 699.173,310.731 691.113,315.916 
				691.113,270.917"/>
			<polygon class="color2" points="679.942,267.493 679.942,312.492 691.113,315.916 
				691.113,270.917"/>
			<polygon points="637.147,246.72 613.288,274.268 637.147,281.58"/>
			<polygon points="679.942,304.838 662.481,299.486 662.481,334.344 
				691.115,315.916 679.942,312.492"/>
			<polygon class="color2" points="679.942,284.838 637.147,271.292 637.147,281.58 
				662.481,289.344 662.481,299.486 679.942,304.838"/>
			<polygon class="color2" points="662.481,314.344 691.115,295.917 691.115,315.916 
				662.481,334.344"/>
			<polygon points="662.481,289.344 613.424,320.916 613.424,370.916 
				699.173,315.731 699.173,310.731 662.481,334.344"/>
		</g>
		<g class="lot" id="lot-A41">
			<polygon points="517.552,382.616 510.522,387.141 497.916,385.105 
				504.996,380.549"/>
			<polygon points="481.979,280.63 458.948,307.492 404.071,370.115 
				473.218,381.163 480.231,382.283 502.792,355.744 548.008,363.015 613.424,320.916"/>
			<polygon class="color2" points="510.522,432.141 510.522,387.141 517.552,382.616 
				517.552,427.616"/>
			<polygon class="color2" points="497.916,430.105 497.916,385.105 510.522,387.141 
				510.522,432.141"/>
			<polygon points="548.008,408.015 517.552,403.117 517.552,427.616
				"/>
			<polygon points="548.008,363.015 502.792,355.744 502.792,381.967 
				504.996,380.549 517.552,382.616 517.552,427.616 548.008,408.015"/>
			<polygon points="480.231,382.283 480.231,427.283 497.916,406.48 
				497.916,385.105 502.792,381.967 502.792,355.744"/>
			<polygon points="497.916,430.105 497.916,406.48 480.231,427.283"/>
			<polygon points="404.071,370.115 480.231,382.283 480.231,427.283 
				510.522,432.141 510.522,437.141 404.071,420.115"/>
			<polygon class="color2" points="480.231,427.283 497.829,430.105 497.916,410.105 
				480.231,407.283"/>
			<polygon class="color2" points="548.008,388.015 548.008,408.015 517.552,427.616 
				517.552,407.616"/>
			<polygon points="613.424,320.916 548.008,363.015 548.008,408.015 
				510.522,432.141 510.522,437.141 613.424,370.916"/>
		</g>
	</g>
	<g class="floor" id="floor-A5">
		<g>
			<polygon points="699.173,260.731 699.173,265.731 510.523,387.141 
				510.523,382.141"/>
			<polygon points="281.218,350.375 281.218,345.375 510.523,382.141 
				510.523,387.141"/>
			<polygon points="124.258,256.744 124.258,261.744 281.218,350.375 
				281.218,345.375"/>
			<polygon points="699.173,260.731 510.523,382.141 281.218,345.375 
				124.258,256.744 381.003,163.218"/>
			<polygon points="690.024,251.111 507.378,368.657 285.371,333.061 
				133.407,247.251 381.98,156.702"/>
			<polygon points="690.024,251.111 690.024,261.111 507.378,378.657 
				507.378,368.657"/>
			<polygon points="285.371,343.061 285.371,333.061 507.378,368.657 
				507.378,378.657"/>
			<polygon points="133.407,247.251 133.407,257.251 285.371,343.061 
				285.371,333.061"/>
				<path class="no-stroke" fill="#CBCAC6" d="M398.626,279.822l11.279,12.317l-26.447,13.804l-40.915-49.57l33.691-17.584l110.822,13.081
					l-27.795,14.508l-28.124-3.525L398.626,279.822z M414.67,259.452l-23.081-3c-6.501-0.817-14.118-2.102-20.28-3.095l-0.337,0.175
					c2.794,2.752,6.817,6.018,9.331,8.81l9.27,10.209L414.67,259.452z"/>
		</g>
	</g>
</g>
<g class="bat" id="bat-B">
	<g class="floor" id="floor-B0">
		<g class="lot" id="lot-B01">
			<polygon points="1325.377,812.096 1333.931,816.865 1345.024,812.813 
				1336.47,808.04"/>
			<polygon points="1294.52,831.27 1256.851,810.256 1297.534,786.316 
				1145.829,701.685 1027.796,744.826 1226.99,855.955"/>
			<polygon class="color2" points="1345.024,812.813 1345.024,862.813 
				1333.931,866.865 1333.931,816.865"/>
			<polygon class="color2" points="1325.377,812.096 1333.931,816.865 
				1333.931,866.865 1325.377,862.096"/>
			<polygon class="color2" points="1294.52,831.27 1294.52,881.27 
				1226.99,905.955 1226.99,855.955"/>
			<polygon class="color2" points="1256.851,810.256 1297.534,786.316 
				1297.534,836.316 1294.52,838.09 1294.52,831.27"/>
		</g>
		<g class="lot" id="lot-B02">
			<polygon points="1095.021,904.19 1085.344,907.726 1074.512,904.134 
				1084.267,900.571"/>
			<polygon points="1140.896,887.421 1226.99,855.955 1173.566,826.146 
				1173.243,825.968 1126.168,799.774 1086.895,823.183 1066.053,835.102 1038.354,825.875 1059.873,814.251 1013.048,798.773 
				985.057,815.966 1005.994,823.015 941.546,860.251 1053.272,897.132 1094.508,872.802"/>
			<polygon class="color2" points="1226.99,855.955 1226.99,905.955 
				1140.896,937.421 1140.896,887.421"/>
			<polygon class="color2" points="1074.512,904.134 1074.512,954.134 
				1085.344,957.726 1085.344,907.726"/>
			<polygon class="color2" points="1095.021,904.19 1095.021,954.19 
				1085.344,957.726 1085.344,907.726"/>
			<polygon class="color2" points="1140.896,887.421 1094.508,872.802 
				1094.508,904.018 1095.021,904.19 1095.021,922.963 1140.896,937.421"/>
			<polygon class="color2" points="1053.272,947.132 1053.272,897.132 
				1094.508,872.802 1094.508,904.018 1084.267,900.571 1074.512,904.134 1074.512,934.6"/>
			<polygon class="color2" points="941.546,860.251 941.546,910.251 
				1053.272,947.132 1053.272,897.132"/>
		</g>
		<g class="lot" id="lot-B03">
			<polygon points="792.886,718.211 787.897,712.609 775.66,714.946 
				780.5,720.44"/>
			<polygon points="901.866,821.806 933.257,857.511 933.255,857.511 
				941.546,860.251 1005.994,823.015 985.057,815.966 1013.048,798.773 1006.73,796.685 970.605,755.567 912.122,688.906 
				912.119,688.905 832.69,704.061 848.717,723.095 799.01,741.459 874.203,826.844"/>
			<polygon class="color2" points="933.257,857.511 941.546,860.251 
				941.546,910.251 933.257,907.511"/>
			<polygon class="color2" points="874.203,876.844 874.203,826.844 
				901.866,821.806 901.866,871.806"/>
			<polygon class="color2" points="933.257,857.511 901.866,821.806 
				901.866,871.806 933.257,907.511"/>
			<polygon class="color2" points="799.01,741.459 799.01,791.459 
				874.203,876.844 874.203,826.844"/>
			<polygon class="color2" points="775.66,714.946 775.66,764.946 
				780.5,770.44 780.5,720.44"/>
			<polygon class="color2" points="792.886,718.211 792.886,768.211 
				780.5,770.44 780.5,720.44"/>
			<polygon class="color2" points="832.69,704.061 832.69,729.016 
				848.717,723.095"/>
		</g>
		<g class="grey">
			<polygon points="995.461,708.145 1027.796,744.826 1126.168,799.774 
				1086.895,823.183 1066.053,835.102 1038.354,825.875 1059.873,814.251 1006.73,796.685 944.539,725.857"/>
			<polygon points="1145.829,701.685 1027.796,744.826 995.461,708.145 
				1093.402,672.436"/>
			<polygon points="1064.017,665.811 1077.141,663.362 1069.193,658.928 
				1056.145,661.419"/>
			<polygon class="color2" points="1077.141,663.362 1077.141,678.206 
				1064.017,683.149 1064.017,665.811"/>
			<polygon class="color2" points="1056.145,661.419 1064.017,665.811 
				1064.017,683.149 1056.145,686.02"/>
		</g>
	</g>
	<g class="floor" id="floor-B1">
		<g class="grey">
			<polygon points="1027.796,694.826 970.605,705.567 1006.73,746.685 
				1059.873,764.251 1038.354,775.875 1066.053,785.102 1086.895,773.183 1126.342,749.805"/>
		</g>
		<g class="lot" id="lot-B11">
			<polygon class="color2" points="1345.024,762.813 1345.024,807.813 
				1333.931,811.865 1333.931,766.865"/>
			<polygon class="color2" points="1325.377,762.096 1333.931,766.865 
				1333.931,811.865 1325.377,807.096"/>
			<polygon points="1294.52,781.27 1294.52,826.27 1345.024,807.813 
				1345.024,812.813 1294.52,831.27 1226.99,855.955 1226.99,805.955"/>
			<polygon points="1325.377,762.096 1333.931,766.865 1345.024,762.813 
				1336.47,758.04"/>
			<polygon points="1294.52,781.27 1256.851,760.256 1297.534,736.316 
				1145.829,651.685 1027.796,694.826 1226.99,805.955"/>
			<polygon points="1297.534,736.316 1297.534,786.316 1294.52,788.09 
				1294.52,781.27 1256.851,760.256"/>
			<polygon points="1325.377,801.851 1297.534,786.316 1294.52,788.09 
				1294.52,826.27 1333.935,811.865 1325.377,807.096"/>
			<polygon class="color2" points="1297.534,786.316 1297.534,766.316 
				1325.377,781.851 1325.377,801.851"/>
			<polygon class="color2" points="1294.52,806.27 1294.52,826.27 
				1333.935,811.865 1333.935,791.865"/>
		</g>
		<g class="lot" id="lot-B15">
			<polygon points="1093.402,622.436 1051.35,637.809 1017.327,618.828 
				912.122,638.906 970.605,705.567 1027.796,694.826 1145.829,651.685"/>
			<polygon points="1064.017,615.811 1077.141,613.362 1069.193,608.928 
				1056.145,611.419"/>
			<polygon class="color2" points="1077.141,613.362 1077.141,628.38 
				1064.017,633.178 1064.017,615.811"/>
			<polygon class="color2" points="1056.145,611.419 1064.017,615.811 
				1064.017,633.178 1056.145,636.056"/>
		</g>
		<g class="lot" id="lot-B12">
			<polygon class="color2" points="1095.021,854.19 1095.021,899.19 
				1085.344,902.726 1085.344,857.726"/>
			<polygon class="color2" points="1074.512,854.134 1074.512,899.134 
				1085.344,902.726 1085.344,857.726"/>
			<polygon points="1140.896,837.421 1094.508,822.802 1094.508,854.018 
				1095.021,854.19 1095.021,867.963 1140.896,882.421"/>
			<polygon points="1053.272,892.132 1053.272,847.132 1094.508,822.802 
				1094.508,854.018 1084.267,850.571 1074.512,854.134 1074.512,879.6"/>
			<polygon points="1095.021,854.19 1085.344,857.726 1074.512,854.134 
				1084.267,850.571"/>
			<polygon points="1173.566,776.146 1126.342,749.805 1089.895,771.183 
				993.807,827.527 1053.272,847.132 1053.272,847.132 1094.508,822.802 1140.896,837.421 1226.99,805.955"/>
			<polygon points="1140.896,837.421 1140.896,882.421 1085.344,902.726 
				1085.344,907.726 1140.896,887.421 1226.99,855.955 1226.99,805.955"/>
			<polygon points="1074.512,879.6 1074.512,899.134 1053.272,892.132
				"/>
			<polygon points="1095.021,867.963 1140.896,882.421 1095.021,899.134 
							"/>
			<polygon class="color2" points="1140.896,882.421 1140.896,862.421 
				1095.021,879.134 1095.021,899.134"/>
			<polygon class="color2" points="1074.512,899.134 1074.512,879.134 
				1053.272,872.132 1053.272,892.132"/>
			<polygon points="993.807,877.502 1053.272,897.132 1085.344,907.726 
				1085.344,902.726 1053.272,892.132 1053.272,847.132 993.883,827.527 993.807,827.527"/>
		</g>
		<g class="lot" id="lot-B13">
			<path d="M933.257,857.511h-0.002H933.257z"/>
			<polygon points="933.257,807.511 901.866,771.806 901.866,816.806 
				933.257,852.511"/>
			<path d="M933.257,807.511h-0.002H933.257z"/>
			<polygon points="975.563,757.75 911.356,769.932 901.866,771.806 
				933.257,807.511 993.807,827.527 1066.188,785.102 1038.354,775.875 1059.965,764.28 1006.73,746.685 1002.595,741.979 
				967.813,748.809"/>
			<polygon points="874.203,821.844 888.042,837.56 933.257,852.511 
				901.866,816.806"/>
			<polygon points="993.807,877.502 993.807,827.527 993.883,827.527 
				933.257,807.511 933.257,852.511 888.042,837.56 888.042,842.56 933.257,857.511"/>
			<polygon points="874.203,826.844 888.042,842.56 888.042,837.56 
				874.203,821.844"/>
			<polygon class="color2" points="874.203,801.844 888.042,817.56 
				888.042,837.56 874.203,821.844"/>
			<polygon class="color2" points="933.257,832.511 933.257,852.511 
				888.042,837.56 888.042,817.56"/>
		</g>
		<g class="lot" id="lot-B14">
			<polygon points="874.203,821.844 874.203,776.844 901.866,771.806 
				901.866,816.806"/>
			<polygon class="color2" points="775.66,664.946 775.66,709.946 
				780.5,715.44 780.5,670.44"/>
			<polygon class="color2" points="792.886,668.211 792.886,713.211 
				780.5,715.44 780.5,670.44"/>
			<polygon points="792.886,668.211 787.897,662.609 775.66,664.946 
				780.5,670.44"/>
			<polygon points="967.813,748.809 1002.595,741.979 970.605,705.567 
				912.122,638.906 912.119,638.905 832.69,654.061 848.717,673.095 799.01,691.459 874.203,776.844 901.866,771.806 
				911.356,769.932 975.563,757.75"/>
			<polygon points="799.01,691.459 799.01,736.459 775.66,709.946 
				775.66,714.946 799.01,741.459 874.203,826.844 874.203,776.844"/>
			<polygon points="832.69,654.061 832.69,679.016 848.717,673.095"/>
			<polygon points="792.886,706.657 799.01,705.488 799.01,736.459 
				780.5,715.441 792.886,713.211"/>
			<polygon class="color2" points="792.886,686.657 832.69,679.061 
				799.01,691.459 799.01,705.488 792.886,706.657"/>
			<polygon class="color2" points="780.5,695.44 799.01,716.459 
				799.01,736.459 780.5,715.441"/>
		</g>
	</g>
	<g class="floor" id="floor-B2">
		<g class="grey">
			<polygon points="1027.796,644.826 970.605,655.567 1006.73,696.685 
				1059.873,714.251 1038.354,725.875 1066.053,735.102 1086.895,723.183 1126.342,699.805"/>
		</g>
		<g class="lot" id="lot-B21">
			<polygon class="color2" points="1345.024,712.813 1345.024,757.813 
				1333.931,761.865 1333.931,716.865"/>
			<polygon class="color2" points="1325.377,712.096 1333.931,716.865 
				1333.931,761.865 1325.377,757.096"/>
			<polygon points="1294.52,731.27 1294.52,776.27 1345.024,757.813 
				1345.024,762.813 1294.52,781.27 1226.99,805.955 1226.99,755.955"/>
			<polygon points="1325.377,712.096 1333.931,716.865 1345.024,712.813 
				1336.47,708.04"/>
			<polygon points="1294.52,731.27 1256.851,710.256 1297.534,686.316 
				1145.829,601.685 1027.796,644.826 1226.99,755.955"/>
			<polygon points="1297.534,686.316 1297.534,736.316 1294.52,738.09 
				1294.52,731.27 1256.851,710.256"/>
			<polygon points="1325.377,751.851 1297.534,736.316 1294.52,738.09 
				1294.52,776.27 1333.935,761.865 1325.377,757.096"/>
			<polygon class="color2" points="1297.534,736.316 1297.534,716.316 
				1325.377,731.851 1325.377,751.851"/>
			<polygon class="color2" points="1294.52,756.27 1294.52,776.27 
				1333.935,761.865 1333.935,741.865"/>
		</g>
		<g class="lot" id="lot-B25">
			<polygon points="1093.402,572.436 1051.35,587.809 1017.327,568.828 
				912.122,588.906 970.605,655.567 1027.796,644.826 1145.829,601.685"/>
			<polygon points="1064.017,565.811 1077.141,563.362 1069.193,558.928 
				1056.145,561.419"/>
			<polygon class="color2" points="1077.141,563.362 1077.141,578.38 
				1064.017,583.178 1064.017,565.811"/>
			<polygon class="color2" points="1056.145,561.419 1064.017,565.811 
				1064.017,583.178 1056.145,586.056"/>
		</g>
		<g class="lot" id="lot-B22">
			<polygon class="color2" points="1095.021,804.19 1095.021,849.19 
				1085.344,852.726 1085.344,807.726"/>
			<polygon class="color2" points="1074.512,804.134 1074.512,849.134 
				1085.344,852.726 1085.344,807.726"/>
			<polygon points="1140.896,787.421 1094.508,772.802 1094.508,804.018 
				1095.021,804.19 1095.021,817.963 1140.896,832.421"/>
			<polygon points="1053.272,842.132 1053.272,797.132 1094.508,772.802 
				1094.508,804.018 1084.267,800.571 1074.512,804.134 1074.512,829.6"/>
			<polygon points="1095.021,804.19 1085.344,807.726 1074.512,804.134 
				1084.267,800.571"/>
			<polygon points="1173.566,726.146 1126.342,699.805 1089.895,721.183 
				993.807,777.527 1053.272,797.132 1053.272,797.132 1094.508,772.802 1140.896,787.421 1226.99,755.955"/>
			<polygon points="1140.896,787.421 1140.896,832.421 1085.344,852.726 
				1085.344,857.726 1140.896,837.421 1226.99,805.955 1226.99,755.955"/>
			<polygon points="1074.512,829.6 1074.512,849.134 1053.272,842.132
				"/>
			<polygon points="1095.021,817.963 1140.896,832.421 1095.021,849.134 
							"/>
			<polygon class="color2" points="1140.896,832.421 1140.896,812.421 
				1095.021,829.134 1095.021,849.134"/>
			<polygon class="color2" points="1074.512,849.134 1074.512,829.134 
				1053.272,822.132 1053.272,842.132"/>
			<polygon points="993.807,827.502 1053.272,847.132 1085.344,857.726 
				1085.344,852.726 1053.272,842.132 1053.272,797.132 993.883,777.527 993.807,777.527"/>
		</g>
		<g class="lot" id="lot-B23">
			<path d="M933.257,807.511h-0.002H933.257z"/>
			<polygon points="933.257,757.511 901.866,721.806 901.866,766.806 
				933.257,802.511"/>
			<path d="M933.257,757.511h-0.002H933.257z"/>
			<polygon points="975.563,707.75 911.356,719.932 901.866,721.806 
				933.257,757.511 993.807,777.527 1066.188,735.102 1038.354,725.875 1059.965,714.28 1006.73,696.685 1002.595,691.979 
				967.813,698.809"/>
			<polygon points="874.203,771.844 888.042,787.56 933.257,802.511 
				901.866,766.806"/>
			<polygon points="993.807,827.502 993.807,777.527 993.883,777.527 
				933.257,757.511 933.257,802.511 888.042,787.56 888.042,792.56 933.257,807.511"/>
			<polygon points="874.203,776.844 888.042,792.56 888.042,787.56 
				874.203,771.844"/>
			<polygon class="color2" points="874.203,751.844 888.042,767.56 
				888.042,787.56 874.203,771.844"/>
			<polygon class="color2" points="933.257,782.511 933.257,802.511 
				888.042,787.56 888.042,767.56"/>
		</g>
		<g class="lot" id="lot-B24">
			<polygon points="874.203,771.844 874.203,726.844 901.866,721.806 
				901.866,766.806"/>
			<polygon class="color2" points="775.66,614.946 775.66,659.946 
				780.5,665.44 780.5,620.44"/>
			<polygon class="color2" points="792.886,618.211 792.886,663.211 
				780.5,665.44 780.5,620.44"/>
			<polygon points="792.886,618.211 787.897,612.609 775.66,614.946 
				780.5,620.44"/>
			<polygon points="967.813,698.809 1002.595,691.979 970.605,655.567 
				912.122,588.906 912.119,588.905 832.69,604.061 848.717,623.095 799.01,641.459 874.203,726.844 901.866,721.806 
				911.356,719.932 975.563,707.75"/>
			<polygon points="799.01,641.459 799.01,686.459 775.66,659.946 
				775.66,664.946 799.01,691.459 874.203,776.844 874.203,726.844"/>
			<polygon points="832.69,604.061 832.69,629.016 848.717,623.095"/>
			<polygon points="792.886,656.657 799.01,655.488 799.01,686.459 
				780.5,665.441 792.886,663.211"/>
			<polygon class="color2" points="792.886,636.657 832.69,629.061 
				799.01,641.459 799.01,655.488 792.886,656.657"/>
			<polygon class="color2" points="780.5,645.44 799.01,666.459 
				799.01,686.459 780.5,665.441"/>
		</g>
	</g>
	<g class="floor" id="floor-B3">
		<g class="grey">
			<polygon points="1027.796,594.826 970.605,605.567 1006.73,646.685 
				1059.873,664.251 1038.354,675.875 1066.053,685.102 1086.895,673.183 1126.342,649.805"/>
		</g>
		<g class="lot" id="lot-B31">
			<polygon class="color2" points="1345.024,662.813 1345.024,707.813 
				1333.931,711.865 1333.931,666.865"/>
			<polygon class="color2" points="1325.377,662.096 1333.931,666.865 
				1333.931,711.865 1325.377,707.096"/>
			<polygon points="1294.52,681.27 1294.52,726.27 1345.024,707.813 
				1345.024,712.813 1294.52,731.27 1226.99,755.955 1226.99,705.955"/>
			<polygon points="1325.377,662.096 1333.931,666.865 1345.024,662.813 
				1336.47,658.04"/>
			<polygon points="1294.52,681.27 1256.851,660.256 1297.534,636.316 
				1145.829,551.685 1027.796,594.826 1226.99,705.955"/>
			<polygon points="1297.534,636.316 1297.534,686.316 1294.52,688.09 
				1294.52,681.27 1256.851,660.256"/>
			<polygon points="1325.377,701.851 1297.534,686.316 1294.52,688.09 
				1294.52,726.27 1333.935,711.865 1325.377,707.096"/>
			<polygon class="color2" points="1297.534,686.316 1297.534,666.316 
				1325.377,681.851 1325.377,701.851"/>
			<polygon class="color2" points="1294.52,706.27 1294.52,726.27 
				1333.935,711.865 1333.935,691.865"/>
		</g>
		<g class="lot" id="lot-B35">
			<polygon points="1093.402,522.436 1051.35,537.809 1017.327,518.828 
				912.122,538.906 970.605,605.567 1027.796,594.826 1145.829,551.685"/>
			<polygon points="1064.017,515.811 1077.141,513.362 1069.193,508.928 
				1056.145,511.419"/>
			<polygon class="color2" points="1077.141,513.362 1077.141,528.38 
				1064.017,533.178 1064.017,515.811"/>
			<polygon class="color2" points="1056.145,511.419 1064.017,515.811 
				1064.017,533.178 1056.145,536.056"/>
		</g>
		<g class="lot" id="lot-B32">
			<polygon class="color2" points="1095.021,754.19 1095.021,799.19 
				1085.344,802.726 1085.344,757.726"/>
			<polygon class="color2" points="1074.512,754.134 1074.512,799.134 
				1085.344,802.726 1085.344,757.726"/>
			<polygon points="1140.896,737.421 1094.508,722.802 1094.508,754.018 
				1095.021,754.19 1095.021,767.963 1140.896,782.421"/>
			<polygon points="1053.272,792.132 1053.272,747.132 1094.508,722.802 
				1094.508,754.018 1084.267,750.571 1074.512,754.134 1074.512,779.6"/>
			<polygon points="1095.021,754.19 1085.344,757.726 1074.512,754.134 
				1084.267,750.571"/>
			<polygon points="1173.566,676.146 1126.342,649.805 1089.895,671.183 
				993.807,727.527 1053.272,747.132 1053.272,747.132 1094.508,722.802 1140.896,737.421 1226.99,705.955"/>
			<polygon points="1140.896,737.421 1140.896,782.421 1085.344,802.726 
				1085.344,807.726 1140.896,787.421 1226.99,755.955 1226.99,705.955"/>
			<polygon points="1074.512,779.6 1074.512,799.134 1053.272,792.132
				"/>
			<polygon points="1095.021,767.963 1140.896,782.421 1095.021,799.134 
							"/>
			<polygon class="color2" points="1140.896,782.421 1140.896,762.421 
				1095.021,779.134 1095.021,799.134"/>
			<polygon class="color2" points="1074.512,799.134 1074.512,779.134 
				1053.272,772.132 1053.272,792.132"/>
			<polygon points="993.807,777.502 1053.272,797.132 1085.344,807.726 
				1085.344,802.726 1053.272,792.132 1053.272,747.132 993.883,727.527 993.807,727.527"/>
		</g>
		<g class="lot" id="lot-B33">
			<path d="M933.257,757.511h-0.002H933.257z"/>
			<polygon points="933.257,707.511 901.866,671.806 901.866,716.806 
				933.257,752.511"/>
			<path d="M933.257,707.511h-0.002H933.257z"/>
			<polygon points="975.563,657.75 911.356,669.932 901.866,671.806 
				933.257,707.511 993.807,727.527 1066.188,685.102 1038.354,675.875 1059.965,664.28 1006.73,646.685 1002.595,641.979 
				967.813,648.809"/>
			<polygon points="874.203,721.844 888.042,737.56 933.257,752.511 
				901.866,716.806"/>
			<polygon points="993.807,777.502 993.807,727.527 993.883,727.527 
				933.257,707.511 933.257,752.511 888.042,737.56 888.042,742.56 933.257,757.511"/>
			<polygon points="874.203,726.844 888.042,742.56 888.042,737.56 
				874.203,721.844"/>
			<polygon class="color2" points="874.203,701.844 888.042,717.56 
				888.042,737.56 874.203,721.844"/>
			<polygon class="color2" points="933.257,732.511 933.257,752.511 
				888.042,737.56 888.042,717.56"/>
		</g>
		<g class="lot" id="lot-B34">
			<polygon points="874.203,721.844 874.203,676.844 901.866,671.806 
				901.866,716.806"/>
			<polygon class="color2" points="775.66,564.946 775.66,609.946 
				780.5,615.44 780.5,570.44"/>
			<polygon class="color2" points="792.886,568.211 792.886,613.211 
				780.5,615.44 780.5,570.44"/>
			<polygon points="792.886,568.211 787.897,562.609 775.66,564.946 
				780.5,570.44"/>
			<polygon points="967.813,648.809 1002.595,641.979 970.605,605.567 
				912.122,538.906 912.119,538.905 832.69,554.061 848.717,573.095 799.01,591.459 874.203,676.844 901.866,671.806 
				911.356,669.932 975.563,657.75"/>
			<polygon points="799.01,591.459 799.01,636.459 775.66,609.946 
				775.66,614.946 799.01,641.459 874.203,726.844 874.203,676.844"/>
			<polygon points="832.69,554.061 832.69,579.016 848.717,573.095"/>
			<polygon points="792.886,606.657 799.01,605.488 799.01,636.459 
				780.5,615.441 792.886,613.211"/>
			<polygon class="color2" points="792.886,586.657 832.69,579.061 
				799.01,591.459 799.01,605.488 792.886,606.657"/>
			<polygon class="color2" points="780.5,595.44 799.01,616.459 
				799.01,636.459 780.5,615.441"/>
		</g>
	</g>
	<g class="floor" id="floor-B4">
        <g class="lot" id="lot-B41">
		<polygon points="1325.377,612.096 1333.931,616.865 1345.024,612.813 
			1336.47,608.04"/>
		<polygon points="1095.021,704.19 1085.344,707.726 1074.512,704.134 
			1084.267,700.571"/>
		<polygon points="1256.851,610.256 1297.534,586.316 1255.875,563.076 
			1137.838,606.218 1126.342,599.805 1089.895,621.183 993.807,677.527 1053.272,697.132 1059.305,699.121 1098.086,676.002 
			1136.947,688.862 1226.99,655.955 1294.52,631.27"/>
		<polygon class="color2" points="1345.024,612.813 1345.024,657.813 
			1333.931,661.865 1333.931,616.865"/>
		<polygon class="color2" points="1325.377,657.096 1325.377,612.096 
			1333.931,616.865 1333.931,661.865"/>
		<polygon points="1297.534,631.316 1297.534,586.316 1256.851,610.256 
			1294.52,631.27 1294.52,633.069"/>
		<polygon points="1325.377,646.851 1297.534,631.316 1294.52,633.069 
			1294.52,676.27 1333.931,661.865 1325.377,657.096"/>
		<polygon points="1059.305,744.121 1074.512,735.056 1074.512,749.134
			"/>
		<polygon points="1294.52,631.27 1294.52,676.27 1345.024,657.813 
			1345.024,662.813 1294.52,681.27 1085.344,757.726 1085.344,752.726 1136.947,733.862 1136.947,688.862"/>
		<path d="M1098.086,721.002l38.861,12.86c0,0-41.927,15.244-41.927,15.286
			s0-26.621,0-26.621L1098.086,721.002z"/>
		<polygon class="color2" points="1297.534,631.316 1297.534,611.316 
			1325.377,626.851 1325.377,646.851"/>
		<polygon class="color2" points="1294.52,676.27 1294.52,656.27 
			1333.931,641.865 1333.935,661.865"/>
		<polygon points="1098.086,721.002 1098.086,676.002 1136.947,688.862 
			1136.947,733.862"/>
		<polygon points="1095.021,722.829 1098.086,721.002 1098.086,676.002 
			1059.305,699.121 1059.305,744.121 1074.512,749.134 1074.512,704.134 1084.267,700.571 1095.021,704.19"/>
		<polygon class="color2" points="1136.947,733.862 1136.947,713.862 
			1095.021,729.19 1095.021,749.148"/>
		<polygon class="color2" points="1059.305,724.121 1059.305,744.121 
			1074.512,749.134 1074.512,729.134"/>
		<polygon class="color2" points="1074.512,704.134 1085.344,707.726 
			1085.344,752.726 1074.512,749.134"/>
		<polygon class="color2" points="1085.344,707.726 1085.344,752.726 
			1095.021,749.148 1095.021,704.19"/>
		<polygon points="993.807,677.527 1059.305,699.121 1059.305,744.121 
			1085.344,752.726 1085.344,757.726 993.807,727.527"/>
        </g>
        <g class="lot" id="lot-B42">
		<polygon points="874.203,671.844 888.042,687.56 933.257,702.511 
			901.866,666.806"/>
		<polygon points="811.312,539.122 806.324,533.521 794.085,535.856 
			798.926,541.35"/>
		<polygon points="901.866,621.806 933.257,657.511 933.255,657.511 
			993.807,677.527 1066.188,635.102 1038.354,625.875 1059.965,614.28 1006.73,596.685 970.605,555.567 1027.796,544.826 
			987.612,499 987.609,499.003 849.916,525.013 866.456,543.979 817.163,562.071 874.203,626.844"/>
		<polygon points="888.042,692.56 888.042,687.56 933.257,702.511 
			933.257,657.511 993.807,677.527 993.807,727.527"/>
		<polygon points="901.866,621.806 901.866,666.806 933.257,702.511 
			933.257,657.511"/>
		<polygon points="874.203,626.844 901.866,621.806 901.866,666.806 
			874.203,671.844"/>
		<polygon class="color2" points="874.203,651.844 888.042,667.56 
			888.042,687.56 874.203,671.844"/>
		<polygon class="color2" points="933.257,682.511 933.257,702.511 
			888.042,687.56 888.042,667.56"/>
		<polygon points="874.203,671.844 874.203,626.844 817.163,562.071 
			817.163,607.071 775.66,559.946 775.66,564.946 817.163,612.071 888.042,692.56 888.042,687.56"/>
		<polygon class="color2" points="794.085,535.856 794.085,580.867 
			799.025,586.477 798.926,541.35"/>
		<polygon class="color2" points="811.312,539.122 798.926,541.35 
			799.025,586.477 811.312,584.122"/>
		<polygon points="849.916,545.775 811.312,553.142 811.312,584.122 
			799.025,586.477 817.163,607.071 817.163,562.071 849.916,550.049"/>
		<polygon points="775.66,559.946 794.085,556.43 794.085,580.867"/>
		<polygon class="color2" points="775.66,539.946 794.085,560.856 
			794.085,580.867 775.66,559.946"/>
		<path class="color2" d="M799.025,566.463l18.138,20.608v20
			c0,0-18.038-20.467-18.138-20.594S799.025,566.463,799.025,566.463z"/>
		<polygon class="color2" points="775.66,539.946 794.085,536.43 
			794.085,556.43 790.746,557.067"/>
		<polygon class="color2" points="849.916,525.775 849.916,545.775 
			811.312,553.142 811.312,539.122 806.761,534.011"/>
		<polygon points="866.456,543.979 849.916,550.049 849.916,525.013"/>
        </g>
        <g class="lot" id="lot-B43">
		<polygon points="1096.222,483.777 1109.346,481.327 1101.399,476.896 
			1088.349,479.387"/>
		<polygon points="1255.875,563.076 1145.829,501.685 1124.111,489.567 
			1082.059,504.937 1049.77,486.924 987.612,499 1027.796,544.826 1126.342,599.805 1137.838,606.218"/>
		<polygon class="color2" points="1050.719,487.453 1069.193,483.928 
			1069.193,497.76"/>
		<polygon class="color2" points="1096.222,483.777 1096.222,499.76 
			1109.346,494.964 1109.346,481.327"/>
		<polygon class="color2" points="1088.349,479.387 1096.222,483.777 
			1096.222,499.76 1088.349,502.638"/>
		<polygon class="color2" points="1069.193,483.928 1088.349,494.615 
			1088.349,502.638 1082.059,504.937 1069.193,497.76"/>
        </g>
        <g class="grey">
		<polygon points="1027.796,544.826 970.605,555.567 1006.73,596.685 
			1059.965,614.28 1038.354,625.875 1066.188,635.102 1089.895,621.183 1126.342,599.805"/>
        </g>
	</g>
	<g class="floor" id="floor-B5">
		<g>
			<polygon points="895.352,625.48 895.352,635.48 1084.713,698.081 
				1084.713,688.081"/>
			<polygon points="805.176,523.128 805.176,533.128 895.352,635.48 
				895.352,625.48"/>
			<polygon points="1101.399,471.896 1345.024,607.813 1085.344,702.726 
				888.042,637.5 794.085,530.856"/>
			<polygon points="1345.024,607.813 1345.024,612.813 1085.344,707.726 
				1085.344,702.726"/>
			<polygon points="888.042,637.5 888.042,642.5 1085.344,707.726 
				1085.344,702.726"/>
			<polygon points="794.085,535.856 794.085,530.856 888.042,637.5 
				888.042,642.5"/>
			<polygon points="1100.123,466.542 1333.943,596.987 1084.713,688.081 
				895.352,625.48 805.176,523.128"/>
			<polygon points="1333.943,596.987 1333.943,606.987 1084.713,698.081 
				1084.713,688.081"/>
				<path class="no-stroke" fill="#CBCAC6" d="M981.359,569.93c7.111-3.104,22.062-8.86,37.151-13.964c18.226-6.164,30.333-9.359,43.15-10.797
					c11.81-1.496,23.065-0.707,29.515,3.306c6.143,3.818,5.006,9.697-6.87,16.612l0.21,0.129
					c17.171-3.809,34.479-3.769,43.431,1.797c6.448,4.014,5.958,8.976,1.265,13.959c-5.541,5.772-19.321,12.631-45.581,21.512
					c-14.698,4.971-26.195,8.36-33.377,10.29L981.359,569.93z M1037.803,576.619l9.796-3.314
					c15.876-5.369,20.672-10.287,15.468-13.524c-5.307-3.302-15.761-2.463-29.283,2.111c-6.662,2.253-10.177,3.642-12.322,4.567
					L1037.803,576.619z M1068.916,595.971c3.148-0.866,6.677-2.058,11.77-3.781c13.523-4.573,22.668-10.364,15.279-14.96
					c-6.973-4.336-21.734-2.04-36.632,2.997l-10.189,3.447L1068.916,595.971z"/>
		</g>
	</g>
</g>
<g class="bat" id="bat-C">
	<g class="floor" id="floor-C0">
		<g class="lot" id="lot-C02">
			<polygon points="671.195,925.26 678.896,920.167 689.52,923.295 
				682.017,928.296"/>
			<polygon points="463.794,1050.818 454.371,1052.9 411.289,1012.175 
				435.15,1006.792 416.963,988.111 424.143,986.524 480.232,949.09 571.086,888.394 571.09,888.393 642.157,909.336 
				616.91,926.246 654.125,946.918 536.652,1025.156 512.52,1018.313"/>
			<polygon class="color2" points="689.52,923.295 689.52,973.295 
				682.017,978.296 682.017,928.296"/>
			<polygon class="color2" points="671.195,925.26 682.017,928.296 
				682.017,978.296 671.195,975.26"/>
			<polygon class="color2" points="642.157,909.336 642.157,940.27 
				616.91,926.246"/>
			<polygon class="color2" points="654.125,946.918 654.125,996.918 
				536.652,1075.156 536.652,1025.156"/>
			<polygon class="color2" points="512.52,1068.313 512.52,1018.313 
				536.652,1025.156 536.652,1075.156"/>
			<polygon class="color2" points="463.794,1050.818 463.794,1100.818 
				512.52,1068.313 512.52,1018.313"/>
			<polygon class="color2" points="454.371,1052.9 463.794,1050.818 
				463.794,1100.818 454.371,1102.9"/>
		</g>
		<g class="lot" id="lot-C03">
			<polygon points="283.442,1084.832 290.968,1088.949 303.287,1086.221 
				295.7,1082.069"/>
			<polygon points="250.829,1066.991 180.786,1028.67 247.762,1003.447 
				248.167,1003.296 307.148,981.136 333.032,1006.652 349.914,1022.836 384.719,1015.044 368.678,998.775 416.963,988.111 
				435.15,1006.792 411.289,1012.175 454.371,1052.9 320.563,1082.414 295.007,1057.217"/>
			<polygon class="color2" points="320.563,1082.414 320.563,1132.414 
				454.371,1102.9 454.371,1052.9"/>
			<polygon class="color2" points="303.287,1086.221 303.287,1136.221 
				290.968,1138.949 290.968,1088.949"/>
			<polygon class="color2" points="283.442,1084.832 283.442,1134.832 
				290.968,1138.949 290.968,1088.949"/>
			<polygon class="color2" points="295.007,1057.217 320.563,1082.414 
				320.563,1132.414 303.287,1115.381 303.287,1086.221 295.7,1082.069 295.007,1082.226"/>
			<polygon class="color2" points="250.829,1066.991 250.829,1116.991 
				283.442,1109.775 283.442,1084.832 295.007,1082.226 295.007,1057.217"/>
			<polygon class="color2" points="180.786,1028.67 180.786,1078.67 
				250.829,1116.991 250.829,1066.991"/>
		</g>
		<g class="lot" id="lot-C04">
			<polygon points="108.323,979.115 97.6,983.157 88.97,978.435 
				99.694,974.398"/>
			<polygon points="128.255,999.929 175.48,982.149 148.508,956.015 
				338.693,884.396 430.508,934.631 180.786,1028.67"/>
			<polygon class="color2" points="128.255,999.929 128.255,1049.929 
				180.786,1078.67 180.786,1028.67"/>
			<polygon class="color2" points="148.508,956.015 175.48,982.149 
				148.508,992.304"/>
			<polygon class="color2" points="108.323,979.115 108.323,1029.115 
				97.6,1033.157 97.6,983.157"/>
			<polygon class="color2" points="88.97,978.435 88.97,1028.435 
				97.6,1033.157 97.6,983.157"/>
		</g>
		<g class="lot" id="lot-C01">
			<polygon points="434.769,848.216 442.732,850.563 434.769,854.216 
				426.706,851.252"/>
			<polygon points="338.693,884.396 430.508,934.631 480.651,901.242 
				404.415,859.647"/>
			<polygon class="color2" points="442.732,850.563 442.732,880.554 
				434.719,876.182 434.769,854.216"/>
			<polygon class="color2" points="426.706,851.252 434.769,854.216 
				434.719,876.182 426.706,871.81"/>
		</g>
		<g class="grey">
			<polygon points="480.651,901.242 430.508,934.631 307.148,981.136 
				333.032,1006.652 349.914,1022.836 384.719,1015.044 368.679,998.776 424.143,986.524 520.724,922.04"/>
		</g>
	</g>
	<g class="floor" id="floor-C1">
		<g class="grey">
			<polygon points="430.508,884.631 480.232,899.09 424.143,936.524 
				368.679,948.776 384.719,965.044 349.914,972.836 333.032,956.652 306.966,931.155"/>
		</g>
		<g class="lot" id="lot-C13">
			<polygon points="671.195,875.26 678.896,870.167 689.52,873.295 
				682.017,878.296"/>
			<polygon points="460.651,941.319 430.563,932.241 480.232,899.09 
				571.086,838.394 571.09,838.393 642.157,859.336 616.91,876.246 654.125,896.918 536.652,975.156 512.52,968.313 
				504.314,965.827 448.471,949.605"/>
			<polygon class="color2" points="689.52,873.295 689.52,918.295 
				682.017,923.296 682.017,878.296"/>
			<polygon class="color2" points="671.195,875.26 671.195,920.26 
				682.017,923.296 682.017,878.296"/>
			<polygon points="642.157,859.336 616.91,876.246 642.157,890.27"/>
			<polygon points="654.125,896.918 654.125,941.918 689.52,918.295 
				689.52,923.295 536.652,1025.156 536.652,975.156"/>
			<polygon points="654.125,907.864 671.195,912.896 671.195,920.26 
				682.018,923.295 654.125,941.918"/>
			<polygon class="color2" points="671.195,892.896 671.195,912.896 
				654.125,907.864 654.125,896.918 642.157,890.27 642.157,884.125"/>
			<polygon class="color2" points="682.018,923.295 682.018,903.295 
				654.125,921.918 654.125,941.918"/>
		</g>
		<g class="lot" id="lot-C14">
			<path d="M463.792,1050.818h0.002H463.792z"/>
			<polygon points="536.652,1020.156 515.184,1034.463 463.792,1045.818 
				512.52,1013.313"/>
			<path d="M463.792,1045.818h0.002H463.792z"/>
			<path d="M463.792,1000.818h0.002H463.792z"/>
			<polygon points="448.471,949.605 512.52,968.313 463.792,1000.818 
				394.974,1016.028 349.914,972.836 384.719,965.044 368.678,948.775 424.143,936.524 430.563,932.241 460.651,941.319"/>
			<polygon points="515.184,1039.463 515.184,1034.463 536.652,1020.156 
				536.652,1025.156"/>
			<polygon points="394.974,1016.028 394.974,1066.028 515.184,1039.463 
				515.184,1034.463 463.792,1045.818 463.792,1000.818"/>
			<polygon points="463.792,1000.818 512.52,968.313 512.52,1013.313 
				463.792,1045.818"/>
			<polygon points="512.52,968.313 536.652,975.156 536.652,1020.156 
				512.52,1013.313"/>
			<polygon class="color2" points="536.652,1020.156 536.652,1000.156 
				515.184,1014.463 515.184,1034.463"/>
			<polygon class="color2" points="463.792,1025.818 463.792,1045.818 
				515.184,1034.463 515.184,1014.463"/>
		</g>
		<g class="lot" id="lot-C12">
			<polygon points="404.415,809.647 437.127,827.543 479.782,811.482 
				571.086,838.394 480.232,899.09 430.508,884.631 338.693,834.396"/>
			<polygon points="436.222,805.27 424.805,801.968 434.769,798.216 
				446.092,801.553"/>
			<polygon class="color2" points="436.222,805.27 436.222,827.041 
				437.127,827.543 446.092,824.168 446.092,801.553"/>
			<polygon class="color2" points="424.805,801.968 436.222,805.27 
				436.222,827.041 424.805,820.802"/>
		</g>
		<g class="lot" id="lot-C15">
			<polygon points="283.442,1034.832 290.968,1038.949 303.287,1036.221 
				295.7,1032.069"/>
			<polygon points="247.762,953.447 306.966,931.155 333.032,956.652 
				394.974,1016.028 327.413,1030.908 320.563,1032.414 295.007,1007.217 250.829,1016.991 180.786,978.67"/>
			<polygon points="290.968,1083.949 290.968,1088.949 394.974,1066.028 
				394.974,1016.028 320.563,1032.414 320.563,1077.414"/>
			<polygon points="180.786,1028.67 180.786,978.67 250.829,1016.991 
				250.829,1061.991 290.968,1083.949 290.968,1088.949"/>
			<polygon class="color2" points="283.442,1034.832 283.442,1079.832 
				290.968,1083.949 290.968,1038.949"/>
			<polygon class="color2" points="303.287,1036.221 290.968,1038.949 
				290.968,1083.949 303.287,1081.229"/>
			<polygon points="320.563,1077.414 303.287,1060.085 303.287,1081.229 
							"/>
			<polygon points="283.442,1054.775 250.829,1061.991 283.442,1079.832 
							"/>
			<polygon points="250.829,1061.991 250.829,1016.991 295.007,1007.217 
				295.007,1032.226 283.442,1034.832 283.442,1054.775"/>
			<polygon points="303.287,1060.085 320.563,1077.414 320.563,1032.414 
				295.007,1007.217 295.007,1032.226 295.7,1032.069 303.287,1036.221"/>
			<polygon class="color2" points="250.829,1061.991 250.829,1041.991 
				283.442,1059.832 283.442,1079.832"/>
			<polygon class="color2" points="320.563,1057.414 320.563,1077.414 
				303.287,1081.229 303.287,1061.229"/>
		</g>
		<g class="lot" id="lot-C11">
			<polygon points="108.323,929.115 97.6,933.157 88.97,928.435 
				99.694,924.398"/>
			<polygon points="128.255,949.929 175.48,932.149 148.508,906.015 
				338.693,834.396 430.508,884.631 180.786,978.67"/>
			<polygon points="128.255,949.929 180.786,978.67 180.786,1028.67 
				88.97,978.435 88.97,973.435 128.255,994.929"/>
			<polygon points="99.694,969.398 128.255,958.642 128.255,994.929 
				97.602,978.157 108.323,974.115"/>
			<polygon points="148.508,906.015 175.48,932.149 148.508,942.304"/>
			<polygon class="color2" points="88.97,928.435 97.6,933.157 
				97.602,978.157 88.97,973.435"/>
			<polygon class="color2" points="108.323,929.115 97.6,933.157 
				97.602,978.157 108.323,974.115"/>
			<polygon class="color2" points="108.323,946.148 108.323,966.148 
				128.255,958.642 128.255,949.929 148.508,942.304 148.508,931.157"/>
			<polygon class="color2" points="128.255,994.929 128.255,974.929 
				97.602,958.157 97.602,978.157"/>
		</g>
	</g>
	<g class="floor" id="floor-C2">
		<g class="grey">
			<polygon points="430.508,834.631 480.232,849.09 424.143,886.524 
				368.679,898.776 384.719,915.044 349.914,922.836 333.032,906.652 306.966,881.155"/>
		</g>
		<g class="lot" id="lot-C23">
			<polygon points="671.195,825.26 678.896,820.167 689.52,823.295 
				682.017,828.296"/>
			<polygon points="460.651,891.319 430.563,882.241 480.232,849.09 
				571.086,788.394 571.09,788.393 642.157,809.336 616.91,826.246 654.125,846.918 536.652,925.156 512.52,918.313 
				504.314,915.827 448.471,899.605"/>
			<polygon class="color2" points="689.52,823.295 689.52,868.295 
				682.017,873.296 682.017,828.296"/>
			<polygon class="color2" points="671.195,825.26 671.195,870.26 
				682.017,873.296 682.017,828.296"/>
			<polygon points="642.157,809.336 616.91,826.246 642.157,840.27"/>
			<polygon points="654.125,846.918 654.125,891.918 689.52,868.295 
				689.52,873.295 536.652,975.156 536.652,925.156"/>
			<polygon points="654.125,857.864 671.195,862.896 671.195,870.26 
				682.018,873.295 654.125,891.918"/>
			<polygon class="color2" points="671.195,842.896 671.195,862.896 
				654.125,857.864 654.125,846.918 642.157,840.27 642.157,834.125"/>
			<polygon class="color2" points="682.018,873.295 682.018,853.295 
				654.125,871.918 654.125,891.918"/>
		</g>
		<g class="lot" id="lot-C24">
			<path d="M463.792,1000.818h0.002H463.792z"/>
			<polygon points="536.652,970.156 515.184,984.463 463.792,995.818 
				512.52,963.313"/>
			<path d="M463.792,995.818h0.002H463.792z"/>
			<path d="M463.792,950.818h0.002H463.792z"/>
			<polygon points="448.471,899.605 512.52,918.313 463.792,950.818 
				394.974,966.028 349.914,922.836 384.719,915.044 368.678,898.775 424.143,886.524 430.563,882.241 460.651,891.319"/>
			<polygon points="515.184,989.463 515.184,984.463 536.652,970.156 
				536.652,975.156"/>
			<polygon points="394.974,966.028 394.974,1016.028 515.184,989.463 
				515.184,984.463 463.792,995.818 463.792,950.818"/>
			<polygon points="463.792,950.818 512.52,918.313 512.52,963.313 
				463.792,995.818"/>
			<polygon points="512.52,918.313 536.652,925.156 536.652,970.156 
				512.52,963.313"/>
			<polygon class="color2" points="536.652,970.156 536.652,950.156 
				515.184,964.463 515.184,984.463"/>
			<polygon class="color2" points="463.792,975.818 463.792,995.818 
				515.184,984.463 515.184,964.463"/>
		</g>
		<g class="lot" id="lot-C22">
			<polygon points="404.415,759.647 437.127,777.543 479.782,761.482 
				571.086,788.394 480.232,849.09 430.508,834.631 338.693,784.396"/>
			<polygon points="436.222,755.27 424.805,751.968 434.769,748.216 
				446.092,751.553"/>
			<polygon class="color2" points="436.222,755.27 436.222,777.041 
				437.127,777.543 446.092,774.168 446.092,751.553"/>
			<polygon class="color2" points="424.805,751.968 436.222,755.27 
				436.222,777.041 424.805,770.802"/>
		</g>
		<g class="lot" id="lot-C25">
			<polygon points="283.442,984.832 290.968,988.949 303.287,986.221 
				295.7,982.069"/>
			<polygon points="247.762,903.447 306.966,881.155 333.032,906.652 
				394.974,966.028 327.413,980.908 320.563,982.414 295.007,957.217 250.829,966.991 180.786,928.67"/>
			<polygon points="290.968,1033.949 290.968,1038.949 394.974,1016.028 
				394.974,966.028 320.563,982.414 320.563,1027.414"/>
			<polygon points="180.786,978.67 180.786,928.67 250.829,966.991 
				250.829,1011.991 290.968,1033.949 290.968,1038.949"/>
			<polygon class="color2" points="283.442,984.832 283.442,1029.832 
				290.968,1033.949 290.968,988.949"/>
			<polygon class="color2" points="303.287,986.221 290.968,988.949 
				290.968,1033.949 303.287,1031.229"/>
			<polygon points="320.563,1027.414 303.287,1010.085 303.287,1031.229 
							"/>
			<polygon points="283.442,1004.775 250.829,1011.991 283.442,1029.832 
							"/>
			<polygon points="250.829,1011.991 250.829,966.991 295.007,957.217 
				295.007,982.226 283.442,984.832 283.442,1004.775"/>
			<polygon points="303.287,1010.085 320.563,1027.414 320.563,982.414 
				295.007,957.217 295.007,982.226 295.7,982.069 303.287,986.221"/>
			<polygon class="color2" points="250.829,1011.991 250.829,991.991 
				283.442,1009.832 283.442,1029.832"/>
			<polygon class="color2" points="320.563,1007.414 320.563,1027.414 
				303.287,1031.229 303.287,1011.229"/>
		</g>
		<g class="lot" id="lot-C21">
			<polygon points="108.323,879.115 97.6,883.157 88.97,878.435 
				99.694,874.398"/>
			<polygon points="128.255,899.929 175.48,882.149 148.508,856.015 
				338.693,784.396 430.508,834.631 180.786,928.67"/>
			<polygon points="128.255,899.929 180.786,928.67 180.786,978.67 
				88.97,928.435 88.97,923.435 128.255,944.929"/>
			<polygon points="99.694,919.398 128.255,908.642 128.255,944.929 
				97.602,928.157 108.323,924.115"/>
			<polygon points="148.508,856.015 175.48,882.149 148.508,892.304"/>
			<polygon class="color2" points="88.97,878.435 97.6,883.157 
				97.602,928.157 88.97,923.435"/>
			<polygon class="color2" points="108.323,879.115 97.6,883.157 
				97.602,928.157 108.323,924.115"/>
			<polygon class="color2" points="108.323,896.148 108.323,916.148 
				128.255,908.642 128.255,899.929 148.508,892.304 148.508,881.157"/>
			<polygon class="color2" points="128.255,944.929 128.255,924.929 
				97.602,908.157 97.602,928.157"/>
		</g>
	</g>
	<g class="floor" id="floor-C3">
		<g class="grey">
			<polygon points="430.508,784.631 480.232,799.09 424.143,836.524 
				368.679,848.776 384.719,865.044 349.914,872.836 333.032,856.652 306.966,831.155"/>
		</g>
		<g class="lot" id="lot-C33">
			<polygon points="671.195,775.26 678.896,770.167 689.52,773.295 
				682.017,778.296"/>
			<polygon points="460.651,841.319 430.563,832.241 480.232,799.09 
				571.086,738.394 571.09,738.393 642.157,759.336 616.91,776.246 654.125,796.918 536.652,875.156 512.52,868.313 
				504.314,865.827 448.471,849.605"/>
			<polygon class="color2" points="689.52,773.295 689.52,818.295 
				682.017,823.296 682.017,778.296"/>
			<polygon class="color2" points="671.195,775.26 671.195,820.26 
				682.017,823.296 682.017,778.296"/>
			<polygon points="642.157,759.336 616.91,776.246 642.157,790.27"/>
			<polygon points="654.125,796.918 654.125,841.918 689.52,818.295 
				689.52,823.295 536.652,925.156 536.652,875.156"/>
			<polygon points="654.125,807.864 671.195,812.896 671.195,820.26 
				682.018,823.295 654.125,841.918"/>
			<polygon class="color2" points="671.195,792.896 671.195,812.896 
				654.125,807.864 654.125,796.918 642.157,790.27 642.157,784.125"/>
			<polygon class="color2" points="682.018,823.295 682.018,803.295 
				654.125,821.918 654.125,841.918"/>
		</g>
		<g class="lot" id="lot-C34">
			<path d="M463.792,950.818h0.002H463.792z"/>
			<polygon points="536.652,920.156 515.184,934.463 463.792,945.818 
				512.52,913.313"/>
			<path d="M463.792,945.818h0.002H463.792z"/>
			<path d="M463.792,900.818h0.002H463.792z"/>
			<polygon points="448.471,849.605 512.52,868.313 463.792,900.818 
				394.974,916.028 349.914,872.836 384.719,865.044 368.678,848.775 424.143,836.524 430.563,832.241 460.651,841.319"/>
			<polygon points="515.184,939.463 515.184,934.463 536.652,920.156 
				536.652,925.156"/>
			<polygon points="394.974,916.028 394.974,966.028 515.184,939.463 
				515.184,934.463 463.792,945.818 463.792,900.818"/>
			<polygon points="463.792,900.818 512.52,868.313 512.52,913.313 
				463.792,945.818"/>
			<polygon points="512.52,868.313 536.652,875.156 536.652,920.156 
				512.52,913.313"/>
			<polygon class="color2" points="536.652,920.156 536.652,900.156 
				515.184,914.463 515.184,934.463"/>
			<polygon class="color2" points="463.792,925.818 463.792,945.818 
				515.184,934.463 515.184,914.463"/>
		</g>
		<g class="lot" id="lot-C32">
			<polygon points="404.415,709.647 437.127,727.543 479.782,711.482 
				571.086,738.394 480.232,799.09 430.508,784.631 338.693,734.396"/>
			<polygon points="436.222,705.27 424.805,701.968 434.769,698.216 
				446.092,701.553"/>
			<polygon class="color2" points="436.222,705.27 436.222,727.041 
				437.127,727.543 446.092,724.168 446.092,701.553"/>
			<polygon class="color2" points="424.805,701.968 436.222,705.27 
				436.222,727.041 424.805,720.802"/>
		</g>
		<g class="lot" id="lot-C35">
			<polygon points="283.442,934.832 290.968,938.949 303.287,936.221 
				295.7,932.069"/>
			<polygon points="247.762,853.447 306.966,831.155 333.032,856.652 
				394.974,916.028 327.413,930.908 320.563,932.414 295.007,907.217 250.829,916.991 180.786,878.67"/>
			<polygon points="290.968,983.949 290.968,988.949 394.974,966.028 
				394.974,916.028 320.563,932.414 320.563,977.414"/>
			<polygon points="180.786,928.67 180.786,878.67 250.829,916.991 
				250.829,961.991 290.968,983.949 290.968,988.949"/>
			<polygon class="color2" points="283.442,934.832 283.442,979.832 
				290.968,983.949 290.968,938.949"/>
			<polygon class="color2" points="303.287,936.221 290.968,938.949 
				290.968,983.949 303.287,981.229"/>
			<polygon points="320.563,977.414 303.287,960.085 303.287,981.229
				"/>
			<polygon points="283.442,954.775 250.829,961.991 283.442,979.832
				"/>
			<polygon points="250.829,961.991 250.829,916.991 295.007,907.217 
				295.007,932.226 283.442,934.832 283.442,954.775"/>
			<polygon points="303.287,960.085 320.563,977.414 320.563,932.414 
				295.007,907.217 295.007,932.226 295.7,932.069 303.287,936.221"/>
			<polygon class="color2" points="250.829,961.991 250.829,941.991 
				283.442,959.832 283.442,979.832"/>
			<polygon class="color2" points="320.563,957.414 320.563,977.414 
				303.287,981.229 303.287,961.229"/>
		</g>
		<g class="lot" id="lot-C31">
			<polygon points="108.323,829.115 97.6,833.157 88.97,828.435 
				99.694,824.398"/>
			<polygon points="128.255,849.929 175.48,832.149 148.508,806.015 
				338.693,734.396 430.508,784.631 180.786,878.67"/>
			<polygon points="128.255,849.929 180.786,878.67 180.786,928.67 
				88.97,878.435 88.97,873.435 128.255,894.929"/>
			<polygon points="99.694,869.398 128.255,858.642 128.255,894.929 
				97.602,878.157 108.323,874.115"/>
			<polygon points="148.508,806.015 175.48,832.149 148.508,842.304"/>
			<polygon class="color2" points="88.97,828.435 97.6,833.157 
				97.602,878.157 88.97,873.435"/>
			<polygon class="color2" points="108.323,829.115 97.6,833.157 
				97.602,878.157 108.323,874.115"/>
			<polygon class="color2" points="108.323,846.148 108.323,866.148 
				128.255,858.642 128.255,849.929 148.508,842.304 148.508,831.157"/>
			<polygon class="color2" points="128.255,894.929 128.255,874.929 
				97.602,858.157 97.602,878.157"/>
		</g>
	</g>
	<g class="floor" id="floor-C4">
		<g class="grey">
			<polygon points="384.719,815.044 368.678,798.775 424.143,786.524 
				480.232,749.09 430.508,734.631 306.966,781.155 299.327,783.876 324.968,798.768 333.032,806.652 349.914,822.836"/>
		</g>
		<g class="lot" id="lot-C41">
			<polygon points="671.195,725.26 678.896,720.167 689.52,723.295 
				682.017,728.296"/>
			<polygon points="436.222,655.27 446.092,651.553 434.769,648.216 
				424.805,651.968"/>
			<polygon points="338.479,684.408 430.508,734.631 480.232,749.09 
				491.643,741.481 610.085,776.252 654.125,746.918 616.91,726.246 642.157,709.336 479.946,661.531 437.182,677.525 
				404.415,659.647"/>
			<polygon class="color2" points="671.195,725.26 682.017,728.296 
				682.017,773.296 671.195,770.26"/>
			<polygon class="color2" points="689.52,723.295 682.017,728.296 
				682.017,773.296 689.52,768.295"/>
			<polygon points="642.157,709.336 616.91,726.246 642.157,740.27"/>
			<polygon points="654.125,746.918 654.125,791.918 689.52,768.295 
				689.52,773.295 610.085,826.252 610.085,776.252"/>
			<polygon points="671.195,770.26 682.027,773.296 654.125,791.918 
				654.125,757.864 671.195,762.896"/>
			<polygon class="color2" points="671.195,742.896 671.195,762.896 
				654.125,757.864 654.125,746.918 642.157,740.27 642.157,734.333"/>
			<polygon class="color2" points="654.125,791.918 654.125,771.918 
				682.027,753.296 682.027,773.296"/>
			<polygon class="color2" points="446.092,651.553 436.222,655.27 
				436.222,677.002 437.182,677.525 446.092,674.193"/>
			<polygon class="color2" points="424.805,651.968 436.222,655.27 
				436.222,677.002 424.805,670.772"/>
		</g>
		<g class="lot" id="lot-C43">
			<polygon points="146.285,764.781 135.563,768.82 126.932,764.101 
				137.657,760.062"/>
			<polygon points="186.471,741.679 213.441,767.813 166.217,785.595 
				218.629,814.411 430.508,734.631 338.479,684.408 335.267,685.618"/>
			<polygon points="186.471,741.679 213.441,767.813 186.471,777.969
				"/>
			<polygon class="color2" points="146.285,764.781 146.285,809.781 
				135.563,813.82 135.563,768.82"/>
			<polygon class="color2" points="126.932,764.101 135.563,768.82 
				135.563,813.82 126.932,809.101"/>
			<polygon points="166.217,785.595 166.217,830.595 218.629,859.411 
				218.629,814.411"/>
			<polygon points="180.786,873.67 180.786,878.67 89.05,828.191 
				89.05,823.191"/>
			<polygon points="126.932,809.101 89.05,823.191 180.786,873.67 
				218.629,859.411 166.217,830.595 166.217,794.306 146.285,801.813 146.285,809.781 135.563,813.82"/>
			<polygon class="color2" points="126.932,789.101 126.932,809.101 
				89.05,823.191 89.05,803.191"/>
			<polygon class="color2" points="180.786,873.67 180.786,853.67 
				89.05,803.191 89.05,823.191"/>
			<polygon class="color2" points="146.285,781.813 146.285,801.813 
				166.217,794.306 166.217,785.595 186.471,777.969 186.471,766.584"/>
			<polygon class="color2" points="218.629,819.411 180.786,833.67 
				180.786,873.67 218.629,859.411"/>
		</g>
		<g class="lot" id="lot-C42">
			<polygon points="536.652,870.156 515.184,884.463 463.792,895.818 
				512.52,863.313"/>
			<polygon points="329.166,875.002 336.691,879.125 349.008,876.391 
				341.421,872.239"/>
			<polygon points="218.629,814.411 220.473,815.335 296.552,857.158 
				340.729,847.387 366.086,872.388 463.794,850.818 512.52,818.313 536.652,825.156 610.085,776.252 491.643,741.481 
				480.232,749.09 424.143,786.524 368.678,798.775 384.719,815.044 349.914,822.836 324.968,798.768 299.489,783.972"/>
			<polygon points="536.652,825.156 536.652,870.156 515.184,884.463 
				515.184,889.463 610.085,826.252 610.085,776.252"/>
			<polygon points="512.52,818.313 536.652,825.156 536.652,870.156 
				512.52,863.313"/>
			<polygon points="463.794,850.818 512.52,818.313 512.52,863.313 
				463.794,895.818"/>
			<polygon points="515.184,889.463 515.184,884.463 463.794,895.818 
				463.794,850.818 366.086,872.388 366.086,917.388 290.968,933.949 290.968,938.949"/>
			<polygon class="color2" points="515.184,884.463 515.184,864.463 
				536.652,850.156 536.652,870.156"/>
			<polygon class="color2" points="463.792,875.818 515.184,864.463 
				515.184,884.463 463.794,895.818"/>
			<polygon class="color2" points="349.008,876.391 349.008,921.153 
				336.691,923.868 336.691,879.125"/>
			<polygon class="color2" points="329.166,875.002 336.691,879.125 
				336.691,923.868 329.166,920.002"/>
			<polygon points="349.008,900.549 366.086,917.388 349.008,921.153
				"/>
			<polygon points="180.786,878.67 180.786,873.67 290.968,933.949 
				290.968,938.949"/>
			<polygon points="329.166,894.944 329.166,920.002 336.691,923.868 
				290.968,933.949 180.786,873.67 218.629,859.411 296.552,902.158"/>
			<polygon points="340.729,847.387 366.086,872.388 366.086,917.388 
				349.008,900.549 349.008,876.391 341.421,872.239 340.729,872.396"/>
			<polygon points="296.552,857.158 340.729,847.387 340.729,872.396 
				329.166,875.002 329.166,894.944 296.552,902.158"/>
			<polygon points="218.629,859.411 218.629,814.411 296.552,857.158 
				296.552,902.158"/>
			<polygon class="color2" points="366.086,917.388 366.086,897.388 
				349.008,901.153 349.008,921.153"/>
			<polygon class="color2" points="336.691,903.868 336.691,923.868 
				290.968,933.949 290.968,913.949"/>
			<polygon class="color2" points="180.786,853.67 290.968,913.949 
				290.968,933.949 180.786,873.67"/>
		</g>
	</g>
	<g class="floor" id="floor-C5">
		<g>
			<polygon points="339.356,859.823 339.356,869.823 511.198,831.64 
				511.198,821.64"/>
			<polygon points="137.412,749.084 137.412,759.084 339.356,869.823 
				339.356,859.823"/>
			<polygon points="434.769,643.216 689.52,718.295 515.184,834.463 
				336.691,874.125 126.932,759.101"/>
			<polygon points="689.52,723.295 689.52,718.295 515.184,834.463 
				515.184,839.463"/>
			<polygon points="336.691,874.125 336.691,879.125 515.184,839.463 
				515.184,834.463"/>
			<polygon points="336.691,879.125 336.691,874.125 126.932,759.101 
				126.932,764.101"/>
			<polygon points="433.779,637.518 679.039,709.799 511.198,821.64 
				339.356,859.823 137.412,749.084"/>
			<polygon points="679.039,719.799 679.039,709.799 511.198,821.64 
				511.198,831.64"/>
				<path class="no-stroke" fill="#CBCAC6" d="M484.385,741.231c-3.445,3.115-13.362,9.714-28.298,16.99c-42.967,20.933-82.303,23.965-104.938,13.776
					c-27.112-12.203-11.84-33.675,25.777-52.001c14.567-7.098,27.399-11.691,34.148-13.321l8.243,9.242
					c-7.064,2.005-16.408,5.23-26.551,10.171c-22.126,10.781-30.855,23.099-13.174,31.059c15.914,7.163,40.687,4.486,65.581-7.642
					c8.667-4.222,16.826-9.189,21.01-12.666L484.385,741.231z"/>
		</g>
	</g>
</g>
</svg>
