<svg xmlns="http://www.w3.org/2000/svg" xmlns:xlink="http://www.w3.org/1999/xlink" width="1919.709" height="1515.25" xmlns:v="https://vecta.io/nano"><style><![CDATA[.B{stroke:#8b6e5a}.C{fill:#f9f8f4}.D{fill:url(#A)}.E{fill:#e2d8ce}]]></style><pattern id="A" x="810.355" y="908.125" width="3" height="1" patternUnits="userSpaceOnUse" viewBox="3 -1 3 1" overflow="visible"><path opacity=".8" stroke="#896e5a" stroke-width="6" d="M3-1v1"/><path stroke="#af896e" stroke-width="3" d="M3-1v1"/></pattern><path d="M557.125 389.081c170.574 0 362.267 46.509 362.267 46.509l226.919 156.777s50.532 26.917 47.619 52.843-34.729 49.047-47.312 64.96-32.098 55.381 8.106 73.104c25.155 11.092 62.23 15.559 95.876 15.559 20.123 0 39.013-1.598 53.399-4.33l164.357-33.049c12.968-2.021 34.061-3.52 59.703-3.52 56.979 0 136.478 7.396 199.539 32.918 91.441 37.008 124.089 74.444 136.458 112.815s-163.968 119.957-222.246 138.092c-47.148 14.672-205.474 62.56-344.795 62.56-32.891 0-64.704-2.666-93.767-9.068-37.892-8.348-69.546-12.188-95.602-12.188-78.577-.002-106.245 34.926-100.562 86.483 7.569 68.658-326.377 230.453-604.794 282.619-44.197 8.281-86.989 12.084-126.502 12.084-209.383 0-327.208-106.701-80.857-219.035 292.84-133.526 413.267-151.291 569.859-250.494 156.594-99.198 106.366-117.063 81.397-122.696-2.753-.619-6.326-.896-10.533-.896-33.936-.002-109.343 18.016-132.539 18.748-9.189.293-35.812 5.709-75.354 5.709-72.625 0-188.873-18.258-321.034-120.068-71.465-55.052-42.188-263.049 21.579-326.86 45.076-45.102 133.664-59.576 228.819-59.576m.004-50h0-.004c-55.578 0-104.212 4.772-144.55 14.182-23.968 5.592-45.641 12.971-64.417 21.934-21.726 10.371-40.302 23.194-55.212 38.114-32.883 32.907-51.6 82.708-61.511 118.693-12.99 47.164-18.529 98.06-15.599 143.314 4.161 64.235 25.042 112.583 60.386 139.809 63.654 49.035 130.364 84.791 198.275 106.273 50.729 16.047 102.297 24.184 153.271 24.184 31.039 0 54.843-2.992 69.065-4.779l8.202-.965c12.888-.449 30.522-3.506 58.098-8.432l9.17-1.633c-10.223 7.143-21.66 14.725-34.264 22.709-86.207 54.61-161.762 83.668-266.331 123.883-76.779 29.526-172.335 66.274-297.518 123.354-56.942 25.968-99.776 53.707-127.313 82.455-41.513 43.338-43.56 83.131-37.964 108.881 6.313 29.064 28.734 69.427 99.696 96.652 45.259 17.363 103.067 26.541 167.184 26.541 44.225 0 89.885-4.354 135.711-12.938 69.092-12.943 143.011-32.543 219.702-58.248 70.322-23.57 140.218-51.521 202.125-80.828 62.224-29.457 114.567-59.447 151.377-86.729 21.295-15.783 37.291-30.453 48.903-44.852 17.814-22.087 25.611-44.488 23.177-66.587-.505-4.577-1.243-15.704 2.778-20.196 1.617-1.808 11.534-10.812 48.081-10.812 23.114 0 51.66 3.707 84.845 11.021 30.841 6.795 66.009 10.237 104.521 10.237 125.092 0 264.625-35.245 359.649-64.815 32.234-10.029 85.65-33.181 129.897-56.293 26.992-14.103 49.896-27.732 68.078-40.514 26.322-18.505 42.772-35.199 51.771-52.541 11.186-21.556 9.019-40.082 5.229-51.828-9.697-30.084-27.021-55.912-52.953-78.955-26.988-23.98-63.733-45.199-112.336-64.868-32.502-13.153-70.74-22.967-113.656-29.167-42.346-6.117-80.274-7.401-104.64-7.401-26.425 0-50.358 1.462-67.396 4.113-27.462 4.277-70.863 13.477-109.159 21.591l-56.838 11.74c-11.549 2.195-27.609 3.453-44.069 3.453-24.78 0-48.357-2.791-64.88-7.5l.116-.149c1.666-2.105 6.235-6.683 9.907-10.356 17.444-17.468 43.809-43.862 47.869-80.036 1.421-12.642-.021-32.187-14.966-53.487-6.481-9.239-15.197-18.337-25.906-27.039-12.219-9.93-24.467-17.269-30.014-20.416L947.813 394.453A49.99 49.99 0 0 0 931.181 387c-2.028-.492-50.475-12.186-120.679-23.974-94.622-15.889-179.87-23.945-253.373-23.945h0z" class="C"/><path d="M919.393 435.59l226.919 156.777s50.532 26.917 47.619 52.843-34.729 49.047-47.312 64.96-32.098 55.381 8.106 73.104 110.832 18.53 149.276 11.229l164.356-33.049c41.782-6.505 167.8-7.609 259.242 29.398s124.089 74.444 136.458 112.815-163.969 119.957-222.246 138.092-286.396 87.015-438.562 53.49c-152.159-33.522-203.73 5.641-196.159 74.295 7.567 68.66-326.378 230.453-604.795 282.621s-500.199-73.42-207.36-206.951 413.267-151.293 569.86-250.494 106.365-117.063 81.396-122.696-117 17.024-143.072 17.852-192.266 42.885-396.389-114.359c-71.465-55.053-42.188-263.05 21.579-326.861 125.856-125.942 591.084-13.066 591.084-13.066z" class="E"/><g class="B"><path d="M678.802 631.385l-66.164 29.158 65.605 26.277 113.406-2.096 72.002 8.764 37.341-35.055z" class="C"/><path d="M863.651 693.488l37.341-35.055v60l-37.341 35.055z" class="D"/><g class="C"><use xlink:href="#C"/><path d="M684.814 545.535L700 538.861l-12.136-1.476-15.076 6.686z"/></g><g class="D"><path d="M684.814 545.535L700 538.861v18.737l-15.186 9.601z"/><path d="M672.788 544.071l12.026 1.464v21.664l-4.905 3.1-7.121-.867z"/></g><path d="M559.615 745.348l57 22.813 85.655-1.578 89.379-81.859-113.406 2.096-65.605-26.277L506.37 617.91l-91.769 40.72 29.498 12.395-53.026 33.77 136.462 54.512z" class="C"/><g class="D"><path d="M559.615 805.348v-60l-32.08 13.959v60z"/><path d="M559.615 745.348l57 22.813v60l-57-22.813z"/><path d="M414.601 658.63l29.498 12.395-29.498 18.787z"/><path d="M391.073 704.795v60l136.462 54.512v-60z"/><path d="M702.27 766.583v60l-85.655 1.578v-60z"/></g><use xlink:href="#D" class="C"/><g class="D"><path d="M348.701 687.867l8.781 3.508v60l-8.781-3.508z"/><path d="M357.482 691.375l14.379-6.223v60l-14.379 6.223z"/></g><path d="M791.649 684.724l72.002 8.764-77.282 71.487-84.099 1.608z" class="C"/><g class="D"><path d="M863.651 693.488v60l-21.578 19.96v-15.856l-15.25.22-10.417 6.587v32.791l-30.037 27.785v-60z"/><path d="M702.27 766.583l84.099-1.608v60l-84.099 1.608z"/></g><use xlink:href="#E" class="C"/><g class="D"><path d="M842.073 757.592v60l-10.338 6.537v-60z"/><path d="M816.406 824.399v-60l15.329-.27v60z"/></g><use xlink:href="#F" class="C"/><g class="D"><path d="M1055.262 622.801v60l-72.163 45.626v-60z"/><path d="M997.72 615.795l38.962-35.95v40.694z"/><path d="M900.992 658.433l82.107 9.994v60l-82.107-9.994z"/></g><use xlink:href="#G" class="C"/><g class="D"><path d="M1109.233 588.677v60l-11.856 7.496v-60z"/><path d="M1084.311 654.582l13.066 1.591v-60l-13.066-1.591z"/></g><g class="C"><use xlink:href="#H"/><use xlink:href="#E" y="-70"/><use xlink:href="#I"/><use xlink:href="#J"/><use xlink:href="#K"/><path d="M842.073 720.078l44.804-.813-44.804 28.327zm-25.667 14.648v19.673l-21.505.413z"/><path d="M816.406 754.399h0l-21.505.413v-60l-92.631 1.77v70.001l129.465-2.454v-10z"/><use xlink:href="#L"/></g><g class="D"><path d="M794.901 724.812l21.505-.413v30l-21.505.413z"/><path d="M886.877 689.265v30l-44.804 28.327v-30z"/><path d="M831.735 694.111l-15.329.27v60.018l15.329-.288z"/><path d="M831.735 694.111l10.338-6.537v60.018l-10.338 6.519z"/></g><g class="C"><use xlink:href="#C" y="-70"/><path d="M684.814 475.535L700 468.861l-12.136-1.476-15.076 6.686z"/></g><g class="D"><path d="M684.814 475.535L700 468.861v18.737l-15.186 9.601z"/><path d="M672.788 474.071l12.026 1.464v21.664l-4.905 3.1-7.121-.867z"/></g><g class="C"><use xlink:href="#G" y="-70"/><use xlink:href="#F" y="-70"/></g><path d="M1084.311 584.582l13.066 1.591v-60l-13.066-1.591z" class="D"/><g class="C"><path d="M1036.682 509.845l-38.962 35.95 38.962 4.744z"/><use xlink:href="#M"/><use xlink:href="#N"/></g><g class="D"><path d="M1084.311 575.644v-30l-47.629-5.811v10.706l18.58 2.262v29.306z"/><path d="M1055.262 612.801v-30l42.115-26.628v30z"/><path d="M1109.233 518.659v60l-11.856 7.514v-60.018z"/></g><g class="C"><use xlink:href="#D" y="-70"/><path d="M612.638 590.543L506.37 547.91l-91.769 40.72 29.498 12.395-53.026 33.77 136.462 54.512 32.08-13.959 10.937-4.922-7.03-2.503 74.627-33.01-7.508-3.089 40.095-18.011z"/></g><path d="M357.482 621.375l14.379-6.223v60l-14.379 6.223z" class="D"/><path d="M414.601 588.63l29.498 12.395-29.498 18.787zm145.014 86.718v60l-32.08 13.959v-60zm-187.754-7.755v7.561l-14.379 6.223c-.311.197 33.592 13.421 33.592 13.421V659.07l-19.213 8.523z" class="C"/><g class="D"><path d="M391.073 659.068v-24.273l23.528-14.983v-1.204l-42.74 18.985v30z"/><path d="M357.482 681.375v-30l33.591 13.42v30z"/><path d="M357.482 621.375v60l-8.781-3.508v-60z"/></g><g class="C"><path d="M527.535 749.307v-60l-136.462-54.512v60l-42.372-16.928v10l178.834 71.44zm89.08 18.854h-.004.004zm0-70h-.004.004z"/><use xlink:href="#O"/><path d="M559.615 675.348l57 22.813v60l-57-22.813z"/><use xlink:href="#P"/><path d="M616.615 698.161v60l-63.964 1.181v10l149.619-2.759v-70.001z"/></g><g class="D"><path d="M616.615 758.161v-30l-63.964 1.181v30z"/><path d="M527.535 719.307l25.116 10.035v30l-25.116-10.035z"/></g><g class="C"><path d="M552.651 769.342v-10l-25.116-10.035v10z"/><use xlink:href="#H" y="-70"/><use xlink:href="#C" y="-140"/><path d="M684.814 405.535L700 398.861l-12.136-1.476-15.076 6.686z"/></g><g class="D"><path d="M684.814 405.535L700 398.861v18.737l-15.186 9.601z"/><path d="M672.788 404.071l12.026 1.464v21.664l-4.905 3.1-7.121-.867z"/></g><g class="C"><use xlink:href="#E" y="-140"/><use xlink:href="#I" y="-70"/><use xlink:href="#J" y="-70"/><use xlink:href="#K" y="-70"/><path d="M842.073 650.078l44.804-.813-44.804 28.327zm-25.667 14.648v19.673l-21.505.413z"/><path d="M816.406 684.399h0l-21.505.413v-60l-92.631 1.77v70l129.465-2.453v-10z"/><use xlink:href="#L" y="-70"/></g><g class="D"><path d="M794.901 654.812l21.505-.413v30l-21.505.413z"/><path d="M886.877 619.265v30l-44.804 28.327v-30z"/><path d="M831.735 624.111l-15.329.27v60.018l15.329-.288z"/><path d="M831.735 624.111l10.338-6.537v60.018l-10.338 6.519z"/></g><g class="C"><use xlink:href="#G" y="-140"/><use xlink:href="#F" y="-140"/></g><path d="M1084.311 514.582l13.066 1.591v-60l-13.066-1.591z" class="D"/><g class="C"><path d="M1036.682 439.845l-38.962 35.95 38.962 4.744z"/><use xlink:href="#M" y="-70"/><use xlink:href="#N" y="-70"/></g><g class="D"><path d="M1084.311 505.644v-30l-47.629-5.811v10.706l18.58 2.262v29.306z"/><path d="M1055.262 542.801v-30l42.115-26.628v30z"/><path d="M1109.233 448.659v60l-11.856 7.514v-60.018z"/></g><g class="C"><use xlink:href="#D" y="-140"/><path d="M612.638 520.543L506.37 477.91l-91.769 40.72 29.498 12.395-53.026 33.77 136.462 54.512 32.08-13.959 10.937-4.922-7.03-2.503 74.627-33.01-7.508-3.089 40.095-18.011z"/></g><path d="M357.482 551.375l14.379-6.223v60l-14.379 6.223z" class="D"/><g class="C"><path d="M414.601 518.63l29.498 12.395-29.498 18.787zm145.014 86.718v60l-32.08 13.959v-60zm-187.754-7.755v7.561l-14.379 6.223c-.311.197 33.592 13.421 33.592 13.421V589.07l-19.213 8.523z"/><path d="M527.535 619.307l-136.462-54.512v60l-42.372-16.928v10l178.834 71.44v-10z"/></g><g class="D"><path d="M391.073 589.068v-24.273l23.528-14.983v-1.204l-42.74 18.985v30z"/><path d="M357.482 611.375v-30l33.591 13.42v30z"/><path d="M357.482 551.375v60l-8.781-3.508v-60z"/></g><g class="C"><path d="M616.615 698.161h-.004.004zm0-70h-.004.004z"/><use xlink:href="#O" y="-70"/><path d="M559.615 605.348l57 22.813v60l-57-22.813z"/><use xlink:href="#P" y="-70"/><path d="M616.615 628.161v60l-63.964 1.181v10l149.619-2.76v-70z"/></g><g class="D"><path d="M616.615 688.161v-30l-63.964 1.181v30z"/><path d="M527.535 649.307l25.116 10.035v30l-25.116-10.035z"/></g><g class="C"><path d="M552.651 699.342v-10l-25.116-10.035v10z"/><use xlink:href="#H" y="-140"/><use xlink:href="#C" y="-210"/><path d="M684.814 335.535L700 328.861l-12.136-1.476-15.076 6.686z"/></g><g class="D"><path d="M684.814 335.535L700 328.861v18.737l-15.186 9.601z"/><path d="M672.788 334.071l12.026 1.464v21.664l-4.905 3.1-7.121-.867z"/></g><g class="C"><use xlink:href="#E" y="-210"/><use xlink:href="#I" y="-140"/><use xlink:href="#J" y="-140"/><use xlink:href="#K" y="-140"/><path d="M842.073 580.078l44.804-.813-44.804 28.327zm-25.667 14.648v19.673l-21.505.413z"/><path d="M816.406 614.399h0l-21.505.413v-60l-92.631 1.77v70l129.465-2.453v-10z"/><use xlink:href="#L" y="-140"/></g><g class="D"><path d="M794.901 584.812l21.505-.413v30l-21.505.413z"/><path d="M886.877 549.265v30l-44.804 28.327v-30z"/><path d="M831.735 554.111l-15.329.27v60.018l15.329-.288z"/><path d="M831.735 554.111l10.338-6.537v60.018l-10.338 6.519z"/></g><g class="C"><use xlink:href="#G" y="-210"/><use xlink:href="#F" y="-210"/></g><path d="M1084.311 444.582l13.066 1.591v-60l-13.066-1.591z" class="D"/><g class="C"><path d="M1036.682 369.845l-38.962 35.95 38.962 4.744z"/><use xlink:href="#M" y="-140"/><use xlink:href="#N" y="-140"/></g><g class="D"><path d="M1084.311 435.644v-30l-47.629-5.811v10.706l18.58 2.262v29.306z"/><path d="M1055.262 472.801v-30l42.115-26.628v30z"/><path d="M1109.233 378.659v60l-11.856 7.514v-60.018z"/></g><g class="C"><use xlink:href="#D" y="-210"/><path d="M612.638 450.543L506.37 407.91l-91.769 40.72 29.498 12.395-53.026 33.77 136.462 54.512 32.08-13.959 10.937-4.922-7.03-2.503 74.627-33.01-7.508-3.089 40.095-18.011z"/></g><path d="M357.482 481.375l14.379-6.223v60l-14.379 6.223z" class="D"/><path d="M414.601 448.63l29.498 12.395-29.498 18.787zm145.014 86.718v60l-32.08 13.959v-60zm-187.754-7.755v7.561l-14.379 6.223c-.311.197 33.592 13.421 33.592 13.421V519.07l-19.213 8.523z" class="C"/><g class="D"><path d="M391.073 519.068v-24.273l23.528-14.983v-1.204l-42.74 18.985v30z"/><path d="M357.482 541.375v-30l33.591 13.42v30z"/><path d="M357.482 481.375v60l-8.781-3.508v-60z"/></g><g class="C"><path d="M527.535 549.307l-136.462-54.512v60l-42.372-16.928v10l178.834 71.44v-10zm89.08 78.854h-.004.004zm0-70h-.004.004z"/><use xlink:href="#O" y="-140"/><path d="M559.615 535.348l57 22.813v60l-57-22.813z"/><use xlink:href="#P" y="-140"/><path d="M616.615 558.161v60l-63.964 1.181v10l149.619-2.76v-70z"/></g><g class="D"><path d="M616.615 618.161v-30l-63.964 1.181v30z"/><path d="M527.535 579.307l25.116 10.035v30l-25.116-10.035z"/></g><g class="C"><path d="M552.651 629.342v-10l-25.116-10.035v10z"/><use xlink:href="#H" y="-210.018"/><path d="M734.013 271.506l15.189-6.674-12.139-1.477-15.073 6.687zm37.744-3.926l-44.94 28.412-49.321-6.003-71.715 32.068 73.021 29.31 168.104 20.465 126.137-79.752z"/></g><g class="D"><path d="M749.202 264.832v17.15l-15.189 9.46v-19.936z"/><path d="M734.013 271.506l-11.933-1.452v25.362l4.737.576 7.196-4.55z"/></g><g class="C"><path d="M405.296 418.479l-9.021-3.558-14.139 6.274 8.778 3.508zm154.319 46.851l57 22.813 85.655-1.579 89.379-81.858-113.406 2.096-65.605-26.277 66.164-29.158-73.023-29.31-159.232 70.34 30.109 12.163-52.639 33.378 103.518 41.351z"/><path d="M559.615 465.33l57 22.813v60l-57-22.813z"/><path d="M559.615 465.33v60l-32.08 13.959v-60z"/></g><path d="M405.296 418.479v60l-14.382 6.224v-60z" class="D"/><g class="C"><path d="M382.136 453.015v28.18l-33.435-13.346zm62.753-28.312l-20.872 13.235v60l-33.103-13.235 14.382-6.224v-35.74zm1.658-32.306l30.109 12.163-30.109 19.092z"/><use xlink:href="#P" y="-210.018"/><path d="M616.615 488.143v60l-63.964 1.181v10l149.619-2.76v-70z"/></g><g class="D"><path d="M616.615 548.161v-30l-63.964 1.181v30z"/><path d="M527.535 509.307l25.116 10.035v30l-25.116-10.035z"/><path d="M382.136 423.015v28.18l-33.435-13.346z"/><path d="M348.701 467.849l33.435 13.357v-30.011l-33.435-13.346z"/><path d="M390.914 454.703l33.103 13.235v30l-33.103-13.225z"/><path d="M446.547 394.5v29.152l-1.658 1.051-20.872 9.73-18.721 8.306v-24.26l-6.83-2.693z"/></g><path d="M527.535 539.289v-60l-103.518-41.351v60l-75.316-30.089v10.018l203.95 81.457v-10z" class="C"/><path d="M382.136 421.195v60.011l8.778 3.507v-60.01z" class="D"/><g class="C"><use xlink:href="#G" y="-280.018"/><path d="M794.901 484.793l36.994-34.548 54.982-.998 168.385-106.464-57.542-7.006 38.962-35.95-63.639-7.747-126.137 79.752-17.56-2.14-37.697 35.014-89.379 81.858z"/><use xlink:href="#E" y="-280.018"/></g><path d="M1084.311 374.564l13.066 1.591v-60l-13.066-1.591z" class="D"/><g class="C"><path d="M1055.262 362.089l29.049 3.536v8.939l13.066 1.591-42.115 26.628zM794.901 544.793l21.505-20.085v-40.327l10.417-6.587 4.912-.22v-27.329l-36.834 34.548z"/><use xlink:href="#K" y="-210.018"/><path d="M842.073 510.06l44.804-.813-44.804 28.327zm-25.667 14.648v19.673l-21.505.412z"/><path d="M816.406 544.381l-21.505.412v-60l-92.631 1.771v70l129.465-2.453v-10z"/><path d="M1097.377 376.155l-42.115 26.628v-60L886.877 449.247v60l-55.142 34.864v10l277.498-175.452v-10z"/></g><g class="D"><path d="M794.901 514.812l21.505-.413v30l-21.505.413z"/><path d="M886.877 479.265v30l-44.804 28.327v-30z"/><path d="M1084.311 365.644v-30l-47.629-5.811v10.706l18.58 2.262v19.306z"/><path d="M1055.262 402.801v-30l42.115-26.628v30z"/><path d="M831.735 484.111l-15.329.27v60.018l15.329-.288z"/><path d="M831.735 484.111l10.338-6.537v60.018l-10.338 6.519z"/><path d="M1109.233 308.659v60l-11.856 7.514v-60.018z"/></g><g class="C"><path d="M1036.682 299.827l-38.962 35.95 38.962 4.762zM382.136 421.044l170.515 68.129v-10l-170.515-68.129z"/><path d="M831.735 483.959v-10l-279.084 5.214v10z"/><path d="M1109.233 298.508v10L831.735 483.959v-10z"/><path d="M737.063 253.204l372.17 45.304-277.498 175.451-279.084 5.214-170.515-68.129z"/><path d="M1095.678 301.032v-20L828.528 449.94v20zm-699.984 88.339l164.157 65.588v20l-164.157-65.588z"/><path d="M828.528 449.94v20l-268.677 5.019v-20z"/><path d="M737.387 237.417l358.291 43.615-267.15 168.908-268.677 5.019-164.157-65.588z"/></g></g><path d="M668.969 331.064l36.74-15.45 170.327 12.637-40.864 17.184-29.842-2.392-53.047 22.306 9.996 10.737-40.08 16.854-53.23-61.876zm101.42 8.626l-46.877-4.072 16.031 17.043 30.846-12.971z" class="E"/><g class="B C"><path d="M1392.479 798.676l28.876 34.617 105.543 41.967-56.283 33.957-91.712-13.758-55.458-66.892z"/><path d="M1582.031 761.67l-160.676 71.623-28.876-34.617 133.295-59.332z"/><use xlink:href="#Q"/><path d="M1517.911 970.366l117.199-52.242-108.212-42.864-56.283 33.957-84.488-12.672-40.273 24.77 23.042 4.164-91.128 53.979 127.835 19.121 59.02-35.377z"/></g><g class="D B"><path d="M1277.768 979.458l127.835 19.121v60l-127.835-19.121z"/><path d="M1455.465 998.202v60l-13.168 5.873v-60z"/><path d="M1429.906 1002.202l12.391 1.873v60l-12.391-1.873z"/><path d="M1635.11 918.124v60l-117.199 52.242v-60z"/><path d="M1517.911 970.366v60l-53.288-7.164v-60z"/><path d="M1405.603 1058.579v-60l59.02-35.377v60l-9.158 5.488v-30.488l-12.284-1.916-13.275 5.916v41.808z"/></g><path d="M1727.033 877.143l-40.42-16.041 58.208-34.83-162.79-64.602-160.676 71.623 213.755 84.831z" class="B C"/><g class="D B"><path d="M1727.033 877.143v60l-91.923 40.981v-60z"/><path d="M1744.821 826.272v60l-17.788 10.645v-19.774l-40.42-16.041z"/></g><use xlink:href="#R" class="B C"/><g class="D B"><path d="M1795.782 846.499v60l-15.101 6.73v-60z"/><path d="M1771.5 849.588l9.181 3.641v60l-9.181-3.641z"/></g><path d="M1136.688 850.049l-4.472-5.273-15.99 5.031 4.319 5.188zm103.588 94.272l28.009 33.715 9.483 1.422 91.998-54.407-23.912-3.736 40.273-24.77-7.224-1.086-32.224-38.828-52.141-62.968-103.788 32.681 14.048 18.11-67.729 30.382 67.131 80.6z" class="C B"/><g class="D B"><path d="M1116.226 849.807v60.002l4.319 5.186v-60z"/><path d="M1136.688 850.049v60.002l-16.143 4.944v-60z"/><path d="M1137.069 934.836v-60l67.131 80.6v60z"/><path d="M1190.75 826.344l14.048 18.11-14.048 6.3z"/><path d="M1268.281 978.036l9.487 1.422v60l-9.483-1.422z"/><path d="M1240.276 944.321v60l-36.076 11.115v-60z"/><path d="M1240.276 944.321l28.009 33.715v60l-28.009-33.715z"/></g><g class="C B"><path d="M1421.355 763.293l-74.676 23.338 32.224 38.828 91.712 13.758 56.489-33.957z"/><path d="M1525.774 669.344l-57.243 25.517-36.51-14.489-137.478 43.289 52.136 62.97 74.676-23.338 160.676-71.623z"/><use xlink:href="#S"/></g><g class="D B"><path d="M1491.192 667.752l17.131-5.336v14.707l-17.131 7.636z"/><path d="M1482.742 664.4v24.125l8.45-3.766v-17.007z"/></g><g class="C B"><use xlink:href="#Q" y="-70"/><path d="M1577.779 825.372l-50.675-20.112-56.489 33.957-133.06 79.213 74.951 11.174 55.58-33.531 44.45 6.689 122.574-54.638z"/><path d="M1455.465 988.202l57.071-25.44v-60l122.574-54.638v70l-192.813 85.951v-10z"/><use xlink:href="#T"/><path d="M1468.086 956.073v-60l44.45 6.689v60z"/><use xlink:href="#U"/><path d="M1429.906 979.106v13.096l-17.4-2.598zm38.18-23.033l44.45 6.689-57.071 25.44v-24.516z"/></g><g class="D B"><path d="M1412.506 959.604l17.4 2.598v30l-17.4-2.598z"/><path d="M1455.465 958.202l57.071-25.44v30l-57.071 25.44z"/><path d="M1429.906 932.202l12.391 1.873v60l-12.391-1.873z"/><path d="M1455.465 928.202v60l-13.168 5.873v-60z"/></g><g class="C B"><use xlink:href="#R" y="-70"/><path d="M1727.033 807.143l-40.42-16.041 58.208-34.83-162.79-64.602-160.676 71.623 213.755 84.831z"/><path d="M1795.782 836.499v10l-160.672 71.625v-70l91.923-40.981v60l53.648-23.914z"/><path d="M1744.821 756.272l-58.208 34.83 40.42 16.041v19.774l17.788-10.645z"/></g><path d="M1771.5 779.588l9.181 3.641v60l-9.181-3.641z" class="B D"/><path d="M1744.821 816.272l26.679 10.59v12.726l9.181 3.641-53.648 23.914v-40.226z" class="B C"/><g class="D B"><path d="M1771.5 826.862v-30l-26.679-10.59v30z"/><path d="M1780.681 843.229v-30l-53.648 23.914v30z"/><path d="M1780.681 783.229l15.101-6.73v60l-15.101 6.73z"/></g><g class="C B"><path d="M1136.688 780.049l-4.472-5.273-15.99 5.031 4.319 5.188zm209.991 6.582l-52.141-62.968-103.788 32.681 14.048 18.11-67.729 30.382 67.131 80.6 36.076-11.115 12.422-3.973-3.688-3.812 84.324-26.461-3.633-4.533 45.512-14.526z"/><path d="M1190.75 756.344v24.41l14.048-6.3z"/></g><path d="M1136.688 780.049l-16.143 4.946v60l16.143-4.946z" class="B D"/><path d="M1137.069 864.836l-16.524-19.841 16.143-4.946v-6.681l.381-.121zm103.207 9.485v60l-36.076 11.115v-60z" class="C B"/><path d="M1120.545 844.995v-30l16.524 19.841v30z" class="B D"/><path d="M1136.688 803.368v31.011l.381.457v-31.589z" class="B C"/><path d="M1116.226 779.807v60l4.319 5.188v-60z" class="B D"/><g class="C B"><path d="M1204.2 945.436v-60l-67.131-80.6v60l-20.843-25.029v10l87.974 105.629z"/><use xlink:href="#V"/><use xlink:href="#W"/><use xlink:href="#X"/><path d="M1240.276 874.321l28.009 33.715-.004 60-28.005-33.715z"/></g><g class="D B"><path d="M1216.56 930.271v30l-12.36-14.835v-30z"/><path d="M1268.285 938.036l-.004 30-51.721-7.765v-30z"/></g><g class="C B"><path d="M1204.2 955.436l12.36 14.835v-10l-12.36-14.835z"/><use xlink:href="#Y"/><use xlink:href="#Z"/><use xlink:href="#S" y="-70"/></g><g class="D B"><path d="M1491.192 597.752l17.131-5.336v14.707l-17.131 7.636z"/><path d="M1482.742 594.4v24.125l8.45-3.766v-17.007z"/></g><g class="C B"><use xlink:href="#Q" y="-140"/><path d="M1577.779 755.371l-50.675-20.111-56.489 33.957-133.06 79.213 74.951 11.174 55.58-33.531 44.45 6.689 122.574-54.638z"/><path d="M1455.465 918.202l57.071-25.44v-60l122.574-54.638v70l-192.813 85.951v-10z"/><use xlink:href="#T" y="-70"/><path d="M1468.086 886.073v-60l44.45 6.689v60z"/><use xlink:href="#U" y="-70"/><path d="M1429.906 909.106v13.096l-17.4-2.598zm38.18-23.033l44.45 6.689-57.071 25.44v-24.516z"/></g><g class="D B"><path d="M1412.506 889.604l17.4 2.598v30l-17.4-2.598z"/><path d="M1455.465 888.202l57.071-25.44v30l-57.071 25.44z"/><path d="M1429.906 862.202l12.391 1.873v60l-12.391-1.873z"/><path d="M1455.465 858.202v60l-13.168 5.873v-60z"/></g><g class="C B"><use xlink:href="#R" y="-140"/><path d="M1727.033 737.143l-40.42-16.04 58.208-34.831-162.79-64.602-160.676 71.624 213.755 84.83z"/><path d="M1795.782 766.499v10l-160.672 71.625v-70l91.923-40.981v60l53.648-23.914z"/><use xlink:href="#a"/></g><path d="M1771.5 709.588l9.181 3.641v60l-9.181-3.641z" class="B D"/><use xlink:href="#b" class="B C"/><g class="D B"><path d="M1771.5 756.861v-30l-26.679-10.589v30z"/><path d="M1780.681 773.229v-30l-53.648 23.914v30z"/><path d="M1780.681 713.229l15.101-6.73v60l-15.101 6.73z"/></g><g class="C B"><path d="M1136.688 710.05l-4.472-5.275-15.99 5.033 4.319 5.186zm209.991 6.581l-52.141-62.968-103.788 32.681 14.048 18.11-67.729 30.383 67.131 80.599 36.076-11.115 12.422-3.973-3.688-3.812 84.324-26.461-3.633-4.533 45.512-14.526z"/><path d="M1190.75 686.344v24.411l14.048-6.301z"/></g><path d="M1136.688 710.05l-16.143 4.944v60.001l16.143-4.946z" class="B D"/><path d="M1137.069 794.836l-16.524-19.841 16.143-4.946v-6.681l.381-.121zm103.207 9.485v60l-36.076 11.115v-60z" class="C B"/><path d="M1120.545 774.995v-30.001l16.524 19.842v30z" class="B D"/><path d="M1136.688 733.367v31.012l.381.457v-31.589z" class="B C"/><path d="M1116.226 709.808v59.999l4.319 5.188v-60.001z" class="B D"/><g class="C B"><path d="M1204.2 815.436l-67.131-80.599v59.999l-20.843-25.029v10l87.974 105.629v-10z"/><use xlink:href="#V" y="-70"/><use xlink:href="#W" y="-70"/><use xlink:href="#X" y="-70"/><path d="M1240.276 804.321l28.009 33.715-.004 60-28.005-33.715z"/></g><g class="D B"><path d="M1216.56 860.271v30l-12.36-14.835v-30z"/><path d="M1268.285 868.036l-.004 30-51.721-7.765v-30z"/></g><g class="C B"><path d="M1204.2 885.436l12.36 14.835v-10l-12.36-14.835z"/><use xlink:href="#Y" y="-70"/><use xlink:href="#Z" y="-70"/><use xlink:href="#S" y="-140"/></g><g class="D B"><path d="M1491.192 527.752l17.131-5.336v14.707l-17.131 7.636z"/><path d="M1482.742 524.4v24.125l8.45-3.766v-17.007z"/></g><g class="C B"><use xlink:href="#Q" y="-210"/><path d="M1577.779 685.371l-50.675-20.111-56.489 33.957-133.06 79.213 74.951 11.174 55.58-33.532 44.45 6.69 122.574-54.639z"/><path d="M1455.465 848.202l57.071-25.44v-60l122.574-54.639v70.001l-192.813 85.951v-10z"/><use xlink:href="#T" y="-140"/><path d="M1468.086 816.073v-60.001l44.45 6.69v60z"/><path d="M1412.506 789.604l55.58-33.532v60.001l-12.621 7.613v-35.484l-12.284-1.916-13.275 5.916v46.904l-17.4 10.498z"/><path d="M1429.906 839.106v13.096l-17.4-2.598zm38.18-23.033l44.45 6.689-57.071 25.44v-24.516z"/></g><g class="D B"><path d="M1412.506 819.604l17.4 2.598v30l-17.4-2.598z"/><path d="M1455.465 818.202l57.071-25.44v30l-57.071 25.44z"/><path d="M1429.906 792.202l12.391 1.873v60l-12.391-1.873z"/><path d="M1455.465 788.202v60l-13.168 5.873v-60z"/></g><g class="C B"><use xlink:href="#R" y="-210"/><path d="M1727.033 667.143l-40.42-16.04 58.208-34.831-162.79-64.602-160.676 71.624 213.755 84.829z"/><path d="M1795.782 696.499v10l-160.672 71.625v-70.001l91.923-40.98v60l53.648-23.914z"/><use xlink:href="#a" y="-70"/></g><path d="M1771.5 639.588l9.181 3.641v60l-9.181-3.641z" class="B D"/><use xlink:href="#b" y="-70" class="B C"/><g class="D B"><path d="M1771.5 686.861v-30l-26.679-10.589v30z"/><path d="M1780.681 703.229v-30l-53.648 23.914v30z"/><path d="M1780.681 643.229l15.101-6.73v60l-15.101 6.73z"/></g><g class="C B"><path d="M1136.688 640.05l-4.472-5.275-15.99 5.033 4.319 5.186zm209.991 6.581l-52.141-62.968-103.788 32.681 14.048 18.11-67.729 30.383 67.131 80.599 36.076-11.116 12.422-3.972-3.688-3.813 84.324-26.46-3.633-4.534 45.512-14.525z"/><path d="M1190.75 616.344v24.411l14.048-6.301z"/></g><path d="M1136.688 640.05l-16.143 4.944v60l16.143-4.944z" class="B D"/><path d="M1137.069 724.837l-16.524-19.843 16.143-4.944v-6.683l.381-.12zm103.207 9.483v60.001l-36.076 11.115v-60z" class="C B"/><path d="M1120.545 704.994v-30l16.524 19.843v30z" class="B D"/><path d="M1136.688 663.367v31.012l.381.458v-31.59z" class="B C"/><path d="M1116.226 639.808v60l4.319 5.186v-60z" class="B D"/><g class="C B"><path d="M1204.2 745.436l-67.131-80.599v60l-20.843-25.029v10l87.974 105.628v-10zm171.013-64.42l-45.512 14.525 3.633 4.534-84.324 26.46 3.688 3.813-12.422 3.972 28.009 33.716 69.27 10.394 133.06-79.213-91.712-13.758z"/><use xlink:href="#W" y="-140"/><use xlink:href="#X" y="-140"/><path d="M1240.276 734.32l28.009 33.716-.004 60-28.005-33.715z"/></g><g class="D B"><path d="M1216.56 790.271v30l-12.36-14.835v-30z"/><path d="M1268.285 798.036l-.004 30-51.721-7.765v-30z"/></g><g class="C B"><path d="M1204.2 815.436l12.36 14.835v-10l-12.36-14.835z"/><use xlink:href="#Y" y="-140"/><path d="M1525.753 471.468l17.128-5.337-8.526-3.383-17.05 5.369zm174.364 57.064l-141.39-56.114-57.247 25.521-34.644-13.751-81.293 25.815 35.812 43.291 118.086 46.863z"/></g><g class="D B"><path d="M1542.881 466.131l-17.128 5.337v15.65l17.079-7.614z"/><path d="M1517.305 468.117l8.448 3.351v15.65l-8.448 3.766z"/></g><g class="C B"><path d="M1153.143 589.787l-4.475-5.275-15.989 5.035 4.321 5.182zm87.133 74.533l28.009 33.715 69.27 10.395 133.06-79.213-91.712-13.758-32.224-38.828 74.676-23.337-35.82-43.288-179.844 56.357 14.712 17.933-67.125 29.997 50.922 61.143z"/><path d="M1337.555 778.43v-70l-69.27-10.395v60.003l-51.725-7.767v10l51.725 7.765z"/><path d="M1240.276 664.32l28.009 33.715-.004 60-28.005-33.715z"/><path d="M1240.276 664.32v60l-36.076 11.116v-60z"/><path d="M1132.679 649.547l-16.453-19.739v10l100.334 120.463v-10l-12.36-14.835v-60l-50.922-61.139v59.996L1137 654.729z"/></g><path d="M1153.143 589.787L1137 594.729v60l16.143-4.942z" class="B D"/><path d="M1132.679 624.627v24.92l-16.453-19.739zm4.321 30.102l16.278 19.564v-56.152l-.135.043v31.603zm68.691-88.366l14.712 17.933-14.712 6.575zm34.585 157.957l28.005 33.715-51.721-7.764-12.36-14.835z" class="C B"/><g class="D B"><path d="M1216.56 720.271v30l-12.36-14.835v-30z"/><path d="M1268.285 728.035l-.004 30-51.721-7.764v-30z"/><path d="M1137 624.729l16.278 19.564v30L1137 654.729z"/><path d="M1132.679 594.627v30l-16.453 5.181v-30z"/><path d="M1152.069 588.521l53.622-16.748v19.098l-52.413 23.422v15.426l-.135.068v-40z"/><path d="M1116.226 599.808l16.453 19.739v30l-16.453-19.739z"/><path d="M1137 594.729v60l-4.321-5.182v-60z"/></g><g class="C B"><use xlink:href="#R" y="-280"/><use xlink:href="#Q" y="-280.001"/><path d="M1686.613 581.103l58.208-34.831-44.704-17.74-160.676 71.625-12.337-4.897-56.489 33.957-133.06 79.213 74.951 11.174 55.58-33.532 44.45 6.69 214.497-95.619z"/></g><path d="M1771.5 569.588l9.181 3.641v60l-9.181-3.641z" class="B D"/><g class="C B"><use xlink:href="#b" y="-140"/><use xlink:href="#T" y="-210"/><path d="M1429.906 769.106v13.096l-17.4-2.598zm38.18-23.034l44.45 6.69-57.071 25.44v-24.515z"/><path d="M1468.086 686.072l44.45 6.69v60l-44.45-6.69z"/><path d="M1468.086 686.072v60l-12.621 7.615v-35.486l-12.284-1.916-13.275 5.916v46.905l-17.4 10.498v-60z"/></g><g class="D B"><path d="M1771.5 616.861v-30l-26.679-10.589v30z"/><path d="M1780.681 633.229v-30l-53.648 23.914v30z"/><path d="M1412.506 749.604l17.4 2.597v30.001l-17.4-2.598z"/><path d="M1455.465 748.201l57.071-25.439v30l-57.071 25.44z"/><path d="M1429.906 722.201l12.391 1.873v60.001l-12.391-1.873z"/><path d="M1455.465 718.201v60.001l-13.168 5.873v-60.001z"/><path d="M1780.681 573.229l15.101-6.73v60l-15.101 6.73z"/></g><g class="C B"><use xlink:href="#a" y="-140"/><path d="M1780.681 633.229l-53.648 23.914v-60l-214.497 95.619v60l-70.239 31.313v10l353.485-157.576v-10zm-648.002-43.682v-10l83.881 100.724v10z"/><path d="M1442.297 714.074v10l-225.737-33.803v-10z"/><path d="M1795.782 556.499v10l-353.485 157.575v-10z"/><path d="M1534.355 452.748l261.427 103.751-353.485 157.575-225.737-33.803-83.881-100.724z"/><path d="M1148.615 579.732v-20l79.852 95.885v20z"/><path d="M1443.356 687.795v20l-214.889-32.178v-20z"/><path d="M1779.856 537.792v20l-336.5 150.003v-20z"/><path d="M1530.99 439.026l248.866 98.766-336.5 150.003-214.889-32.178-79.852-95.885z"/></g><path d="M1339.278 566.686l70.533-29.658c17.289-7.271 32.958-11.23 47.515-12.451 9.94-.833 19.147-.282 26.757 2.254l.318.104c12.842 4.281 11.416 10.618 3.516 17.168 21.141-5.544 39.359-7.469 54.422-2.445l.317.104c19.026 6.342 11.347 18.295-21.464 32.095l-70.927 29.822-110.987-36.993zm105.337-10.951c11.594-4.874 14.903-8.657 8.402-10.824l-.316-.105c-6.022-2.008-15.404-.69-26.802 4.102l-24.755 10.409 19.502 6.5 23.969-10.082zm47.52 11.692c11.593-4.875 14.626-8.896 8.125-11.063l-.317-.105c-6.024-2.009-15.883-.851-28.653 4.521l-29.075 12.227 20.452 6.817 29.468-12.397z" class="E"/><g class="B C"><path d="M668.822 1124.982l-75.147 44.257-172.429 65.502 23.855 29.194 122.381-31.067 144.804-85.461z"/><path d="M494.985 1114.708l98.69 54.531 75.147-44.257-81.981-45.14zm406.678 25.774l11.531-6.756 12.354 3.045-11.246 6.628zm-233.4 124.708l-73.05 43.082-12.657 3.213-40.311-46.472 32.091-8.271-16.496-21.427 9.642-2.447 220.329-130.048 82.655 20.373-37.874 22.404 39.893 22.479-176.063 103.706z"/></g><g class="D B"><path d="M925.548 1136.771l-11.246 6.628v66.563l11.246-6.628z"/><path d="M901.663 1140.482l12.639 2.917v66.563l-12.639-2.918z"/><path d="M870.466 1123.193v43.745l-37.874-21.341z"/><path d="M872.485 1168.076v66.562l-176.063 103.707v-66.563z"/><path d="M668.263 1265.19l28.159 6.592v66.563l-28.159-6.592z"/><path d="M595.213 1308.272l73.05-43.082v66.563l-73.05 43.082z"/><path d="M582.556 1311.485l12.657-3.213v66.563l-12.657 3.213z"/></g><path d="M355.002 1362.678l8.087 4.469 16.55-4.212-8.154-4.503zm-35.055-19.372l-75.287-41.596 94.17-35.743 82.416-31.226 23.855 29.194 112.739-28.62 16.496 21.427-32.091 8.271 40.311 46.472-179.714 45.569-23.551-28.83z" class="C B"/><g class="D B"><path d="M402.842 1357.054l179.714-45.569v66.563l-179.714 45.57z"/><path d="M363.089 1367.147l16.55-4.212v66.564l-16.55 4.21z"/><path d="M355.002 1362.678v66.564l8.087 4.467v-66.562z"/><path d="M379.291 1328.224v34.519l.348.192v32.276l23.203 28.407v-66.564z"/><path d="M319.947 1409.87l-75.287-41.598v-66.562l75.287 41.596z"/><path d="M379.291 1328.224v34.519l-7.806-4.311-16.483 4.246v38.282l-35.055 8.91v-66.564z"/></g><path d="M170.238 1246.615l-14.987 5.687-9.279-5.122 14.989-5.688zm17.962 23.895l66.001-25.049-25.015-29.866 265.799-100.887 98.69 54.531L244.66 1301.71z" class="C B"/><g class="D B"><path d="M188.2 1270.51l56.46 31.2v66.562l-56.46-31.198z"/><path d="M145.972 1247.18v66.562l9.279 5.123v-66.563z"/><path d="M170.238 1246.615v66.563l-14.987 5.687v-66.563z"/><path d="M229.186 1215.595l25.015 29.866-25.015 9.723z"/></g><g class="C B"><path d="M593.675 1091.582l57.898 14.014-84.091 49.613-122.381 31.07-24.09-29.159z"/><path d="M586.841 1002.186L622 1021.617l59.615-22.629 106.192 26.175-136.234 80.433-57.898-14.014-98.69-54.53zm41.798-7.62l-13.299-3.198 13.923-5.286 13.169 3.249z"/></g><g class="D B"><path d="M628.639 994.566l13.793-5.235v24.528l-13.793 5.236z"/><path d="M615.34 991.368l13.299 3.198v24.529l-6.639 2.522-6.66-3.685z"/></g><g class="C B"><path d="M355.002 1285.021l8.087 4.468 16.55-4.211-8.154-4.504zm-16.735-96.497l82.744-31.404 24.09 29.159 57.674 67.806-90.735 22.986-9.198 2.326-23.551-28.829-59.344 15.082-75.287-41.598z"/><path d="M355.002 1351.585l-35.055-19.374v-66.561l-75.287-41.598v77.658l118.429 65.437v-11.094z"/><path d="M363.089 1356.053v11.094l139.686-35.403v-77.659l-99.933 25.312v66.564l-23.203 5.88z"/><path d="M379.639 1317.554l23.203 28.407-23.203 5.88zm-24.637 5.75v28.281l-35.055-19.374z"/><path d="M379.291 1250.568l23.551 28.829v66.564l-23.203-28.407v-32.276l-.348-.192z"/><path d="M319.947 1265.65l59.344-15.082v34.518l-7.806-4.312-16.483 4.247v38.283l-35.055 8.907z"/></g><g class="D B"><path d="M319.947 1298.931l35.055 19.371v33.283l-35.055-19.374z"/><path d="M379.639 1318.56l23.203-5.881v33.282l-23.203 5.88z"/><path d="M355.002 1285.021l8.087 4.468v66.564l-8.087-4.468z"/><path d="M379.639 1285.278v66.563l-16.55 4.212v-66.564z"/></g><g class="C B"><path d="M170.238 1168.958l-14.987 5.688-9.279-5.124 14.989-5.689zm17.962 23.896l66.001-25.049-25.015-29.868 265.799-100.885 98.69 54.53-349.015 132.47z"/><path d="M229.186 1137.937l25.015 29.868-25.015 9.491z"/></g><path d="M155.251 1174.646l14.987-5.688v66.563l-14.987 5.687z" class="B D"/><g class="C B"><path d="M155.251 1241.208l32.949 18.209v-66.563l56.46 31.198v77.658l-98.688-54.53v-11.095z"/><path d="M170.238 1226.876l17.962-6.819v39.36l-32.949-18.209 14.987-5.687z"/></g><g class="D B"><path d="M170.238 1226.876l17.962-6.819v-27.203l40.986-15.558v-6.042l-58.948 22.34z"/><path d="M155.251 1207.926l32.949 18.209v33.282l-32.949-18.209z"/><path d="M145.972 1169.522v66.563l9.279 5.123v-66.562z"/></g><g class="C B"><path d="M901.663 1062.825l11.531-6.756 12.354 3.045-11.246 6.629zm-250.09 42.771l136.238-80.434 82.655 20.375-37.874 22.403 39.893 22.478-176.063 103.707-28.159-6.591-9.521-2.437 8.861-4.957-65.245-15.952 9.667-5.771-34.917-8.889z"/><path d="M696.422 1194.125l-28.159-6.591v66.561l28.159 6.593zm174.044-148.588v43.745l-37.874-21.342z"/></g><path d="M901.663 1062.825l12.639 2.918v66.561l-12.639-2.917z" class="B D"/><path d="M872.485 1112.335l29.178 7.454v9.598l12.639 2.917-41.817 24.677z" class="B C"/><g class="D B"><path d="M901.663 1119.789l-29.178-7.454v-21.917l-2.019-1.136v-10.771l31.197 7.996z"/><path d="M914.302 1099.024v33.28l-41.817 24.677V1123.7z"/><path d="M925.548 1059.114v66.563l-11.246 6.627v-66.561z"/></g><g class="C B"><path d="M914.302 1132.304l-41.817 24.677v-66.563l-176.063 103.707v77.657l229.126-135.011v-11.094zm-319.089 175.968h.003z"/><path d="M577.108 1149.528l34.917 8.889-9.667 5.771 65.245 15.952-8.861 4.957 9.521 2.437-73.05 43.082-92.438 23.469-57.674-67.806 122.381-31.07zm119.314 111.16l-32.182 18.962-69.027 17.527 73.05-43.082z"/><path d="M502.775 1254.085l92.438-23.469v66.561l69.027-17.527v11.093l-161.465 41.001z"/><path d="M595.213 1230.616l73.05-43.082v66.561l-73.05 43.082z"/></g><g class="D B"><path d="M696.422 1227.407v33.281l-32.182 18.962v-33.281z"/><path d="M595.213 1263.897l69.027-17.528v33.281l-69.027 17.527z"/></g><g class="C B"><path d="M664.24 1279.65v11.093l32.182-18.961v-11.094zm32.182-163.182l-28.159-6.593v66.563l28.159 6.594zm-102.747-102.543l57.898 14.015-84.091 49.612-122.381 31.07-24.09-29.16z"/><path d="M586.841 924.53L622 943.958l59.615-22.627 106.192 26.175-136.234 80.434-57.898-14.015-98.69-54.529zm41.798-7.621l-13.299-3.198 13.923-5.286 13.169 3.247z"/></g><g class="D B"><path d="M628.639 916.909l13.793-5.237v24.531l-13.793 5.235z"/><path d="M615.34 913.711l13.299 3.198v24.529l-6.639 2.52-6.66-3.682z"/></g><g class="C B"><path d="M355.002 1207.364l8.087 4.468 16.55-4.211-8.154-4.503zm-16.735-96.498l82.744-31.404 24.09 29.16 57.674 67.807-99.933 25.311-23.551-28.83-59.344 15.083-75.287-41.597z"/><path d="M355.002 1273.927l-35.055-19.372v-66.562l-75.287-41.597v77.656l118.429 65.437v-11.093z"/><path d="M363.089 1278.396v11.093l139.686-35.404v-77.656l-99.933 25.311v66.564l-23.203 5.88z"/><path d="M379.639 1239.897l23.203 28.407-23.203 5.88zm-24.637 5.75v28.28l-35.055-19.372z"/><path d="M379.291 1172.91l23.551 28.83v66.564l-23.203-28.407v-32.276l-.348-.191z"/><path d="M319.947 1187.993l59.344-15.083v34.52l-7.806-4.312-16.483 4.246v38.283l-35.055 8.908z"/></g><g class="D B"><path d="M319.947 1221.274l35.055 19.372v33.281l-35.055-19.372z"/><path d="M379.639 1240.902l23.203-5.88v33.282l-23.203 5.88z"/><path d="M355.002 1207.364l8.087 4.468v66.564l-8.087-4.469z"/><path d="M379.639 1207.621v66.563l-16.55 4.212v-66.564z"/></g><g class="C B"><path d="M170.238 1091.301l-14.987 5.686-9.279-5.121 14.989-5.689zm17.962 23.895l66.001-25.049-25.015-29.866 265.799-100.885 98.69 54.529-349.015 132.471z"/><path d="M229.186 1060.281l25.015 29.866-25.015 9.493z"/></g><path d="M155.251 1096.987l14.987-5.686v66.563l-14.987 5.686z" class="B D"/><g class="C B"><path d="M155.251 1163.55l32.949 18.21v-66.564l56.46 31.2v77.656l-98.688-54.53v-11.093z"/><path d="M170.238 1149.219l17.962-6.818v39.359l-32.949-18.21 14.987-5.686z"/></g><g class="D B"><path d="M170.238 1149.219l17.962-6.818v-27.205l40.986-15.556v-6.044l-58.948 22.341z"/><path d="M155.251 1130.269l32.949 18.209v33.282l-32.949-18.21z"/><path d="M145.972 1091.866v66.563l9.279 5.121v-66.563z"/></g><g class="C B"><path d="M901.663 985.167l11.531-6.754 12.354 3.044-11.246 6.627zm-250.09 42.773l136.238-80.435 82.655 20.373-37.874 22.406 39.893 22.48-176.063 103.704-28.159-6.593-9.521-2.435 8.861-4.956-65.245-15.951 9.667-5.774-34.917-8.887z"/><path d="M870.466 967.878v43.747l-37.874-21.341z"/></g><path d="M901.663 985.167l12.639 2.917v66.563l-12.639-2.916z" class="B D"/><path d="M872.485 1034.678l29.178 7.454v9.599l12.639 2.916-41.817 24.677z" class="B C"/><g class="D B"><path d="M901.663 1042.132l-29.178-7.454v-21.914l-2.019-1.139v-10.772l31.197 7.998z"/><path d="M914.302 1021.367v33.28l-41.817 24.677v-33.282z"/><path d="M925.548 981.457v66.562l-11.246 6.628v-66.563z"/></g><g class="C B"><path d="M914.302 1054.647l-41.817 24.677v-66.56l-176.063 103.704v77.657l229.126-135.011v-11.095zm-319.089 175.969h.003z"/><path d="M577.108 1071.872l34.917 8.887-9.667 5.774 65.245 15.951-8.861 4.956 9.521 2.435-73.05 43.083-92.438 23.471-57.674-67.807 122.381-31.07zm119.314 111.16l-32.182 18.962-69.027 17.527 73.05-43.083z"/><path d="M502.775 1176.429l92.438-23.471v66.563l69.027-17.527v11.092l-161.465 40.999z"/><path d="M595.213 1152.958l73.05-43.083v66.563l-73.05 43.083z"/></g><g class="D B"><path d="M696.422 1149.75v33.282l-32.182 18.962v-33.283z"/><path d="M595.213 1186.24l69.027-17.529v33.283l-69.027 17.527z"/></g><g class="C B"><path d="M664.24 1201.994v11.092l32.182-18.961v-11.093zm-70.565-265.727l57.898 14.014-84.091 49.615-122.381 31.068-24.09-29.159z"/><path d="M586.841 846.872L622 866.302l59.615-22.628 106.192 26.175-136.234 80.432-57.898-14.014-98.69-54.53zm41.798-7.621l-13.299-3.197 13.923-5.286 13.169 3.247z"/></g><g class="D B"><path d="M628.639 839.251l13.793-5.236v24.53l-13.793 5.236z"/><path d="M615.34 836.054l13.299 3.197v24.53L622 866.302l-6.66-3.683z"/></g><g class="C B"><path d="M355.002 1129.707l8.087 4.467 16.55-4.21-8.154-4.505zm-16.735-96.498l82.744-31.404 24.09 29.159 57.674 67.808-99.933 25.311-23.551-28.83-59.344 15.082-75.287-41.596z"/><path d="M355.002 1196.271l-35.055-19.372v-66.564l-75.287-41.596v77.657l118.429 65.436v-11.093z"/><path d="M363.089 1200.739v11.093l139.686-35.403v-77.657l-99.933 25.311v66.563l-23.203 5.882z"/><path d="M379.639 1162.24l23.203 28.406-23.203 5.882zm-24.637 5.749v28.282l-35.055-19.372z"/><path d="M379.291 1095.253l23.551 28.83v66.563l-23.203-28.406v-32.276l-.348-.192z"/><path d="M319.947 1110.335l59.344-15.082v34.519l-7.806-4.313-16.483 4.248v38.282l-35.055 8.91z"/></g><g class="D B"><path d="M319.947 1143.616l35.055 19.373v33.282l-35.055-19.372z"/><path d="M379.639 1163.246l23.203-5.88v33.28l-23.203 5.882z"/><path d="M355.002 1129.707l8.087 4.467v66.565l-8.087-4.468z"/><path d="M379.639 1129.964v66.564l-16.55 4.211v-66.565z"/></g><g class="C B"><path d="M170.238 1013.644l-14.987 5.687-9.279-5.122 14.989-5.69zm17.962 23.896l66.001-25.049-25.015-29.868 265.799-100.886 98.69 54.53-349.015 132.472z"/><path d="M229.186 982.623l25.015 29.868-25.015 9.492z"/></g><path d="M155.251 1019.331l14.987-5.687v66.563l-14.987 5.687z" class="B D"/><g class="C B"><path d="M155.251 1085.894l32.949 18.209v-66.563l56.46 31.199v77.657l-98.688-54.53v-11.095z"/><path d="M170.238 1071.562l17.962-6.819v39.36l-32.949-18.209 14.987-5.687z"/></g><g class="D B"><path d="M170.238 1071.562l17.962-6.819v-27.203l40.986-15.557v-6.043l-58.948 22.34z"/><path d="M155.251 1052.613l32.949 18.208v33.282l-32.949-18.209z"/><path d="M145.972 1014.209v66.562l9.279 5.123v-66.563z"/></g><g class="C B"><path d="M901.663 907.511l11.531-6.756 12.354 3.044-11.246 6.629zm-250.09 42.77l136.238-80.433 82.655 20.374-37.874 22.403 39.893 22.481-176.063 103.704-28.159-6.591-9.521-2.436 8.861-4.955-65.245-15.953 9.667-5.772-34.917-8.889z"/><path d="M696.422 1038.81l-28.159-6.591v66.563l28.159 6.593zm174.044-148.588v43.745l-37.874-21.342z"/></g><path d="M901.663 907.511l12.639 2.917v66.563l-12.639-2.918z" class="B D"/><path d="M872.485 957.022l29.178 7.453v9.598l12.639 2.918-41.817 24.678z" class="B C"/><g class="D B"><path d="M901.663 964.475l-29.178-7.453v-21.916l-2.019-1.139v-10.77l31.197 7.996z"/><path d="M914.302 943.708v33.283l-41.817 24.678v-33.281z"/><path d="M925.548 903.799v66.563l-11.246 6.629v-66.563z"/></g><g class="C B"><path d="M914.302 976.991l-41.817 24.678v-66.563L696.422 1038.81v77.658l229.126-135.011v-11.095zm-319.089 175.967h.003z"/><path d="M577.108 994.214l34.917 8.889-9.667 5.772 65.245 15.953-8.861 4.955 9.521 2.436-73.05 43.082-92.438 23.471-57.674-67.808 122.381-31.068zm119.314 111.161l-32.182 18.959-69.027 17.53 73.05-43.082z"/><path d="M502.775 1098.772l92.438-23.471v66.563l69.027-17.53v11.096l-161.465 40.999z"/><path d="M595.213 1075.301l73.05-43.082v66.563l-73.05 43.082z"/></g><g class="D B"><path d="M696.422 1072.093v33.282l-32.182 18.959v-33.28z"/><path d="M595.213 1108.583l69.027-17.529v33.28l-69.027 17.53z"/></g><g class="C B"><path d="M664.24 1124.334v11.096l32.182-18.962v-11.093zM507.605 959.797l-14.622-18.647 74.499-18.911 84.091-49.614-57.898-14.015-172.664 65.538-10.623 3.863 27.262 16.277 7.451 9.019 15.719 18.479zm394.058-129.945l11.531-6.754 12.354 3.045-11.246 6.628zm-273.024-68.258l13.793-5.236-13.169-3.247-13.923 5.286z"/><path d="M806.479 896.327l66.006-38.877-39.893-22.481 37.874-22.403-188.657-46.505-59.732 22.553-35.236-19.399-53.803 20.418-38.326 14.471 98.963 54.506 57.898 14.015 17.106-10.082z"/><path d="M870.466 812.566v43.744l-37.874-21.341z"/></g><path d="M901.663 829.852l12.639 2.919v66.562l-12.639-2.916z" class="B D"/><path d="M872.485 879.364l29.178 7.454v9.599l12.639 2.916-41.817 24.679z" class="B C"/><g class="D B"><path d="M628.639 761.594l13.793-5.236v24.53l-13.793 5.237z"/><path d="M615.34 758.397l13.299 3.197v24.531L622 788.643l-6.66-3.682z"/></g><path d="M914.302 899.333l-41.817 24.679V857.45L696.422 961.154l110.057 12.83 66.006-38.878 53.063-31.307v-11.093z" class="B C"/><g class="D B"><path d="M901.663 886.818l-29.178-7.454V857.45l-2.019-1.14v-10.77l31.197 7.997z"/><path d="M914.302 866.052v33.281l-41.817 24.679v-33.283z"/><path d="M925.548 826.143v66.563l-11.246 6.627v-66.562z"/></g><path d="M223.307 915.802l-14.985 5.685-9.278-5.122 14.988-5.688zm58.949-31.022l25.014 29.868-65.999 25.046 56.286 31.301L593.675 858.61l-98.963-54.506-4.49 1.709z" class="C B"/><g class="D B"><path d="M199.044 916.365v66.561l9.278 5.125v-66.564z"/><path d="M223.307 915.802v66.562l-14.985 5.687v-66.564z"/></g><g class="C B"><path d="M282.256 884.78v39.359l25.014-9.491zm-40.985 54.914l56.286 31.301v66.563l-56.286-31.303zm-95.113 74.212v-11.095l98.502 54.833v11.095z"/><path d="M199.044 982.926l-52.886 19.885 98.502 54.833 52.897-20.086-56.286-31.303V966.9l-17.964 6.819v8.645l-14.985 5.687z"/></g><g class="D B"><path d="M199.044 949.646v33.28l-52.886 19.885v-33.28z"/><path d="M223.307 940.437l58.949-22.177v5.879l-40.985 15.555V966.9l-17.964 6.819z"/><path d="M146.158 969.531v33.28l98.502 54.833v-33.281z"/></g><g class="C B"><path d="M297.557 1037.558l-48.29 18.336v-55.47l48.29-18.336zm398.865-9.841l-32.182 18.961-69.027 17.529 73.05-43.082zm-280.1-2.023l8.087 4.473 16.551-4.214-8.153-4.506zm280.1-64.54l110.057-64.827-137.8-33.784-101.197 59.696-74.499 18.911 14.622 18.647-46.785 11.989-15.719-18.479-7.451-9.019-27.092-16.175-113.001 42.882 2.007.997 81.705 45.426 59.343-15.082 23.367 28.607 131.237-33.3 73.047-43.081z"/><path d="M696.422 961.154l-28.159-6.592v66.563l28.159 6.592z"/><path d="M595.213 997.643l73.05-43.081v66.563l-73.05 43.082zm211.266-101.316l-110.057 64.827v66.563l-32.182 18.961v11.094l142.239-83.788z"/><path d="M424.409 1107.823l-61.32 15.259v11.092l301.151-76.402v-11.094l-69.027 17.529v-66.564l-131.234 33.3v66.562l-23.019 6.105z"/><path d="M440.612 1002.336l23.367 28.607v66.562l-23.019-28.18v-43.372l-.348-.193z"/><path d="M440.96 1103.61l23.019-6.105-23.019-28.18zM297.557 970.995v66.563l83.712 46.421v-66.561z"/></g><path d="M416.322 1025.694l8.087 4.473v77.656l-8.087-4.472z" class="B D"/><g class="C B"><path d="M381.269 1017.418l59.343-15.082v23.424l-7.805-4.313-16.485 4.247v49.378l-35.053 8.907z"/><path d="M297.557 1037.558l-52.897 20.086 118.429 65.438 61.32-15.259-8.087-4.472v-28.279l-35.053 8.907z"/><path d="M244.66 1068.739v-11.095l118.429 65.438v11.092z"/></g><g class="D B"><path d="M696.422 994.436v33.281l-32.182 18.961v-33.28z"/><path d="M595.213 1030.925l69.027-17.527v33.28l-69.027 17.529z"/><path d="M440.96 1103.61v-33.282l23.019-6.104v33.281z"/><path d="M424.409 1074.542v33.281l-61.32 15.259v-33.283z"/><path d="M440.96 1025.953v77.657l-16.551 4.213v-77.656z"/><path d="M244.66 1024.363v33.281l118.429 65.438v-33.283z"/></g><g class="C B"><path d="M199.044 916.365l225.365 124.894v-11.092L199.044 905.271z"/><path d="M664.24 980.116v-11.094l-239.831 61.145v11.092z"/><path d="M925.548 826.143v-11.095L664.24 969.022v11.094z"/><path d="M629.263 742.017l296.285 73.031L664.24 969.022l-239.831 61.145-225.365-124.896z"/><path d="M219.736 904.413v-22.188l212.529 117.783v22.188z"/><path d="M658.438 942.346v22.188l-226.173 57.662v-22.188z"/><path d="M904.862 797.141v22.189L658.438 964.534v-22.188z"/><path d="M625.451 728.272l279.411 68.869-246.424 145.205-226.173 57.662-212.529-117.783z"/></g><path d="M497.726 872.5l-.316-.153c-32.346-15.73-26.866-38.863 14.784-53.436 28.096-9.831 55.685-11.529 81.5-9.16L582.925 828.5c-15.787-1.106-29.898-.411-43.063 4.195-19.254 6.736-19.647 17.883-3.478 25.746l.316.153c16.647 8.099 43.206 9.678 62.46 2.94 14.344-5.019 17.399-10.597 17.565-17.418l45.174-2.017c1.462 11.558-5.399 22.841-35.854 33.497-39.29 13.752-95.181 13.02-128.319-3.096z" class="E"/><defs ><path id="C" d="M724.85 541.887l-44.941 28.412-51.972-6.327-121.562 53.938 106.263 42.633 66.164-29.158 126.135-79.75z"/><path id="D" d="M371.861 685.152l-9.019-3.557-14.141 6.272 8.781 3.508z"/><path id="E" d="M842.073 757.592l-10.338 6.537-15.329.27 10.417-6.587z"/><path id="F" d="M1055.262 622.801l-57.542-7.006 38.962-35.95-231.745-28.21-126.135 79.75 304.297 37.042z"/><path id="G" d="M1084.311 594.582l13.066 1.591 11.856-7.496-13.071-1.591z"/><path id="H" d="M678.802 561.385l-66.164 29.158 65.605 26.277 113.406-2.096 37.697-35.014z"/><path id="I" d="M901.482 588.493l-72.136-8.783-37.697 35.014-89.379 81.858 92.631-1.77 36.994-34.549 54.982-.998 96.222-60.838z"/><path id="J" d="M794.901 754.812l21.505-20.086v-40.327l10.417-6.587 4.912-.22v-27.329l-36.834 34.549z"/><path id="K" d="M831.895 660.263l54.982-.998v60l-44.804.813v-32.486h-10.338z"/><path id="L" d="M886.877 659.265v60l-55.142 34.864v10l151.364-95.702v-70z"/><path id="M" d="M1055.262 582.107l29.049-6.463v8.938l13.066 1.591-42.115 26.628z"/><path id="N" d="M1097.377 586.173h0l-42.115 26.628v-60l-72.163 45.626v70l126.134-79.75v-10z"/><path id="O" d="M670.736 613.813l-40.095 18.011 7.508 3.089-74.627 33.01 7.03 2.503-10.937 4.922 57 22.813 85.655-1.579 89.379-81.858-113.406 2.096z"/><path id="P" d="M527.535 749.307l25.116 10.035 63.964-1.181-57-22.813z"/><path id="Q" d="M1455.465 998.202l-13.168 5.873-12.391-1.873 13.275-5.916z"/><path id="R" d="M1771.5 849.588l9.181 3.641 15.101-6.73-9.178-3.645z"/><path id="S" d="M1491.192 667.752l17.131-5.336-8.528-3.384-17.053 5.368z"/><path id="T" d="M1429.906 992.202l-17.4-2.598v-60l-74.951-11.174v70l104.742 15.645v-10z"/><path id="U" d="M1412.506 929.604l55.58-33.531v60l-12.621 7.613v-35.484l-12.284-1.916-13.275 5.916v46.904l-17.4 10.498z"/><path id="V" d="M1375.213 821.016l-45.512 14.526 3.633 4.533-84.324 26.461 3.688 3.812-12.422 3.973 28.009 33.715 69.27 10.394 133.06-79.213-91.712-13.758z"/><path id="W" d="M1204.2 945.436l12.36 14.835 51.725 7.765-28.009-33.715z"/><path id="X" d="M1337.555 988.43v-70l-69.27-10.394v60.002l-51.725-7.767v10l51.725 7.765z"/><path id="Y" d="M1421.355 693.294l-74.676 23.337 32.224 38.828 91.712 13.758 56.489-33.957z"/><path id="Z" d="M1525.774 599.344l-57.243 25.517-36.51-14.489-137.478 43.289 52.136 62.97 74.676-23.337 160.676-71.624z"/><path id="a" d="M1744.821 686.272l-58.208 34.831 40.42 16.04v19.773l17.788-10.644z"/><path id="b" d="M1744.821 746.272l26.679 10.589v12.727l9.181 3.641-53.648 23.914v-40.227z"/></defs></svg>