<?xml version="1.0" encoding="utf-8"?>
<!-- Generator: Adobe Illustrator 16.0.0, SVG Export Plug-In . SVG Version: 6.00 Build 0)  -->
<!DOCTYPE svg PUBLIC "-//W3C//DTD SVG 1.1//EN" "http://www.w3.org/Graphics/SVG/1.1/DTD/svg11.dtd">
<svg version="1.1" id="Layer_1" xmlns="http://www.w3.org/2000/svg" xmlns:xlink="http://www.w3.org/1999/xlink" x="0px" y="0px"
	 width="182.135px" height="135.808px" viewBox="0 0 182.135 135.808" enable-background="new 0 0 182.135 135.808"
	 xml:space="preserve">
<g>
	<polygon opacity="0.6" fill="#547373" points="17.824,106.312 5.367,18.006 98.319,6.981 162.201,36.603 144.896,128.197 	"/>
	<polygon opacity="0.5" fill="#547373" points="121.26,0 178.246,69.787 103.695,127.966 32.989,135.808 0,47.601 	"/>
	<polygon opacity="0.5" fill="#547373" points="141.259,7.365 182.135,87.657 96.934,128.688 26.174,121.343 12.658,28.145 	"/>
	<path fill="#FFFFFF" d="M70.292,104.084c0,1.229,0.691,2.011,1.687,2.011c0.63,0,1.219-0.346,1.514-0.904v-2.133
		c-0.295-0.579-0.884-0.944-1.535-0.955c-0.975,0-1.667,0.783-1.667,2.021V104.084z M73.646,101.169l0.112-0.854h1.961v7.517h-1.951
		l-0.112-0.823c-0.528,0.66-1.352,1.026-2.205,0.976c-2.002,0-3.354-1.646-3.354-3.9c0-2.266,1.352-3.911,3.354-3.911
		C72.304,100.123,73.127,100.488,73.646,101.169z"/>
	<path fill="#FFFFFF" d="M83.431,102.378h-0.172c-0.752,0-1.453,0.365-1.88,0.984v4.51h-2.134v-7.516h1.941l0.142,0.995
		c0.458-0.741,1.281-1.179,2.154-1.147L83.431,102.378z"/>
	<path fill="#FFFFFF" d="M89.112,100.357h2.144v1.838h-2.144v2.844c-0.041,0.529,0.355,0.986,0.874,1.026h0.152
		c0.335,0.011,0.67-0.061,0.965-0.214l0.549,1.728c-0.519,0.315-1.118,0.468-1.728,0.457c-1.504,0.152-2.846-0.935-3.008-2.428
		c-0.021-0.173-0.021-0.345,0-0.519v-2.885h-1.352v-1.838h1.352v-2.488h2.185v2.479H89.112z"/>
	<path fill="#FFFFFF" d="M96.378,107.873h-2.205v-7.516h2.185L96.378,107.873z M96.571,97.98c0.01,0.711-0.56,1.289-1.28,1.3
		C94.579,99.29,94,98.71,93.99,98c-0.011-0.711,0.568-1.29,1.28-1.3h0.051c0.681-0.011,1.239,0.528,1.25,1.208V97.98z"/>
	<path fill="#FFFFFF" d="M101.479,103.993c-0.122,0.935,0.538,1.798,1.474,1.92l0.203,0.011c0.65,0,1.25-0.366,1.564-0.945v-1.93
		c-0.305-0.579-0.904-0.945-1.564-0.955c-0.945,0.01-1.708,0.782-1.688,1.727l0.011,0.203V103.993z M104.833,101.169l0.102-0.854
		h1.961v7.212c0.102,2.042-1.483,3.789-3.526,3.88c-0.183,0.011-0.365,0-0.549-0.01c-1.412,0.061-2.784-0.538-3.699-1.615
		l1.423-1.422c0.539,0.721,1.393,1.147,2.297,1.147c1.006,0.062,1.87-0.711,1.931-1.716v-0.214v-0.549
		c-0.528,0.579-1.301,0.894-2.094,0.843c-2.001,0-3.353-1.614-3.353-3.829c0-2.214,1.352-3.819,3.353-3.819
		C103.512,100.164,104.314,100.529,104.833,101.169z"/>
	<path fill="#FFFFFF" d="M117.413,103.546v4.326h-2.185v-4.215c0.091-0.681-0.396-1.311-1.078-1.402l-0.162-0.01
		c-0.6,0.021-1.138,0.365-1.423,0.895v4.732h-2.185v-7.516h1.961l0.102,0.822c0.509-0.66,1.312-1.025,2.135-0.975
		C116.407,100.205,117.413,101.514,117.413,103.546z"/>
	<polygon fill="#FFFFFF" points="121.915,111.287 119.445,111.287 122.443,105.994 119.445,100.357 121.874,100.357 
		123.581,104.034 125.299,100.357 127.748,100.357 	"/>
	<polygon fill="#FFFFFF" points="56.269,52.34 42.489,52.34 42.489,85.099 33.821,85.099 33.821,52.34 20.123,52.34 20.123,45.026 
		56.269,45.026 	"/>
	<path fill="#FFFFFF" d="M58.271,71.326c0,4.54,2.703,7.374,6.555,7.374c2.479,0.041,4.776-1.29,5.985-3.443v-7.842
		c-1.22-2.153-3.506-3.474-5.985-3.443C60.974,63.92,58.271,66.734,58.271,71.326z M71.268,60.588l0.457-3.108h7.591v27.619h-7.581
		l-0.457-3.058c-1.504,1.961-4.319,3.597-8.526,3.597c-7.764,0-13.007-6.055-13.007-14.354s5.233-14.394,13.007-14.394
		C66.949,56.932,69.764,58.567,71.268,60.588z"/>
	<path fill="#FFFFFF" d="M91.876,71.386c0,4.205,2.876,7.313,6.788,7.313c3.913,0,6.891-3.108,6.891-7.313
		c0-4.206-2.876-7.476-6.891-7.476C94.65,63.91,91.876,67.13,91.876,71.386z M114.08,71.386c0,8.299-6.555,14.292-15.426,14.292
		S83.34,79.685,83.34,71.386s6.453-14.455,15.314-14.455C107.506,56.932,114.08,63.097,114.08,71.386z"/>
	<path fill="#FFFFFF" d="M134.841,53.874h-7.307l-9.897-7.913h9.501L134.841,53.874z M144.443,85.099h-7.591l-0.406-3.007
		c-1.545,2.021-4.258,3.546-8.455,3.546c-6.89,0-10.527-4.744-10.527-12.17V57.399h8.455v15.612c0,2.996,1.615,5.079,4.491,5.079
		c2.307-0.03,4.431-1.28,5.579-3.281V57.48h8.454V85.099z"/>
	<polygon fill="#FFFFFF" points="65.12,107.873 62.823,107.873 62.823,103.282 59.714,108.056 59.602,108.056 56.391,103.292 
		56.391,107.883 54.094,107.883 54.094,96.771 54.145,96.771 59.602,104.47 65.039,96.771 65.089,96.771 	"/>
</g>
</svg>
