<?xml version="1.0" encoding="utf-8"?>
<!-- Generator: Adobe Illustrator 16.0.0, SVG Export Plug-In . SVG Version: 6.00 Build 0)  -->
<!DOCTYPE svg PUBLIC "-//W3C//DTD SVG 1.1//EN" "http://www.w3.org/Graphics/SVG/1.1/DTD/svg11.dtd">
<svg version="1.1" id="Capa_1" xmlns="http://www.w3.org/2000/svg" xmlns:xlink="http://www.w3.org/1999/xlink" x="0px" y="0px"
	 width="300px" height="300px" viewBox="0 0 300 300" enable-background="new 0 0 300 300" xml:space="preserve">
<g>
	<g>
		<path fill="#2BBAAE" d="M299.738,168.75H266.6c-4.925,0-9.763,2-13.25,5.487l-19.512,19.513h65.237
			c0.55-5.875,0.925-12.2,0.925-18.75C300,172.813,299.85,170.813,299.738,168.75z"/>
	</g>
</g>
<g>
	<g>
		<polygon fill="#2BBAAE" points="94.587,168.75 115.425,193.75 184.575,193.75 205.412,168.75 		"/>
	</g>
</g>
<g>
	<g>
		<path fill="#2BBAAE" d="M46.65,174.237c-3.487-3.487-8.324-5.487-13.249-5.487H0.263C0.15,170.813,0,172.813,0,175
			c0,6.551,0.375,12.875,0.925,18.75h65.238L46.65,174.237z"/>
	</g>
</g>
<g>
	<g>
		<path fill="#2BBAAE" d="M212.975,202.388c-0.963-2.337-0.425-5.025,1.35-6.813l30.176-30.175c5.912-5.899,13.75-9.149,22.1-9.149
			h31.774c-3.325-17.375-11.925-29.051-26.737-36.788c-17.225-9.012-55.887-13.212-121.638-13.212
			c-65.75,0-104.412,4.2-121.638,13.212c-14.813,7.737-23.412,19.413-26.737,36.788h31.774c8.351,0,16.188,3.25,22.101,9.149
			l30.175,30.175c1.788,1.788,2.325,4.476,1.35,6.813c-0.975,2.338-3.249,3.862-5.773,3.862H2.475
			c1.763,11.737,3.838,19.8,3.987,20.362c0.725,2.737,3.2,4.638,6.038,4.638h54.774l23.688,11.838
			c0.862,0.438,1.825,0.662,2.787,0.662h112.5c0.963,0,1.925-0.225,2.8-0.662l23.688-11.838H287.5c2.838,0,5.313-1.9,6.037-4.638
			c0.15-0.563,2.226-8.625,3.987-20.362H218.75C216.225,206.25,213.938,204.725,212.975,202.388z M192.3,204
			c-1.188,1.425-2.95,2.25-4.8,2.25h-75c-1.85,0-3.612-0.825-4.8-2.25l-31.25-37.5c-1.563-1.863-1.888-4.463-0.862-6.65
			c1.037-2.199,3.237-3.6,5.662-3.6h137.5c2.426,0,4.625,1.4,5.663,3.6c1.024,2.188,0.7,4.788-0.863,6.65L192.3,204z"/>
	</g>
</g>
<g>
	<g>
		<path fill="#2BBAAE" d="M274.488,122.513c-7.112-16.35-30.912-70.238-39.188-77.275c-10.313-8.763-39.85-13.987-79.05-13.987
			h-12.5c-39.199,0-68.737,5.225-79.05,13.975c-8.275,7.038-32.088,60.925-39.188,77.275c-1.362,3.175,0.087,6.851,3.25,8.225
			c3.15,1.375,6.851-0.063,8.225-3.237C51.1,95,68.364,58.9,72.8,54.763c4.813-4.087,25.175-11.013,70.95-11.013h12.5
			c45.775,0,66.138,6.925,70.925,10.988c4.463,4.163,21.725,40.25,35.838,72.75c1.024,2.362,3.337,3.762,5.737,3.762
			c0.825,0,1.688-0.162,2.487-0.513C274.4,129.363,275.85,125.675,274.488,122.513z"/>
	</g>
</g>
<g>
	<g>
		<path fill="#2BBAAE" d="M81.25,225c-3.237,0-5.8,2.487-6.125,5.637L25,225.625V225c0-3.45-2.8-6.25-6.25-6.25s-6.25,2.8-6.25,6.25
			v25c0,10.338,8.412,18.75,18.75,18.75h37.5c10.337,0,18.75-8.412,18.75-18.75v-18.75C87.5,227.801,84.7,225,81.25,225z"/>
	</g>
</g>
<g>
	<g>
		<path fill="#2BBAAE" d="M281.25,218.75c-3.45,0-6.25,2.8-6.25,6.25v0.625l-50.126,5.013c-0.325-3.149-2.887-5.638-6.124-5.638
			c-3.45,0-6.251,2.801-6.251,6.251v18.75c0,10.337,8.413,18.75,18.75,18.75h37.5c10.338,0,18.75-8.413,18.75-18.75V225
			C287.5,221.55,284.7,218.75,281.25,218.75z"/>
	</g>
</g>
</svg>
