<?xml version="1.0" encoding="utf-8"?>
<!-- Generator: Adobe Illustrator 16.0.0, SVG Export Plug-In . SVG Version: 6.00 Build 0)  -->
<!DOCTYPE svg PUBLIC "-//W3C//DTD SVG 1.1//EN" "http://www.w3.org/Graphics/SVG/1.1/DTD/svg11.dtd">
<svg version="1.1" id="Capa_1" xmlns="http://www.w3.org/2000/svg" xmlns:xlink="http://www.w3.org/1999/xlink" x="0px" y="0px"
	 width="300px" height="300px" viewBox="0 0 300 300" enable-background="new 0 0 300 300" xml:space="preserve">
<g>
	<g>
		<path d="M299.738,168.75H266.6c-4.925,0-9.763,2-13.25,5.486l-19.512,19.514h65.235c0.552-5.875,0.927-12.2,0.927-18.75
			C300,172.813,299.85,170.813,299.738,168.75z"/>
	</g>
</g>
<g>
	<g>
		<polygon points="94.587,168.75 115.425,193.75 184.575,193.75 205.412,168.75 		"/>
	</g>
</g>
<g>
	<g>
		<path d="M46.65,174.236c-3.485-3.486-8.322-5.486-13.249-5.486H0.263C0.15,170.813,0,172.813,0,175
			c0,6.551,0.375,12.875,0.925,18.75h65.238L46.65,174.236z"/>
	</g>
</g>
<g>
	<g>
		<path d="M212.975,202.389c-0.963-2.338-0.425-5.024,1.352-6.813l30.176-30.176c5.912-5.898,13.75-9.148,22.1-9.148h31.773
			c-3.324-17.375-11.924-29.051-26.736-36.788c-17.225-9.012-55.887-13.212-121.638-13.212c-65.75,0-104.412,4.2-121.64,13.212
			C13.549,127.2,4.95,138.876,1.625,156.251h31.772c8.353,0,16.188,3.25,22.103,9.149l30.175,30.175
			c1.788,1.788,2.325,4.476,1.35,6.813c-0.975,2.338-3.249,3.86-5.771,3.86H2.475c1.763,11.735,3.838,19.8,3.987,20.36
			c0.725,2.738,3.2,4.64,6.038,4.64h54.772l23.688,11.838c0.861,0.438,1.825,0.662,2.787,0.662h112.5c0.963,0,1.925-0.226,2.8-0.662
			l23.688-11.838H287.5c2.838,0,5.313-1.899,6.037-4.64c0.148-0.563,2.226-8.625,3.985-20.36H218.75
			C216.225,206.25,213.938,204.725,212.975,202.389z M192.3,204c-1.188,1.425-2.95,2.25-4.8,2.25h-75c-1.852,0-3.612-0.825-4.8-2.25
			l-31.25-37.5c-1.563-1.863-1.89-4.463-0.862-6.65c1.037-2.199,3.237-3.6,5.662-3.6h137.5c2.426,0,4.625,1.4,5.663,3.6
			c1.022,2.188,0.698,4.789-0.863,6.65L192.3,204z"/>
	</g>
</g>
<g>
	<g>
		<path d="M274.488,122.513c-7.11-16.35-30.91-70.238-39.188-77.275c-10.313-8.763-39.85-13.987-79.05-13.987h-12.5
			c-39.199,0-68.737,5.225-79.05,13.975c-8.275,7.038-32.09,60.925-39.188,77.275c-1.362,3.175,0.087,6.851,3.25,8.225
			c3.15,1.375,6.851-0.063,8.225-3.237C51.1,95,68.364,58.9,72.8,54.763c4.813-4.087,25.175-11.013,70.95-11.013h12.5
			c45.773,0,66.138,6.925,70.925,10.988c4.463,4.163,21.725,40.25,35.838,72.75c1.024,2.362,3.337,3.762,5.737,3.762
			c0.825,0,1.688-0.162,2.485-0.513C274.4,129.363,275.85,125.675,274.488,122.513z"/>
	</g>
</g>
<g>
	<g>
		<path d="M81.25,225c-3.237,0-5.8,2.486-6.125,5.637L25,225.625V225c0-3.45-2.8-6.25-6.25-6.25s-6.25,2.8-6.25,6.25v25
			c0,10.338,8.412,18.75,18.75,18.75h37.5c10.337,0,18.75-8.412,18.75-18.75v-18.75C87.5,227.801,84.7,225,81.25,225z"/>
	</g>
</g>
<g>
	<g>
		<path d="M281.25,218.75c-3.45,0-6.25,2.8-6.25,6.25v0.625l-50.126,5.014c-0.325-3.148-2.889-5.639-6.124-5.639
			c-3.45,0-6.251,2.801-6.251,6.251v18.75c0,10.337,8.413,18.75,18.75,18.75h37.5c10.338,0,18.75-8.413,18.75-18.75V225
			C287.5,221.55,284.7,218.75,281.25,218.75z"/>
	</g>
</g>
</svg>
