<?xml version="1.0" encoding="utf-8"?>
<!-- Generator: Adobe Illustrator 16.0.0, SVG Export Plug-In . SVG Version: 6.00 Build 0)  -->
<!DOCTYPE svg PUBLIC "-//W3C//DTD SVG 1.1//EN" "http://www.w3.org/Graphics/SVG/1.1/DTD/svg11.dtd">
<svg version="1.1" id="Capa_1" xmlns="http://www.w3.org/2000/svg" xmlns:xlink="http://www.w3.org/1999/xlink" x="0px" y="0px"
	 width="300px" height="300px" viewBox="0 0 300 300" enable-background="new 0 0 300 300" xml:space="preserve">
<g>
	<g>
		<path fill="#547373" d="M249.814,204.736l-14.425-57.711c-0.45-1.8-1.662-3.3-3.325-4.112c-1.662-0.813-3.6-0.837-5.287-0.087
			c-10.188,4.55-21.337,9.324-33.975,14.412c-5.112,2.063-10.675,4.236-16.537,6.476c-1.875,0.713-3.287,2.287-3.813,4.226
			c-0.514,1.938-0.063,4.013,1.212,5.563l40.262,49.199c1.2,1.5,3,2.299,4.825,2.299c0.95,0,1.899-0.212,2.801-0.662l24.999-12.5
			C249.164,210.523,250.527,207.574,249.814,204.736z"/>
	</g>
</g>
<g>
	<g>
		<path fill="#547373" d="M187.452,80.477c-0.301-2.462-2.024-4.5-4.399-5.212l-124.997-37.5c-2.2-0.663-4.587-0.05-6.225,1.563
			l-25,25c-1.375,1.375-2.037,3.325-1.774,5.25c0.262,1.924,1.399,3.637,3.101,4.6l87.497,49.999
			c0.964,0.55,2.037,0.825,3.102,0.825c1.112,0,2.225-0.3,3.212-0.887l62.499-37.5C186.59,85.339,187.752,82.939,187.452,80.477z"/>
	</g>
</g>
<g>
	<g>
		<path fill="#547373" d="M294.213,62.402c-0.163,0.012-0.301,0.1-0.463,0.1c-22.324,0-46.049,17.35-46.273,17.524
			c-1.125,0.825-2.426,1.225-3.725,1.225c-1.913,0-3.8-0.875-5.025-2.538c-2.063-2.775-1.475-6.675,1.3-8.737
			c0.825-0.612,15.788-11.587,34.426-17c-7.726-1.825-17.713-2.975-30.699-2.975c-35.337,0-75.911,18.537-77.611,19.324
			c-3.125,1.45-4.5,5.163-3.063,8.3c0.1,0.212,0.287,0.35,0.399,0.55l-51.937,31.149c-1.662-2.763-5.15-3.888-8.088-2.413
			l-9.612,4.8l21.813,12.462c1.938,1.1,4.426,1.075,6.313-0.063l62.499-37.499c2.975-1.788,6.799-0.813,8.574,2.138
			c1.774,2.962,0.813,6.799-2.138,8.575l-62.499,37.5c-2.899,1.75-6.25,2.675-9.648,2.675c-3.251,0-6.477-0.851-9.3-2.475
			l-29.037-16.587l-11.662,5.825l-47.2-23.6c-2.425-1.2-5.313-0.737-7.225,1.163l-12.5,12.5c-2.101,2.1-2.438,5.412-0.787,7.887
			l21.187,31.774C0.006,166.412,0.006,172.563,0.006,175c0,11.262,16.013,12.5,49.999,12.5C83.28,187.5,300,114.313,300,75.002
			C300,71.865,298.988,67.015,294.213,62.402z"/>
	</g>
</g>
<g>
	<g>
		<path fill="#547373" d="M143.753,249.998H6.256c-3.449,0-6.25,2.801-6.25,6.25c0,3.45,2.801,6.25,6.25,6.25h137.498
			c3.449,0,6.25-2.8,6.25-6.25C150.003,252.799,147.203,249.998,143.753,249.998z"/>
	</g>
</g>
</svg>
