<?xml version="1.0" encoding="utf-8"?>
<!-- Generator: Adobe Illustrator 16.0.0, SVG Export Plug-In . SVG Version: 6.00 Build 0)  -->
<!DOCTYPE svg PUBLIC "-//W3C//DTD SVG 1.1//EN" "http://www.w3.org/Graphics/SVG/1.1/DTD/svg11.dtd">
<svg version="1.1" id="Capa_1" xmlns="http://www.w3.org/2000/svg" xmlns:xlink="http://www.w3.org/1999/xlink" x="0px" y="0px"
	 width="300px" height="300px" viewBox="0 0 300 300" enable-background="new 0 0 300 300" xml:space="preserve">
<g>
	<g>
		<path fill="#547373" d="M103.912,226.375c-2.688-2.148-6.612-1.699-8.787,0.975l-50,62.5c-2.15,2.7-1.713,6.625,0.975,8.787
			C47.25,299.549,48.638,300,50,300c1.825,0,3.648-0.801,4.887-2.338l50-62.5C107.037,232.463,106.6,228.537,103.912,226.375z"/>
	</g>
</g>
<g>
	<g>
		<path fill="#547373" d="M254.875,289.838l-50-62.5c-2.149-2.676-6.087-3.139-8.787-0.977c-2.688,2.164-3.125,6.088-0.976,8.787
			l49.999,62.502c1.238,1.549,3.051,2.35,4.889,2.35c1.375,0,2.75-0.45,3.899-1.375
			C256.587,296.463,257.025,292.537,254.875,289.838z"/>
	</g>
</g>
<g>
	<g>
		<path fill="#547373" d="M237.5,275h-175c-3.45,0-6.25,2.8-6.25,6.25s2.8,6.25,6.25,6.25h175c3.45,0,6.25-2.8,6.25-6.25
			S240.949,275,237.5,275z"/>
	</g>
</g>
<g>
	<g>
		<path fill="#547373" d="M218.75,250H81.25c-3.45,0-6.25,2.801-6.25,6.25c0,3.45,2.8,6.25,6.25,6.25h137.5
			c3.45,0,6.25-2.8,6.25-6.25S222.199,250,218.75,250z"/>
	</g>
</g>
<g>
	<g>
		<circle fill="#547373" cx="87.5" cy="193.75" r="6.25"/>
	</g>
</g>
<g>
	<g>
		<path fill="#547373" d="M245.7,41.313C244.425,18.15,225.238,0,202.025,0H97.975C74.763,0,55.575,18.15,54.3,41.325l-3.987,71.737
			c36.15,4.813,85.024,46.512,99.688,59.713c14.662-13.201,63.537-54.9,99.688-59.727L245.7,41.313z M143.75,100
			c0,3.188-2.389,5.862-5.563,6.213l-56.25,6.25c-0.226,0.025-0.45,0.038-0.688,0.038c-1.537,0-3.014-0.563-4.162-1.587
			c-1.325-1.188-2.088-2.887-2.088-4.662v-43.75c0-3.188,2.388-5.862,5.563-6.213l56.25-6.25c1.774-0.188,3.537,0.362,4.862,1.563
			c1.313,1.175,2.075,2.875,2.075,4.65L143.75,100L143.75,100z M131.25,31.25c0-10.338,8.412-18.75,18.75-18.75
			s18.75,8.412,18.75,18.75C168.75,41.587,160.338,50,150,50S131.25,41.587,131.25,31.25z M225,106.25
			c0,1.774-0.764,3.475-2.088,4.662c-1.15,1.025-2.625,1.587-4.162,1.587c-0.237,0-0.463-0.012-0.688-0.038l-56.25-6.25
			c-3.176-0.35-5.563-3.025-5.563-6.213V56.25c0-1.775,0.763-3.475,2.088-4.662c1.324-1.188,3.087-1.737,4.862-1.563l56.237,6.263
			c3.175,0.35,5.563,3.025,5.563,6.212L225,106.25L225,106.25z"/>
	</g>
</g>
<g>
	<g>
		<circle fill="#547373" cx="212.5" cy="193.75" r="6.25"/>
	</g>
</g>
<g>
	<g>
		<circle fill="#547373" cx="150" cy="31.25" r="6.25"/>
	</g>
</g>
<g>
	<g>
		<path fill="#547373" d="M254.763,204.514l-4.388-78.976c-37.639,5.487-95.476,59.675-96.087,60.25
			c-0.363,0.351-0.813,0.537-1.238,0.787c-0.25,0.138-0.449,0.351-0.712,0.45c-0.75,0.313-1.538,0.475-2.338,0.475
			s-1.601-0.162-2.351-0.475c-0.25-0.101-0.449-0.301-0.699-0.438c-0.426-0.237-0.875-0.438-1.25-0.787
			c-0.612-0.575-58.438-54.763-96.088-60.251l-4.388,78.977c-0.487,8.662,2.537,16.912,8.5,23.211
			c5.963,6.289,14.025,9.764,22.7,9.764h147.138c8.675,0,16.737-3.477,22.699-9.775C252.226,221.425,255.25,213.176,254.763,204.514
			z M87.5,212.5c-10.338,0-18.75-8.412-18.75-18.75S77.162,175,87.5,175c10.337,0,18.75,8.412,18.75,18.75S97.837,212.5,87.5,212.5z
			 M212.5,212.5c-10.338,0-18.75-8.412-18.75-18.75S202.162,175,212.5,175s18.75,8.412,18.75,18.75S222.837,212.5,212.5,212.5z"/>
	</g>
</g>
</svg>
