<?xml version="1.0" encoding="utf-8"?>
<!-- Generator: Adobe Illustrator 16.0.0, SVG Export Plug-In . SVG Version: 6.00 Build 0)  -->
<!DOCTYPE svg PUBLIC "-//W3C//DTD SVG 1.1//EN" "http://www.w3.org/Graphics/SVG/1.1/DTD/svg11.dtd">
<svg version="1.1" id="Capa_1" xmlns="http://www.w3.org/2000/svg" xmlns:xlink="http://www.w3.org/1999/xlink" x="0px" y="0px"
	 width="161.215px" height="300px" viewBox="69.394 0 161.215 300" enable-background="new 69.394 0 161.215 300"
	 xml:space="preserve">
<g>
	<g>
		<circle cx="143.247" cy="28.804" r="28.804"/>
		<path d="M222.506,128.883c-23.721-13.731-43.185-32.278-59.566-54.098c-10.295-14.477-37.512-13.722-48.57-0.455
			c-16.824,16.369-31.102,33.24-42.424,50.121c-4.629,6.915-2.787,16.271,4.121,20.899c2.577,1.728,5.483,2.554,8.37,2.554
			c4.854,0,9.623-2.342,12.524-6.68c4.972-7.403,10.607-14.83,16.853-22.223c-0.237,15.646,0.545,43.878,0.938,56.565
			c0.132,4.227-0.83,8.355-2.793,12.105c-15.528,29.654-25.462,57.713-35.545,92.037c-2.472,8.379,2.333,17.172,10.708,19.639
			c1.896,0.559,3.812,0.744,5.661,0.604c6.375-0.488,12.071-4.83,13.979-11.318c9.304-31.646,18.294-57.273,32.315-84.406
			c0.714,0.025,1.428,0.025,2.148-0.006c8.952,26.711,17.909,53.437,26.875,80.146c6.511,19.469,36.719,9.354,30.189-10.115
			c-9.798-29.203-19.58-58.394-29.347-87.592c-0.566-1.677-1.941-8.238-2.136-10.38c-1.615-17.987-2.202-35.92-2.026-53.876
			c13.743,13.167,28.985,24.589,45.92,34.4C227.59,166.605,239.166,138.539,222.506,128.883z"/>
	</g>
</g>
</svg>
