<?xml version="1.0" encoding="utf-8"?>
<!-- Generator: Adobe Illustrator 16.0.0, SVG Export Plug-In . SVG Version: 6.00 Build 0)  -->
<!DOCTYPE svg PUBLIC "-//W3C//DTD SVG 1.1//EN" "http://www.w3.org/Graphics/SVG/1.1/DTD/svg11.dtd">
<svg version="1.1" id="Capa_1" xmlns="http://www.w3.org/2000/svg" xmlns:xlink="http://www.w3.org/1999/xlink" x="0px" y="0px"
	 width="300px" height="300px" viewBox="0 0 300 300" enable-background="new 0 0 300 300" xml:space="preserve">
<g>
	<g>
		<circle fill="#2BBAAE" cx="143.247" cy="28.804" r="28.804"/>
		<path fill="#2BBAAE" d="M222.506,128.883c-23.721-13.731-43.183-32.278-59.566-54.098c-10.295-14.477-37.512-13.722-48.572-0.455
			c-16.824,16.369-31.1,33.24-42.422,50.121c-4.629,6.915-2.789,16.271,4.121,20.899c2.577,1.728,5.483,2.554,8.37,2.554
			c4.854,0,9.623-2.342,12.524-6.68c4.972-7.403,10.609-14.83,16.853-22.223c-0.239,15.646,0.545,43.878,0.938,56.566
			c0.132,4.226-0.83,8.356-2.793,12.106c-15.528,29.654-25.462,57.713-35.545,92.037c-2.47,8.379,2.333,17.172,10.708,19.637
			c1.896,0.559,3.812,0.746,5.661,0.605c6.375-0.488,12.073-4.83,13.979-11.318c9.304-31.648,18.294-57.275,32.315-84.408
			c0.714,0.027,1.428,0.027,2.15-0.005c8.952,26.711,17.909,53.436,26.875,80.146c6.511,19.469,36.719,9.356,30.189-10.115
			c-9.798-29.203-19.58-58.393-29.345-87.592c-0.568-1.676-1.943-8.238-2.136-10.379c-1.615-17.988-2.202-35.921-2.028-53.877
			c13.745,13.167,28.987,24.589,45.92,34.4C227.59,166.605,239.166,138.539,222.506,128.883z"/>
	</g>
</g>
</svg>
