<?xml version="1.0" encoding="utf-8"?>
<!-- Generator: Adobe Illustrator 16.0.0, SVG Export Plug-In . SVG Version: 6.00 Build 0)  -->
<!DOCTYPE svg PUBLIC "-//W3C//DTD SVG 1.1//EN" "http://www.w3.org/Graphics/SVG/1.1/DTD/svg11.dtd">
<svg version="1.1" id="Capa_1" xmlns="http://www.w3.org/2000/svg" xmlns:xlink="http://www.w3.org/1999/xlink" x="0px" y="0px"
	 width="300px" height="300px" viewBox="0 0 300 300" enable-background="new 0 0 300 300" xml:space="preserve">
<g>
	<g>
		<circle fill="#547373" cx="143.247" cy="28.804" r="28.804"/>
		<path fill="#547373" d="M222.506,128.883c-23.721-13.731-43.184-32.278-59.566-54.098c-10.295-14.477-37.512-13.722-48.571-0.455
			c-16.824,16.369-31.101,33.24-42.423,50.121c-4.629,6.915-2.788,16.271,4.121,20.899c2.577,1.728,5.483,2.554,8.37,2.554
			c4.854,0,9.623-2.342,12.524-6.68c4.972-7.403,10.608-14.83,16.853-22.223c-0.238,15.646,0.545,43.878,0.938,56.565
			c0.132,4.227-0.83,8.356-2.793,12.106c-15.528,29.654-25.462,57.713-35.545,92.037c-2.471,8.379,2.333,17.172,10.708,19.638
			c1.896,0.559,3.812,0.745,5.661,0.604c6.375-0.488,12.072-4.83,13.979-11.318c9.304-31.647,18.294-57.274,32.315-84.407
			c0.714,0.026,1.428,0.026,2.149-0.006c8.952,26.711,17.909,53.437,26.875,80.146c6.511,19.469,36.719,9.355,30.189-10.115
			c-9.798-29.203-19.58-58.393-29.346-87.592c-0.567-1.676-1.942-8.238-2.136-10.379c-1.615-17.988-2.202-35.921-2.027-53.877
			c13.744,13.167,28.986,24.589,45.92,34.4C227.59,166.605,239.166,138.539,222.506,128.883z"/>
	</g>
</g>
</svg>
