<?xml version="1.0" encoding="utf-8"?>
<!-- Generator: Adobe Illustrator 16.0.0, SVG Export Plug-In . SVG Version: 6.00 Build 0)  -->
<!DOCTYPE svg PUBLIC "-//W3C//DTD SVG 1.1//EN" "http://www.w3.org/Graphics/SVG/1.1/DTD/svg11.dtd">
<svg version="1.1" id="Layer_1" xmlns="http://www.w3.org/2000/svg" xmlns:xlink="http://www.w3.org/1999/xlink" x="0px" y="0px"
	 width="186px" height="61.5px" viewBox="0 0 186 61.5" enable-background="new 0 0 186 61.5" xml:space="preserve">
<g>
	<path fill="#003662" d="M82.3,25.6H70.1V28.4h0.4l0,0c0.1-0.4,0.8-1.2,1.7-1.2c0,0,2.6,0,2.7,0c0,0.1,0,14.3,0,14.3h2.7
		c0,0,0-14.2,0-14.3c0.1,0,2.8,0,2.8,0c0.9,0,1.5,0.5,1.6,1v0.1h0.4L82.3,25.6L82.3,25.6L82.3,25.6z"/>
	<path fill="#003662" d="M2.8,24.7L2.8,24.7L2.8,24.7C1,26.5,0,29.1,0,31.6c0,2.9,1.2,5.5,3.2,7.301c2,1.8,4.7,2.8,7.5,2.8
		c1.5,0,4.4-0.3,7.3-2l0.1-0.101l0.3-4l-0.5-0.1l-0.1,0.2C15.7,40,12.5,40,11.2,40c-5.5,0-8-4.6-8-8.8c0-4.101,2.5-8.3,8-8.3
		c1.7,0,4.8,0.6,6.4,4.3l0.1,0.2l0.5-0.2L18,23.1L17.9,23c-2.6-1.1-4.7-1.6-6.8-1.6C7.7,21.5,4.8,22.6,2.8,24.7z"/>
	<path fill="#003662" d="M21.1,25.6L21.1,25.6L21,26l0,0c0.2,0.1,0.5,0.7,0.5,1.4v14h2.6c0,0,0-7.101,0-7.2c0.1,0,1.1,0,1.1,0
		c1,0.1,1.4,0.7,2,1.6l0.1,0.101l0.3,0.6c0.6,0.9,1.3,2.2,2.1,3.4c0.6,0.899,1.3,1.3,2.2,1.5c0.6,0.1,1.9,0.1,2.4-0.101l0.6-0.1
		l0.2-0.101L34.3,40.9C34,40.8,33.5,40.6,32.8,39.8c-0.4-0.5-1.1-1.6-2.1-3.2l-1-1.6l0,0c-0.3-0.4-0.7-1-1.5-1.5
		c1.5-0.5,2.9-1.8,2.9-3.8C31.1,29.1,31,28,30,27.1C29,26.2,27.5,25.7,25.4,25.7L21.1,25.6L21.1,25.6z M25.6,27.1
		c2.7,0.101,2.8,2.4,2.8,2.7c0,2.3-1.7,3.101-3.1,3.101c0,0-0.9,0-1.1,0c0-0.101,0-5.601,0-5.7C24.5,27.1,25,27,25.6,27.1z"/>
	<path fill="#003662" d="M48,25.6L48,25.6V26l0,0c0.2,0.1,0.4,0.7,0.4,1.2v14.2h4.5c3,0,5.4-0.9,7.1-2.7c1.4-1.5,2.2-3.4,2.2-5.5
		c0-1.2-0.4-3.101-1.6-4.601c-1.6-2-4-3.1-7.3-3.1L48,25.6L48,25.6z M51.1,27.2c0.1,0,1.4,0,1.4,0c0.4,0,1.3,0,2,0.1
		c4.4,0.7,4.9,4.4,4.9,6c0,1.3-0.2,3.101-1.3,4.601C57,39.3,55.3,40,53,40c-0.5,0-1.2,0-1.9,0C51.1,39.8,51.1,27.3,51.1,27.2z"/>
	<path fill="#003662" d="M67.7,25.6h-3.1V26l0,0c0.3,0.1,0.5,0.7,0.5,1.3V41.4h2.6V25.6L67.7,25.6L67.7,25.6z"/>
	<path fill="#003662" d="M120.7,25.6H117.6V26l0,0c0.301,0.1,0.5,0.7,0.5,1.3V41.4h2.601V25.6L120.7,25.6L120.7,25.6z"/>
	<path fill="#003662" d="M44.6,25.6h-8.8l0.1,0.4l0,0c0.2,0.1,0.5,0.7,0.5,1.4v14h8.8l0.6-2.801l-0.4-0.1l-0.1,0.2
		c-0.7,1.1-1.5,1.3-4,1.3c-0.9,0-1.8-0.1-2.4-0.1c0-0.101,0-6.301,0-6.4c0.1,0,4.5,0,4.5,0V32c0,0-4.3,0-4.5,0c0-0.1,0-4.8,0-4.9
		c0.1,0,3.6,0,3.6,0c0.8,0,1.7,0.801,1.8,1.301v0.1h0.4L44.6,25.6L44.6,25.6L44.6,25.6z"/>
	<path fill="#003662" d="M157.4,25.6H148.6V26l0,0c0.2,0.1,0.5,0.6,0.5,1.4v14h8.801l0.6-2.801l-0.4-0.1l-0.1,0.2
		c-0.7,1.1-1.5,1.3-4,1.3c-0.9,0-1.8-0.1-2.4-0.1c0-0.101,0-6.301,0-6.4c0.101,0,4.5,0,4.5,0V32c0,0-4.3,0-4.5,0c0-0.1,0-4.8,0-4.9
		c0.101,0,3.601,0,3.601,0c1,0,1.7,0.801,1.7,1.301v0.1h0.399L157.4,25.6L157.4,25.6L157.4,25.6z"/>
	<path fill="#003662" d="M90,22.7c-0.9,0.7-2,1.899-2.1,4c0,0,0,0,0,0.1c0,2.5,1.6,3.9,4.2,5.2l0,0c0.1,0.1,0.3,0.2,1,0.5
		c2.2,1.1,3.7,1.9,3.7,4.1c0,0.801-0.3,1.9-1.1,2.7c-0.7,0.7-1.601,1-2.7,1c-3.3,0-4.5-2.899-4.8-4.2L88.1,35.9L87.5,36l0.2,4.1
		L88,40c1.1,0.6,2.8,1.6,5.4,1.7c1.8,0,3.6-0.7,4.9-2c1.101-1.101,1.7-2.5,1.7-4c0-3.3-2.4-4.601-4.9-5.9l-0.5-0.3
		c-2.6-1.3-3.8-2.1-3.8-3.7c0-1.1,0.9-2.899,3.101-2.899c2.6,0,4,2,4.3,3.199l0.1,0.2l0.601-0.1L98.7,22.6L98.6,22.5
		c-1.5-1-3.399-1.2-4.199-1.2C92.6,21.4,91.1,21.9,90,22.7z"/>
	<path fill="#003662" d="M125,29.6L125,29.6c0,2.2,1.3,3.301,3.4,4.4l0.8,0.4c1.7,0.8,2.8,1.399,2.8,3c0,0.3-0.1,1.199-0.8,2
		c-0.5,0.5-1.2,0.8-2.101,0.699c-2.5,0-3.399-2-3.8-3.1l-0.1-0.2l-0.5,0.101l0.1,3.3l0.101,0.1c0.8,0.5,2.199,1.3,4.3,1.3
		c1.399,0,2.899-0.6,3.899-1.6c0.9-0.9,1.301-2,1.301-3.2c0-2.8-1.9-3.8-3.9-4.8l-0.4-0.2c-2.199-1.1-2.899-1.6-2.899-2.8
		c0-0.9,0.6-2.1,2.399-2.1c2.101,0,3,1.6,3.2,2.399l0.101,0.2l0.5-0.1l-0.2-2.9l-0.101-0.1c-1.199-0.801-2.699-0.9-3.3-0.9
		C127.5,25.5,125,26.9,125,29.6z"/>
	<path fill="#003662" d="M136.8,29.6c0,2.2,1.3,3.301,3.4,4.4l0.8,0.4c1.7,0.8,2.8,1.399,2.8,3c0,0.3-0.1,1.199-0.8,2
		c-0.5,0.5-1.2,0.8-2.1,0.699c-2.5,0-3.4-2-3.801-3.1l-0.1-0.2l-0.5,0.101l0.1,3.3l0.101,0.1c0.8,0.5,2.2,1.3,4.3,1.3
		c1.4,0,2.9-0.6,3.9-1.6c0.899-0.9,1.3-2,1.3-3.2c0-2.8-1.9-3.8-3.9-4.8l-0.399-0.2c-2.2-1.1-2.9-1.6-2.9-2.8c0-0.5,0.2-1.1,0.6-1.5
		c0.4-0.4,1-0.6,1.7-0.6c2.101,0,3,1.6,3.2,2.399l0.1,0.2l0.5-0.1l-0.199-2.9l-0.101-0.1c-1.2-0.801-2.7-0.9-3.3-0.9
		C139.4,25.5,136.8,26.9,136.8,29.6z"/>
	<path fill="#003662" d="M114.2,25.6H112.1V26l0,0c0.101,0.1,0.4,0.3,0.4,1.3v9c0,1.7-0.6,3.8-3.7,3.8c-2.899,0-3.5-1.699-3.5-4.3
		V25.6H102V26l0,0c0.2,0.1,0.6,0.5,0.6,1.4V35.8c0,5.2,3.4,5.8,6,5.8c1.301,0,5.4-0.399,5.4-5.3L114.2,25.6L114.2,25.6z"/>
	<g>
		<path fill="#003662" d="M180.1,21.1c1.9,0.6,3.801,1.4,5.9,2.6c-5.1-8.4-14.1-17.5-23-23.4c2.3,2.3,6,7.3,7,12.6
			C173.6,15.5,177,18.3,180.1,21.1z"/>
		<path fill="#003662" d="M180.1,21.1c-4.399-1.4-8.1-1.5-10.8-1.2c1-2.3,1.101-4.7,0.7-7c-6.7-4.8-14.2-9-21.3-12.1
			c5.2,3.5,11,13.8,13.399,24.8c5.2-1.5,13.101-2.6,23.4,0.9C183.8,24.7,182,22.9,180.1,21.1z"/>
		<path fill="none" d="M169.9,12.9c0.399,2.3,0.3,4.7-0.601,7c2.8-0.3,6.5-0.2,10.8,1.2C177,18.3,173.6,15.5,169.9,12.9z"/>
	</g>
</g>
</svg>
