<?xml version="1.0" encoding="utf-8"?>
<!-- Generator: Adobe Illustrator 17.1.0, SVG Export Plug-In . SVG Version: 6.00 Build 0)  -->
<!DOCTYPE svg PUBLIC "-//W3C//DTD SVG 1.1//EN" "http://www.w3.org/Graphics/SVG/1.1/DTD/svg11.dtd">
<svg version="1.1" id="Calque_1" xmlns="http://www.w3.org/2000/svg" xmlns:xlink="http://www.w3.org/1999/xlink" x="0px" y="0px"
	 viewBox="0 494.8 841.9 126.9" enable-background="new 0 494.8 841.9 126.9" xml:space="preserve">
<g>
	<path fill="#D50032" d="M33,514.5c-8,0-17.3,3.9-21.6,11.3l-0.9-9.4H0v102.8h12.1V580c3.8,6.5,13.2,10.3,20.9,10.3
		c8.4,0,15.1-2.9,19.8-7.2c7.2-7,10.9-18.3,10.9-30.8c0-12-3.6-22.9-10.4-29.9C48.8,517.4,41.9,514.5,33,514.5z M31,579.8
		c-5.3,0-8.9-2.1-11.6-4.6c-6-5.3-8-14-8-22.9c0-8.9,2.1-17.6,8-22.9c2.9-2.6,6.3-4.6,11.6-4.6c16.1,0,20.4,14.4,20.4,27.5
		S47,579.8,31,579.8z"/>
	<path fill="#D50032" d="M137.2,574v-34.9c0-4.1-0.7-7.9-2.1-11.1c-3.4-7.9-11.5-13.9-25.3-13.9c-8.9,0-17.5,2.6-22.2,7.7
		c-3.8,3.8-6.2,8.6-6.3,15.1h11.8c0-3.6,1.2-6.3,3.6-8.7c2.4-2.4,6.5-4.3,13.2-4.3c5.8,0,9.4,1.4,11.8,3.8c3.3,2.9,3.8,7.4,3.8,10.9
		v5.3l-21.9,1.2c-19.7,1.2-25.7,13.2-25.7,22.4c0,11.1,8.2,22.2,24.8,22.2c10.1,0,19.2-4.6,23.3-11.8h0.3c0,6.2,3.9,10.9,10.4,10.9
		c2.9,0,5.5-0.5,8-1.7v-8.9c0,0-1.9,0.3-3.1,0.3C138.7,579,137.2,577.9,137.2,574z M125.2,557.7c0,6-1.9,12-6.2,16.4
		c-3.8,3.9-9.2,5.8-14.7,5.8c-10.3,0-14.2-6-14.2-12.3c0-9.1,8.6-12.5,15.7-13l19.3-1.2L125.2,557.7L125.2,557.7z"/>
	<path fill="#D50032" d="M268.1,547.3c-7.7-1.4-13.3-1.9-17.3-2.4c-6-0.9-9.8-3.4-9.8-9.4c0-3.9,2.7-7.9,7.2-9.8
		c3.4-1.4,5.5-1.4,8.4-1.4c4.8,0,8.9,1.2,11.8,3.8c2.2,1.9,3.9,5.3,4.1,8.9h12.1c0-5.8-2.1-9.9-5.1-13.9c-4.8-6.2-13.3-9.1-22.9-9.1
		c-8.9,0-16.6,3.1-21.2,8c-3.3,3.3-6,8.6-6,14c0,10.9,6.8,17.6,17.6,19.3l16.3,2.1c7.4,1,11.3,4.8,11.3,10.3c0,3.3-1.5,6.3-3.6,7.9
		c-3.8,3.1-8.2,3.9-13.2,3.9c-4.6,0-9.8-0.9-13-3.3c-3.4-2.6-5.6-6.3-5.8-11.3h-12.1c0,6.2,2.6,12.3,7,16.6c6.2,6,14.4,8,23.3,8
		c9.4,0,18-2.4,23.4-8c3.4-3.6,5.6-8.4,5.6-14.7C286.4,556.4,278.3,549,268.1,547.3z"/>
	<path fill="#D50032" d="M417.3,577.2c0,0-9.6,0.2-14.2,0c-4.6-0.2-11.3-0.9-10.8-7.2c0.3-3.4,3.4-5.5,6.2-6.3
		c4.6,1.5,7.2,2.1,12.1,2.1c9.6,0,16.8-3.4,21.6-8.6c3.9-4.4,6.5-10.4,6.5-17.3c0-6.3-1.7-11.1-4.6-14.9c0.7-3.9,4.1-6.5,8.9-6.5
		c1,0,2.1,0,2.7,0.2V509c-1.2-0.2-2.4-0.3-3.6-0.3c-6.8,0-12.3,3.8-14.9,10.1c-4.4-2.7-9.8-4.3-16.6-4.3c-9.6,0-16.4,2.9-21.4,8
		c-4.1,4.3-6.8,9.8-6.8,17.5c0,6.8,2.9,14,8.2,18.6c-5.5,2.6-9.6,7.5-9.6,14c0,2.4,0.7,4.4,1.7,6.3h-19.2c-2.4,0-3.9-1-3.9-4.8
		v-34.9c0-4.1-0.7-7.9-2.1-11.1c-3.4-7.9-11.5-13.9-25.3-13.9c-8.9,0-17.5,2.6-22.2,7.7c-3.8,3.8-6.2,8.6-6.3,15.1h11.8
		c0-3.6,1.2-6.3,3.6-8.7c2.4-2.4,6.5-4.3,13.2-4.3c5.8,0,9.4,1.4,11.8,3.8c3.3,2.9,3.8,7.4,3.8,10.9v5.3l-21.9,1.2
		c-19.7,1.2-25.7,13.2-25.7,22.4c0,11.1,8.2,22.2,24.8,22.2c10.1,0,19.2-4.6,23.3-11.8h0.3c0,6.2,3.9,10.9,10.4,10.9l0,0l0,0l0,0
		l0,0h24.6c-2.6,2.9-4.3,6.8-4.3,11.5c0,5.6,2.1,9.8,5.1,12.8c7,7,17.8,8.4,27.4,8.4c10.1,0,22.1-1.5,29.1-8.4
		c3.4-3.4,6.2-8.2,6.2-14.5c0-6-2.2-10.6-5.6-14C435.4,579,425.8,577.2,417.3,577.2z M410.4,524c10.3,0,16.4,6.7,16.4,15.7
		c0,9.1-6.5,16.1-16.4,16.1c-10.3,0-16.4-7-16.4-16.1C394,530.7,400.5,524,410.4,524z M347.8,557.7c0,6-1.9,12-6.2,16.4
		c-3.8,3.9-9.2,5.8-14.9,5.8c-10.3,0-14.2-6-14.2-12.3c0-9.1,8.6-12.5,15.7-13l19.3-1.2v4.3H347.8z M432,606.2
		c-4.6,4.6-13.5,5.1-19.7,5.1c-6.3,0-14.5-0.3-19.2-5c-1.9-1.9-2.9-4.3-2.9-7.5c0-5.5,4.3-9.8,9.1-11.5h13.2
		c9.1,0,22.6-0.9,22.6,11.5C435.1,601.9,433.9,604.3,432,606.2z"/>
	<path fill="#D50032" d="M488.4,514.3c-12.5,0-22.1,6.3-27.2,15.1c-3.9,6.7-5.5,14.4-5.5,23.1c0,10.3,2.9,19.8,8.9,26.7
		c5.5,6.5,13.9,10.8,24,10.8c6.8,0,13.2-2.1,18.3-5.5c5.8-3.9,10.1-10.6,11.1-17.8h-11.8c-1,3.8-2.2,5.8-4.3,7.9
		c-2.9,3.1-7.7,4.6-13.3,4.6c-5.5,0-9.9-1.9-13.2-5.1c-4.4-4.4-7-11.5-7-18.1h51l0.2-7.2c0.2-9.8-3.3-19-9.1-25.3
		C505.2,517.9,497.8,514.3,488.4,514.3z M468.8,545.8c0.3-10.6,6.7-21.2,19.8-21.2c6.3,0,11.3,2.6,14.2,6.5
		c2.9,3.8,4.4,9.2,4.4,14.7H468.8z"/>
	<path fill="#D50032" d="M574.1,547.3c-7.7-1.4-13.3-1.9-17.3-2.4c-6-0.9-9.8-3.4-9.8-9.4c0-3.9,2.7-7.9,7.2-9.8
		c3.4-1.4,5.5-1.4,8.4-1.4c4.8,0,8.9,1.2,11.8,3.8c2.2,1.9,3.9,5.3,4.1,8.9h12.1c0-5.8-2.1-9.9-5.1-13.9c-4.8-6.2-13.3-9.1-22.9-9.1
		c-8.9,0-16.6,3.1-21.2,8c-3.3,3.3-6,8.6-6,14c0,10.9,6.8,17.6,17.6,19.3l16.3,2.1c7.4,1,11.3,4.8,11.3,10.3c0,3.3-1.5,6.3-3.6,7.9
		c-3.8,3.1-8.2,3.9-13.2,3.9c-4.6,0-9.8-0.9-13-3.3c-3.4-2.6-5.6-6.3-5.8-11.3h-12.1c0,6.2,2.6,12.3,7,16.6c6.2,6,14.4,8,23.3,8
		c9.4,0,18-2.4,23.4-8c3.4-3.6,5.6-8.4,5.6-14.7C592.6,556.4,584.4,549,574.1,547.3z"/>
	<path fill="#D50032" d="M627.9,568.2v-41.7V516v-21.2l-12.1,2.9V516h-14v10.4h14v43.1c0,9.8,4.3,19.5,19.8,19.5
		c6.7,0,11.1-1.2,14.4-2.1v-10.4c0,0-7.2,1.2-12.3,1.2C630.8,578.1,627.9,575.2,627.9,568.2z"/>
	<rect x="666.7" y="516.2" fill="#D50032" width="12.3" height="72"/>
	<path fill="#D50032" d="M731.4,514.3c-9.1,0-16.6,3.3-21.7,8.4c-7.9,7.7-10.3,18.1-10.3,29.4c0,11.5,2.4,21.7,10.3,29.4
		c5.3,5.1,12.7,8.4,21.7,8.4s16.6-3.3,21.7-8.4c7.9-7.7,10.3-18.1,10.3-29.4c0-11.5-2.4-21.7-10.3-29.4
		C747.8,517.5,740.4,514.3,731.4,514.3z M744.4,574.5c-2.9,2.9-7.2,5.1-13,5.1c-5.6,0-9.9-2.1-13-5.1c-5.1-5.3-6.7-14-6.7-22.4
		c0-8.4,1.5-17.1,6.7-22.4c2.9-2.9,7.2-5.1,13-5.1c5.6,0,9.9,2.1,13,5.1c5.1,5.3,6.7,14,6.7,22.4C751,560.5,749.5,569.2,744.4,574.5
		z"/>
	<path fill="#D50032" d="M816.9,514.3c-8,0-18.1,4.4-21.7,12.7l-1-10.8h-10.6v72h12.1v-33.5c0-5.5,0.2-13.2,2.6-18.3
		c3.1-6.5,8.7-11.1,15.7-11.1c11.5,0,15.7,6.3,15.7,17.3v45.7h12.1v-47.4C841.9,524,833.3,514.3,816.9,514.3z"/>
	<path fill="#D50032" d="M186.1,573l-21.2-56.8h-13.7l28.7,72l-4.6,12.1c-2.1,5.5-5.6,7.2-10.8,7.2c-4.6,0-8.6-1.2-8.6-1.2v10.6
		c1,0.3,5,1.4,10.9,1.4c10.8,0,16.1-6.2,19.5-15.4l24.3-64.8h-12.3L186.1,573z"/>
	<rect x="185.5" y="516" fill="#D50032" width="38.8" height="10.3"/>
	<circle fill="#D50032" cx="648.1" cy="521.3" r="7.4"/>
</g>
</svg>
